<svg xmlns="http://www.w3.org/2000/svg" width="16" height="16" viewBox="0 0 16 16">
  <path fill="#FFF" fill-rule="evenodd" d="M1.03225806,8 C1.03225806,4.15174194 4.15174194,1.03225806 8,1.03225806 C11.8482581,1.03225806 14.9677419,4.15174194 14.9677419,8 C14.9677419,11.8482581 11.8482581,14.9677419 8,14.9677419 C4.15174194,14.9677419 1.03225806,11.8482581 1.03225806,8 Z M8,0 C3.58193548,0 0,3.58193548 0,8 C0,12.4180645 3.58193548,16 8,16 C12.4180645,16 16,12.4180645 16,8 C16,3.58193548 12.4180645,0 8,0 Z M4.64516129,3.71612903 L4.23225806,3.71612903 L4.23225806,4.12903226 L4.23225806,8.25806452 L4.23225806,8.67096774 L4.64516129,8.67096774 L6.29677419,8.67096774 L6.29677419,9.5483871 L7.12258065,9.5483871 L7.12258065,8.67096774 L11.6129032,8.67096774 L12.0258065,8.67096774 L12.0258065,8.25806452 L12.0258065,4.12903226 L12.0258065,3.71612903 L11.6129032,3.71612903 L4.64516129,3.71612903 Z M5.05806452,7.84516129 L5.05806452,4.54193548 L11.2,4.54193548 L11.2,7.84516129 L6.70967742,7.84516129 L5.05806452,7.84516129 Z M5.93548387,5.93548387 L8,5.93548387 L8,5.41935484 L5.93548387,5.41935484 L5.93548387,5.93548387 Z M5.93548387,6.96774194 L5.93548387,6.4516129 L10.0645161,6.4516129 L10.0645161,6.96774194 L5.93548387,6.96774194 Z M8,10.8387097 C8,10.9832258 7.97625806,11.1215484 7.93290323,11.2516129 L12.6451613,11.2516129 L12.6451613,10.4258065 L7.93290323,10.4258065 C7.97625806,10.555871 8,10.6941935 8,10.8387097 Z M3.35483871,11.2516129 L5.48645161,11.2516129 C5.44309677,11.1215484 5.41935484,10.9832258 5.41935484,10.8387097 C5.41935484,10.6941935 5.44309677,10.555871 5.48645161,10.4258065 L3.35483871,10.4258065 L3.35483871,11.2516129 Z M6.70967742,10.5806452 C6.56722581,10.5806452 6.4516129,10.6962581 6.4516129,10.8387097 C6.4516129,10.9811613 6.56722581,11.0967742 6.70967742,11.0967742 C6.85212903,11.0967742 6.96774194,10.9811613 6.96774194,10.8387097 C6.96774194,10.6962581 6.85212903,10.5806452 6.70967742,10.5806452 Z M5.93548387,10.8387097 C5.93548387,10.4113548 6.28232258,10.0645161 6.70967742,10.0645161 C7.13703226,10.0645161 7.48387097,10.4113548 7.48387097,10.8387097 C7.48387097,11.2660645 7.13703226,11.6129032 6.70967742,11.6129032 C6.28232258,11.6129032 5.93548387,11.2660645 5.93548387,10.8387097 Z"/>
</svg>
