<svg xmlns="http://www.w3.org/2000/svg" width="16" height="16" viewBox="0 0 16 16">
  <path fill="#FFF" fill-rule="evenodd" d="M1.03225806,8 C1.03225806,4.15174194 4.15174194,1.03225806 8,1.03225806 C11.8482581,1.03225806 14.9677419,4.15174194 14.9677419,8 C14.9677419,11.8482581 11.8482581,14.9677419 8,14.9677419 C4.15174194,14.9677419 1.03225806,11.8482581 1.03225806,8 Z M8,0 C3.58193548,0 0,3.58193548 0,8 C0,12.4180645 3.58193548,16 8,16 C12.4180645,16 16,12.4180645 16,8 C16,3.58193548 12.4180645,0 8,0 Z M7.92406688,5.04020378 C7.40762647,5.04020378 6.98771282,5.47352106 6.98771282,6.00604826 C6.98771282,6.53862192 7.40762647,6.97156746 7.92406688,6.97156746 C8.44050729,6.97156746 8.86073232,6.53862192 8.86073232,6.00604826 C8.86073232,5.47352106 8.44179728,5.04020378 7.92406688,5.04020378 M7.92406688,7.55023771 C7.52795131,7.55181764 7.1473156,7.38945725 6.86543077,7.09865837 C6.58474696,6.81120521 6.42683452,6.41771129 6.42745727,6.00707056 C6.42745727,5.59461756 6.58341249,5.20674632 6.86543077,4.91576156 C7.14718215,4.62477681 7.52786234,4.46223055 7.92406688,4.46385694 C8.32427484,4.46385694 8.70032886,4.62445153 8.982703,4.91576156 C9.26352025,5.20298238 9.42147717,5.5964763 9.42067649,6.00707056 C9.42067649,6.41947709 9.26503265,6.80767362 8.982703,7.09865837 C8.7009961,7.38973606 8.32027142,7.55209645 7.92406688,7.55023771 M7.92406688,3.41636759 C6.44525022,3.41636759 5.41139079,4.60256494 5.41139079,6.30167985 C5.41139079,6.95665112 5.81827111,7.88169639 6.52843227,8.83829367 C6.80827091,9.21487311 7.12338408,9.58085777 7.41652295,9.86719569 C7.6864865,10.1306247 7.85262818,10.2451227 7.92282137,10.2832732 C7.99363732,10.2451227 8.15942314,10.1306247 8.4293867,9.86719569 C8.75028257,9.5485158 9.04729141,9.20451067 9.31778875,8.83829367 C10.0279499,7.88169639 10.4345189,6.95665112 10.4345189,6.30167985 C10.436743,4.60256494 9.40386215,3.41636759 7.92406688,3.41636759 M8.72412693,10.3755129 C8.57266444,10.5178454 8.43734904,10.6309958 8.31951522,10.7119437 C8.15942314,10.8227707 8.03745246,10.872213 7.92406688,10.872213 C7.81228267,10.872213 7.69000061,10.8227707 7.5289744,10.7119437 C7.38645286,10.610178 7.25122643,10.4977246 7.12431821,10.3755129 C6.80827091,10.0789055 6.46335455,9.69070893 6.15206687,9.28057935 C5.6670755,8.64187199 4.85238075,7.40460593 4.85238075,6.30270215 C4.85238075,5.36269407 5.14587548,4.49736061 5.6781961,3.86697109 C5.94771483,3.5462466 6.28004267,3.28974135 6.65262707,3.11474158 C7.04171443,2.93230687 7.46923457,2.83974194 7.92406688,2.83974194 C8.3788992,2.83974194 8.80704209,2.93230687 9.19550669,3.11474158 C9.56813557,3.28988076 9.90055238,3.54633954 10.170249,3.86697109 C10.7032369,4.49736061 10.995753,5.36269407 10.995753,6.30270215 C10.995753,7.40460593 10.1813696,8.64084969 9.69637827,9.28057935 C9.38477921,9.69070893 9.03986285,10.0798813 8.72412693,10.3755129 M8.00030968,12.1300645 C5.70613103,12.1300645 3.87127742,11.5941916 3.87127742,10.7106426 C3.87127742,10.1422418 4.54460718,9.76468653 5.62993272,9.52779092 C5.79918817,9.48030028 5.96724259,9.59015144 5.9805873,9.76333895 C6.02355728,9.92393353 5.93374736,10.0905225 5.78001626,10.135411 C5.77045255,10.1381991 5.76075539,10.1405225 5.75092479,10.1422418 C4.95562435,10.3167769 4.48170909,10.5848528 4.48170909,10.7106426 C4.48170909,10.7418228 4.52779284,10.789267 4.66564373,10.8838301 C4.83334229,10.9946571 5.07790641,11.1044618 5.39933607,11.1990248 C6.07235445,11.4034391 7.02138598,11.5145913 8.0148999,11.5145913 C9.00934794,11.5145913 9.94249927,11.4034391 10.6308196,11.1990248 C10.9509593,11.1044618 11.1961906,10.9946571 11.3642006,10.8838301 C11.4861712,10.789267 11.5322105,10.7418228 11.5322105,10.7106426 C11.5322105,10.5686353 11.0128787,10.2842955 10.1410241,10.1110615 C9.98004239,10.0848069 9.86990403,9.92713985 9.89503657,9.75897092 C9.89557036,9.75543933 9.89614863,9.75190773 9.89681586,9.74842261 C9.92541803,9.57876669 10.0802612,9.46547688 10.2426664,9.49540249 C10.2446681,9.49577424 10.2466698,9.49619245 10.248716,9.4965642 C11.4102398,9.73215869 12.1293419,10.1273255 12.1293419,10.7106426 C12.1293419,11.5941916 10.2944438,12.1300645 8.00030968,12.1300645"/>
</svg>
