<svg xmlns="http://www.w3.org/2000/svg" width="16" height="16" viewBox="0 0 16 16">
  <g fill="none" fill-rule="evenodd">
    <rect width="16" height="16"/>
    <path fill="#FFF" d="M8.57142857,1.14285714 C8.256,1.14285714 8,1.39885714 8,1.71428571 C8,2.02971429 8.256,2.28571429 8.57142857,2.28571429 C8.88685714,2.28571429 9.14285714,2.02971429 9.14285714,1.71428571 C9.14285714,1.39885714 8.88685714,1.14285714 8.57142857,1.14285714 Z M6.85714286,1.71428571 C6.85714286,0.768 7.62514286,0 8.57142857,0 C9.51771429,0 10.2857143,0.768 10.2857143,1.71428571 C10.2857143,2.66057143 9.51771429,3.42857143 8.57142857,3.42857143 C8.28914286,3.42857143 8.02285714,3.36 7.78742857,3.23885714 L4.05714286,6.55542857 C4.26285714,6.80685714 4.416,7.104 4.49942857,7.42857143 L12.6685714,7.42857143 C12.904,6.76228571 13.5394286,6.28571429 14.2857143,6.28571429 C15.232,6.28571429 16,7.05257143 16,8 C16,8.94628571 15.232,9.71428571 14.2857143,9.71428571 C13.5394286,9.71428571 12.904,9.23657143 12.6685714,8.57142857 L4.49942857,8.57142857 C4.41028571,8.91771429 4.24228571,9.23085714 4.016,9.49371429 L7.48342857,12.9611429 C7.77942857,12.7177143 8.15885714,12.5714286 8.57142857,12.5714286 C9.51771429,12.5714286 10.2857143,13.3394286 10.2857143,14.2857143 C10.2857143,15.232 9.51771429,16 8.57142857,16 C7.62514286,16 6.85714286,15.232 6.85714286,14.2857143 C6.85714286,14.1805714 6.86628571,14.0777143 6.88457143,13.9782857 L3.05828571,10.152 C2.81714286,10.2388571 2.55657143,10.2857143 2.28571429,10.2857143 C1.02285714,10.2857143 0,9.26171429 0,8 C0,6.73714286 1.02285714,5.71428571 2.28571429,5.71428571 C2.576,5.71428571 2.85485714,5.768 3.11085714,5.86742857 L7.00342857,2.40685714 C6.90971429,2.19542857 6.85714286,1.96114286 6.85714286,1.71428571 Z M3.42857143,8 C3.42857143,7.368 2.91657143,6.85714286 2.28571429,6.85714286 C1.65485714,6.85714286 1.14285714,7.368 1.14285714,8 C1.14285714,8.63085714 1.65485714,9.14285714 2.28571429,9.14285714 C2.91657143,9.14285714 3.42857143,8.63085714 3.42857143,8 Z M8,14.2857143 C8,13.9702857 8.256,13.7142857 8.57142857,13.7142857 C8.88685714,13.7142857 9.14285714,13.9702857 9.14285714,14.2857143 C9.14285714,14.6011429 8.88685714,14.8571429 8.57142857,14.8571429 C8.256,14.8571429 8,14.6011429 8,14.2857143 Z M14.2857143,7.42857143 C13.9702857,7.42857143 13.7142857,7.68457143 13.7142857,8 C13.7142857,8.31542857 13.9702857,8.57142857 14.2857143,8.57142857 C14.6011429,8.57142857 14.8571429,8.31542857 14.8571429,8 C14.8571429,7.68457143 14.6011429,7.42857143 14.2857143,7.42857143 Z"/>
  </g>
</svg>
