<?xml version="1.0" encoding="UTF-8"?>
<svg width="16px" height="16px" viewBox="0 0 16 16" version="1.1" xmlns="http://www.w3.org/2000/svg" xmlns:xlink="http://www.w3.org/1999/xlink">
    <!-- Generator: Sketch 52.3 (67297) - http://www.bohemiancoding.com/sketch -->
    <title>Group 12</title>
    <desc>Created with Sketch.</desc>
    <g id="知识图谱（全）" stroke="none" stroke-width="1" fill="none" fill-rule="evenodd">
        <g id="管理页面" transform="translate(-1272.000000, -80.000000)">
            <g id="Group-13" transform="translate(1272.000000, 76.000000)">
                <g id="Group-12" transform="translate(0.000000, 4.000000)">
                    <rect id="Rectangle" x="0" y="0" width="16" height="16"></rect>
                    <path d="M13.9167559,6.99829903 C13.9715021,7.32404352 14,7.65869374 14,8 C14,8.34130626 13.9715021,8.67595648 13.9167559,9.00170097 C12.8507907,9.04534379 12,9.92331549 12,11 C12,11.4200656 12.129503,11.8098841 12.3507623,12.1317087 C11.6670857,12.851401 10.8067107,13.4016275 9.8391529,13.7128728 C9.53350336,12.9996427 8.82510059,12.5 8,12.5 C7.17489941,12.5 6.46649664,12.9996427 6.1608471,13.7128728 C5.19328929,13.4016275 4.33291433,12.851401 3.64923771,12.1317087 C3.87049695,11.8098841 4,11.4200656 4,11 C4,9.92331549 3.14920933,9.04534379 2.08324406,9.00170097 C2.02849791,8.67595648 2,8.34130626 2,8 C2,7.65869374 2.02849791,7.32404352 2.08324406,6.99829903 C3.14920933,6.95465621 4,6.07668451 4,5 C4,4.57993442 3.87049695,4.19011589 3.64923771,3.86829128 C4.33291433,3.14859897 5.19328929,2.59837245 6.1608471,2.28712719 C6.46649664,3.00035726 7.17489941,3.5 8,3.5 C8.82510059,3.5 9.53350336,3.00035726 9.8391529,2.28712719 C10.8067107,2.59837245 11.6670857,3.14859897 12.3507623,3.86829128 C12.129503,4.19011589 12,4.57993442 12,5 C12,6.07668451 12.8507907,6.95465621 13.9167559,6.99829903 Z" id="Combined-Shape" stroke="#2979FF" stroke-linecap="round" stroke-linejoin="round"></path>
                    <circle id="Oval" stroke="#2979FF" cx="8" cy="8" r="2"></circle>
                </g>
            </g>
        </g>
    </g>
</svg>