<svg xmlns="http://www.w3.org/2000/svg" width="16" height="16" viewBox="0 0 16 16">
  <g fill="none" fill-rule="evenodd">
    <rect width="16" height="16"/>
    <path fill="#FFF" d="M10.0653999,2.00075801 L10.0653999,2.75649043 L12.7091724,2.75649043 L9.37453444,6.09323479 L9.90934916,6.62762933 L13.2447446,3.29088497 L13.2432296,5.93708547 L13.9984849,5.93708547 L14,2 L10.0653999,2.00075801 Z M2.00151506,5.93708547 L2.75601288,5.93708547 L2.75525535,3.29088497 L6.09065084,6.62762933 L6.62470804,6.09323479 L3.29007007,2.75649043 L5.93460009,2.75649043 L5.93460009,2.00075801 L2,2 L2.00151506,5.93708547 Z M9.37453444,9.90676521 L12.7091724,13.2435096 L10.0653999,13.2435096 L10.0653999,13.998484 L14,14 L13.9984849,10.0629145 L13.2432296,10.0629145 L13.2447446,12.709115 L9.90934916,9.37237067 L9.37453444,9.90676521 Z M2.75525535,12.709115 L2.75601288,10.0629145 L2.00151506,10.0629145 L2,14 L5.93460009,13.998484 L5.93460009,13.2435096 L3.29007007,13.2435096 L6.62470804,9.90676521 L6.09065084,9.37237067 L2.75525535,12.709115 Z"/>
  </g>
</svg>   
