<?xml version="1.0" encoding="UTF-8"?>
<svg width="3px" height="13px" viewBox="0 0 3 13" version="1.1" xmlns="http://www.w3.org/2000/svg" xmlns:xlink="http://www.w3.org/1999/xlink">
    <!-- Generator: Sketch 52.3 (67297) - http://www.bohemiancoding.com/sketch -->
    <title>Group 5 Copy</title>
    <desc>Created with Sketch.</desc>
    <g id="Page-2" stroke="none" stroke-width="1" fill="none" fill-rule="evenodd">
        <g id="管理页面" transform="translate(-604.000000, -400.000000)" fill="#FFFFFF">
            <g id="Group-13" transform="translate(245.000000, 296.000000)">
                <g id="Group-8">
                    <g id="Group-7">
                        <g id="Group-5-Copy" transform="translate(352.000000, 102.000000)">
                            <path d="M8.5,12 C7.671,12 7,12.672 7,13.5 C7,14.328 7.671,15 8.5,15 C9.329,15 10,14.328 10,13.5 C10,12.672 9.329,12 8.5,12 M8,13.5 C8,13.224 8.224,13 8.5,13 C8.776,13 9,13.224 9,13.5 C9,13.776 8.776,14 8.5,14 C8.224,14 8,13.776 8,13.5 M7,8.5 C7,7.671 7.671,7 8.5,7 C9.329,7 10,7.671 10,8.5 C10,9.329 9.329,10 8.5,10 C7.671,10 7,9.329 7,8.5 M8.5,8 C8.224,8 8,8.224 8,8.5 C8,8.776 8.224,9 8.5,9 C8.776,9 9,8.776 9,8.5 C9,8.224 8.776,8 8.5,8 M7,3.5 C7,2.671 7.671,2 8.5,2 C9.329,2 10,2.671 10,3.5 C10,4.329 9.329,5 8.5,5 C7.671,5 7,4.329 7,3.5 M8.5,3 C8.224,3 8,3.224 8,3.5 C8,3.776 8.224,4 8.5,4 C8.776,4 9,3.776 9,3.5 C9,3.224 8.776,3 8.5,3" id="Fill-1"></path>
                        </g>
                    </g>
                </g>
            </g>
        </g>
    </g>
</svg>