<?xml version="1.0" encoding="UTF-8"?>
<svg width="13px" height="14px" viewBox="0 0 13 14" version="1.1" xmlns="http://www.w3.org/2000/svg" xmlns:xlink="http://www.w3.org/1999/xlink">
    <!-- Generator: Sketch 52.3 (67297) - http://www.bohemiancoding.com/sketch -->
    <title>Group 5</title>
    <desc>Created with Sketch.</desc>
    <g id="Page-2" stroke="none" stroke-width="1" fill="none" fill-rule="evenodd">
        <g id="管理页面" transform="translate(-567.000000, -399.000000)" fill="#FFFFFF" style="fill-opacity:0.7">
            <g id="Group-13" transform="translate(245.000000, 296.000000)">
                <g id="Group-8">
                    <g id="Group-7">
                        <g id="Group-5" transform="translate(320.000000, 102.000000)">
                            <path d="M12,1 L11.646,1.353 L3.147,9.853 L3,10 L3,10.207 L3,11.706 L3,12.207 L3.5,12.207 L5,12.207 L5.207,12.207 L5.354,12.06 L13.854,3.561 L14.207,3.207 L13.854,2.853 L12.354,1.353 L12,1 Z M10.457,3.956 L12,2.414 L12.793,3.207 L11.25,4.749 L10.457,3.956 Z M4,10.414 L9.75,4.664 L10.543,5.457 L4.793,11.207 L4,11.207 L4,10.414 Z M2,14.207 L14,14.207 L14,13.207 L2,13.207 L2,14.207 Z" id="Fill-1"></path>
                        </g>
                    </g>
                </g>
            </g>
        </g>
    </g>
</svg>