<svg xmlns="http://www.w3.org/2000/svg" width="16" height="16" viewBox="0 0 16 16">
  <path fill="#FFF" fill-rule="evenodd" d="M6.7979482,8.39919935 C7.24083573,8.39919935 7.59989991,8.74948396 7.59989991,9.20235191 L7.59989991,12.3936949 C7.59989991,13.2806655 6.89052921,14 5.9947454,14 L3.60515451,14 C2.71812836,14 2,13.2894227 2,12.3936949 L2,10.0042535 C2,9.11728279 2.7093707,8.39919935 3.60515451,8.39919935 L6.7979482,8.39919935 Z M6.7979482,9.19984988 L3.60515451,9.19984988 C3.15350932,9.19984988 2.80070061,9.55263652 2.80070061,10.0042535 L2.80070061,12.3936949 C2.80070061,12.8465628 3.15350932,13.1993495 3.60515451,13.1993495 L5.9947454,13.1993495 C6.44639059,13.1993495 6.80045039,12.8465628 6.80045039,12.3936949 L6.80045039,9.20235191 L6.7979482,9.19984988 Z M12.3948455,8.39919935 C13.2818716,8.39919935 14,9.10852568 14,10.0042535 L14,12.3936949 C14,13.2806655 13.2906293,14 12.3948455,14 L10.0052546,14 C9.11822845,14 8.40010009,13.2894227 8.40010009,12.3936949 L8.40010009,9.20235191 C8.40010009,8.75824107 8.75040661,8.39919935 9.2020518,8.39919935 L12.3948455,8.39919935 Z M12.3948455,9.19984988 L9.2020518,9.19984988 L9.19954961,12.3936949 C9.19954961,12.8465628 9.55360941,13.1993495 10.0052546,13.1993495 L12.3948455,13.1993495 C12.8464907,13.1993495 13.2005505,12.8465628 13.2005505,12.3936949 L13.2005505,10.0042535 C13.2005505,9.55263652 12.8464907,9.19984988 12.3948455,9.19984988 Z M5.99524584,2 C6.88102089,2 7.60040035,2.70932633 7.60040035,3.60505411 L7.60040035,6.79639707 C7.60040035,7.24050791 7.25009383,7.59954963 6.79844864,7.59954963 L3.60440385,7.59954963 C2.7186288,7.59954963 2.00050044,6.89022331 2.00050044,5.99449553 L2.00050044,3.60505411 C2.00050044,2.71808344 2.70987114,2 3.60440385,2 L5.99524584,2 Z M5.99524584,2.79939951 L3.60440385,2.79939951 C3.15400976,2.79939951 2.79994996,3.15343717 2.79994996,3.60505411 L2.79994996,5.99449553 C2.79994996,6.44611247 3.15400976,6.79889911 3.60440385,6.79889911 L6.79844864,6.79889911 L6.80095083,3.60505411 C6.80095083,3.15343717 6.44689103,2.79939951 5.99524584,2.79939951 Z M12.3948455,2 C13.2818716,2 14,2.70932633 14,3.60505411 L14,5.99449553 C14,6.88146619 13.2906293,7.59954963 12.3948455,7.59954963 L9.2020518,7.59954963 C8.75916427,7.59954963 8.40010009,7.24926503 8.40010009,6.79639707 L8.40010009,3.60505411 C8.40010009,2.71808344 9.10947079,2 10.0052546,2 L12.3948455,2 Z M12.3948455,2.79939951 L10.0052546,2.79939951 C9.55360941,2.79939951 9.19954961,3.15343717 9.19954961,3.60505411 L9.19954961,6.79639707 L12.3948455,6.79889911 C12.8464907,6.79889911 13.2005505,6.44611247 13.2005505,5.99449553 L13.2005505,3.60505411 C13.2005505,3.15343717 12.8464907,2.79939951 12.3948455,2.79939951 Z"/>
</svg>
