<svg xmlns="http://www.w3.org/2000/svg" width="16" height="16" viewBox="0 0 16 16">
  <g fill="none" fill-rule="evenodd">
    <rect width="16" height="16"/>
    <path fill="#FFF" d="M6.5,6.0003 C7.33,6.0003 8,5.3303 8,4.5003 C8,3.6703 7.33,3.0003 6.5,3.0003 C5.67,3.0003 5,3.6703 5,4.5003 C5,5.3303 5.67,6.0003 6.5,6.0003 Z M6.5,2.0003 C7.88,2.0003 9,3.1203 9,4.5003 C9,5.8803 7.88,7.0003 6.5,7.0003 C5.12,7.0003 4,5.8803 4,4.5003 C4,3.1203 5.12,2.0003 6.5,2.0003 Z M7,8.0008 C7.701,8.0008 8.375,8.1208 9,8.3418 L9,9.4168 C8.388,9.1488 7.711,9.0008 7,9.0008 C4.239,9.0008 2,11.2388 2,14.0008 L1,14.0008 L1,13.9998 C1,10.6868 3.687,8.0008 7,8.0008 Z M14.3496,10.8191 L12.8496,12.3191 L12.4996,12.6781 L12.1506,12.3191 L11.1506,11.3191 L11.8496,10.6191 L12.4996,11.2581 L13.6506,10.1191 L14.3496,10.8191 Z M12.5,13.9685 C13.88,13.9685 15,12.8485 15,11.4685 C15,10.0885 13.88,8.9685 12.5,8.9685 C11.12,8.9685 10,10.0885 10,11.4685 C10,12.8485 11.12,13.9685 12.5,13.9685 Z M12.5,7.9685 C14.43,7.9685 16,9.5385 16,11.4685 C16,13.3995 14.43,14.9685 12.5,14.9685 C10.57,14.9685 9,13.3995 9,11.4685 C9,9.5385 10.57,7.9685 12.5,7.9685 Z"/>
  </g>
</svg>
