<svg xmlns="http://www.w3.org/2000/svg" width="16" height="16" viewBox="0 0 16 16">
  <g fill="none" fill-rule="evenodd">
    <rect width="16" height="16"/>
    <path fill="#FFF" d="M5.92,9 C2.95,9 0.48,11.16 0,14 L1.02,14 C1.48,11.721 3.5,10 5.92,10 C8.34,10 10.36,11.721 10.82,14 L11.84,14 C11.36,11.16 8.89,9 5.92,9 M5.92,7 C4.82,7 3.92,6.11 3.92,5 C3.92,3.9 4.82,3 5.92,3 C7.02,3 7.92,3.9 7.92,5 C7.92,6.11 7.02,7 5.92,7 M5.92,2 C4.26,2 2.92,3.34 2.92,5 C2.92,6.66 4.26,8 5.92,8 C7.58,8 8.92,6.66 8.92,5 C8.92,3.34 7.58,2 5.92,2 M9.92,9 C9.79,9 9.67,9 9.55,9.011 C10.05,9.32 10.51,9.681 10.92,10.101 C12.88,10.5 14.42,12.04 14.82,14 L15.84,14 C15.36,11.16 12.89,9 9.92,9 M9.92,2 C9.52,2 9.14,2.08 8.79,2.22 C9.04,2.47 9.25,2.75 9.42,3.06 C9.58,3.021 9.75,3 9.92,3 C11.02,3 11.92,3.9 11.92,5 C11.92,6.11 11.02,7 9.92,7 C9.75,7 9.58,6.98 9.42,6.94 C9.25,7.25 9.04,7.53 8.79,7.78 C9.14,7.92 9.52,8 9.92,8 C11.58,8 12.92,6.66 12.92,5 C12.92,3.34 11.58,2 9.92,2"/>
  </g>
</svg>
