<svg xmlns="http://www.w3.org/2000/svg" width="16" height="16" viewBox="0 0 16 16">
  <g fill="none" fill-rule="evenodd">
    <rect width="16" height="16"/>
    <path fill="#FFF" d="M8.055,6.4278 C7.098,6.4278 6.321,7.2058 6.321,8.1618 C6.321,9.1178 7.099,9.8958 8.055,9.8958 C9.01,9.8958 9.788,9.1178 9.788,8.1618 C9.788,7.2058 9.01,6.4278 8.055,6.4278 M8.055,10.7898 C6.606,10.7898 5.427,9.6108 5.427,8.1618 C5.427,6.7128 6.606,5.5338 8.055,5.5338 C9.503,5.5338 10.682,6.7128 10.682,8.1618 C10.682,9.6098 9.503,10.7898 8.055,10.7898 M10.304,14.4218 C10.322,14.4308 10.342,14.4368 10.363,14.4368 L10.366,14.4368 L12.168,13.4408 C12.124,13.3398 11.925,12.8488 11.925,12.3378 C11.925,10.8068 13.131,9.5528 14.642,9.4738 C14.663,9.3538 14.782,8.6778 14.782,8.1718 C14.782,7.6648 14.663,6.9898 14.642,6.8688 C13.131,6.7898 11.925,5.5358 11.925,4.0058 C11.925,3.4928 12.125,3.0018 12.168,2.9018 L10.395,1.9168 L10.387,1.9158 C10.364,1.9158 10.34,1.9228 10.32,1.9338 C10.118,2.1358 9.898,2.3198 9.663,2.4848 C9.117,2.8688 8.6,3.0638 8.127,3.0638 C7.65,3.0638 7.129,2.8648 6.578,2.4728 C6.207,2.2088 5.949,1.9428 5.919,1.9118 C5.898,1.8998 5.874,1.8938 5.851,1.8938 L5.844,1.8938 L4.007,2.9028 C4.051,3.0058 4.249,3.4948 4.249,4.0058 C4.249,5.5358 3.044,6.7908 1.533,6.8688 C1.511,6.9898 1.393,7.6648 1.393,8.1718 C1.393,8.6778 1.511,9.3538 1.533,9.4738 C3.044,9.5528 4.249,10.8068 4.249,12.3378 C4.249,12.8508 4.049,13.3438 4.006,13.4418 L5.745,14.4148 L5.749,14.4148 C5.769,14.4148 5.789,14.4088 5.807,14.3998 C5.839,14.3648 6.099,14.0898 6.473,13.8158 C7.031,13.4068 7.56,13.1998 8.048,13.1998 C8.539,13.1998 9.074,13.4108 9.634,13.8278 C10.011,14.1058 10.272,14.3858 10.304,14.4218 M10.363,15.3308 C10.086,15.3308 9.818,15.2168 9.645,15.0248 C9.409,14.7658 8.66,14.0938 8.048,14.0938 C7.44,14.0938 6.68,14.7698 6.462,15.0078 C6.289,15.1958 6.023,15.3078 5.749,15.3078 C5.623,15.3088 5.499,15.2838 5.384,15.2338 L5.365,15.2248 L3.502,14.1838 L3.484,14.1718 C3.146,13.9338 3.017,13.4698 3.184,13.0918 C3.186,13.0898 3.356,12.6958 3.356,12.3378 C3.356,11.2498 2.471,10.3638 1.383,10.3638 L1.317,10.3638 L1.305,10.3638 C0.993,10.3638 0.74,10.0878 0.659,9.6588 C0.652,9.6248 0.5,8.8118 0.5,8.1718 C0.5,7.5318 0.652,6.7188 0.659,6.6838 C0.741,6.2508 1,5.9708 1.317,5.9788 L1.383,5.9788 C2.471,5.9788 3.356,5.0938 3.356,4.0058 C3.356,3.6468 3.186,3.2538 3.184,3.2508 C3.016,2.8728 3.146,2.4088 3.487,2.1728 L3.506,2.1588 L5.47,1.0798 L5.491,1.0718 C5.605,1.0238 5.727,0.9988 5.851,0.9998 C6.123,0.9998 6.391,1.1098 6.565,1.2938 C6.797,1.5368 7.533,2.1708 8.127,2.1708 C8.716,2.1708 9.447,1.5498 9.679,1.3108 C9.852,1.1308 10.118,1.0228 10.387,1.0228 C10.518,1.0228 10.642,1.0478 10.754,1.0958 L10.774,1.1048 L12.671,2.1588 L12.69,2.1718 C13.03,2.4088 13.159,2.8728 12.991,3.2508 C12.99,3.2538 12.82,3.6468 12.82,4.0058 C12.82,5.0938 13.704,5.9788 14.792,5.9788 L14.859,5.9788 C15.175,5.9718 15.435,6.2498 15.517,6.6838 C15.524,6.7188 15.675,7.5318 15.675,8.1718 C15.675,8.8118 15.524,9.6248 15.517,9.6588 C15.435,10.0938 15.175,10.3708 14.859,10.3638 L14.792,10.3638 C13.704,10.3638 12.82,11.2498 12.82,12.3378 C12.82,12.6958 12.99,13.0888 12.992,13.0928 C13.159,13.4698 13.03,13.9338 12.69,14.1708 L12.67,14.1838 L10.742,15.2508 L10.721,15.2598 C10.608,15.3068 10.486,15.3318 10.363,15.3308"/>
  </g>
</svg>
