<svg xmlns="http://www.w3.org/2000/svg" width="16" height="16" viewBox="0 0 16 16">
  <g fill="none" fill-rule="evenodd">
    <rect width="16" height="16"/>
    <path fill="#FFF" d="M7.92,8.9997 C4.95,8.9997 2.48,11.1597 2,13.9997 L3.02,13.9997 C3.48,11.7207 5.5,9.9997 7.92,9.9997 C10.34,9.9997 12.36,11.7207 12.82,13.9997 L13.84,13.9997 C13.36,11.1597 10.89,8.9997 7.92,8.9997 M7.92,6.9997 C6.82,6.9997 5.92,6.1097 5.92,4.9997 C5.92,3.8997 6.82,2.9997 7.92,2.9997 C9.02,2.9997 9.92,3.8997 9.92,4.9997 C9.92,6.1097 9.02,6.9997 7.92,6.9997 M7.92,1.9997 C6.26,1.9997 4.92,3.3397 4.92,4.9997 C4.92,6.6597 6.26,7.9997 7.92,7.9997 C9.58,7.9997 10.92,6.6597 10.92,4.9997 C10.92,3.3397 9.58,1.9997 7.92,1.9997"/>
  </g>
</svg>
