<?xml version="1.0" encoding="UTF-8"?>
<svg width="16px" height="16px" viewBox="0 0 16 16" version="1.1" xmlns="http://www.w3.org/2000/svg" xmlns:xlink="http://www.w3.org/1999/xlink">
    <!-- Generator: Sketch 52.3 (67297) - http://www.bohemiancoding.com/sketch -->
    <title>Group 13</title>
    <desc>Created with Sketch.</desc>
    <g id="知识图谱（全）" stroke="none" stroke-width="1" fill="none" fill-rule="evenodd">
        <g id="管理页面" transform="translate(-1340.000000, -80.000000)">
            <rect id="Rectangle" fill="#141F31" x="0" y="0" width="1440" height="768"></rect>
            <g id="Group-13" transform="translate(1272.000000, 76.000000)">
                <g id="Group-12" transform="translate(68.000000, 4.000000)">
                    <rect id="Rectangle" x="0" y="0" width="16" height="16"></rect>
                    <g id="Group-13" transform="translate(1.000000, 1.000000)" fill="#2979FF">
                        <path d="M12.9102,5.1346 C12.8702,4.8946 12.6702,4.7246 12.4402,4.7146 C11.6302,4.6846 11.0002,4.0246 11.0002,3.2146 C11.0002,2.9146 11.0902,2.6146 11.2602,2.3646 C11.4002,2.1746 11.3802,1.9046 11.2102,1.7346 C10.4602,0.9446 9.5192,0.3546 8.4902,0.0246 C8.2402,-0.0554 7.9802,0.0646 7.8802,0.3046 C7.6392,0.8546 7.1002,1.2146 6.5002,1.2146 C5.9002,1.2146 5.3602,0.8546 5.1202,0.3046 C5.0202,0.0646 4.7502,-0.0554 4.5102,0.0246 C3.4802,0.3546 2.5402,0.9446 1.7902,1.7346 C1.6202,1.9146 1.6002,2.1746 1.7402,2.3646 C1.9102,2.6146 2.0002,2.9046 2.0002,3.2146 C2.0002,4.0246 1.3702,4.6846 0.5602,4.7146 C0.3302,4.7246 0.1302,4.8946 0.0902,5.1346 C0.0302,5.4846 0.0002,5.8546 0.0002,6.2146 C0.0002,6.5746 0.0302,6.9446 0.0902,7.2946 C0.1302,7.5346 0.3302,7.7046 0.5602,7.7146 C1.3702,7.7446 2.0002,8.4056 2.0002,9.2146 C2.0002,9.5146 1.9102,9.8146 1.7402,10.0646 C1.6002,10.2546 1.6202,10.5146 1.7902,10.6956 C2.5402,11.4746 3.4802,12.0746 4.5102,12.4056 C4.5602,12.4246 4.6102,12.4246 4.6602,12.4246 C4.8602,12.4246 5.0402,12.3146 5.1202,12.1246 C5.3202,11.6646 5.7402,11.3346 6.2202,11.2446 L6.2202,10.2346 C5.4902,10.3146 4.8402,10.7146 4.4302,11.3146 C3.8202,11.0646 3.2602,10.7046 2.7702,10.2546 C2.9202,9.9346 3.0002,9.5746 3.0002,9.2146 C3.0002,8.0146 2.1602,7.0146 1.0302,6.7746 C1.0102,6.5846 1.0002,6.4046 1.0002,6.2146 C1.0002,6.0246 1.0102,5.8446 1.0302,5.6546 C2.1602,5.4146 3.0002,4.4146 3.0002,3.2146 C3.0002,2.8546 2.9202,2.4946 2.7702,2.1746 C3.2602,1.7246 3.8202,1.3646 4.4302,1.1146 C4.8902,1.7946 5.6602,2.2146 6.5002,2.2146 C7.3402,2.2146 8.1102,1.7946 8.5702,1.1146 C9.1802,1.3646 9.7402,1.7246 10.2302,2.1746 C10.0802,2.4946 10.0002,2.8546 10.0002,3.2146 C10.0002,4.4146 10.8402,5.4146 11.9702,5.6546 C11.9902,5.8446 12.0002,6.0246 12.0002,6.2146 L13.0002,6.2146 C13.0002,5.8546 12.9702,5.4846 12.9102,5.1346" id="Fill-1"></path>
                        <path d="M6.5,3.7147 C5.12,3.7147 4,4.8347 4,6.2147 C4,7.5047 4.97,8.5647 6.22,8.7047 L6.22,7.6847 C5.52,7.5547 5,6.9447 5,6.2147 C5,5.3847 5.67,4.7147 6.5,4.7147 C7.33,4.7147 8,5.3847 8,6.2147 L9,6.2147 C9,4.8347 7.88,3.7147 6.5,3.7147" id="Fill-3"></path>
                        <path d="M7.9854,8.0555 L11.6004,8.0555 C12.4134,8.0555 13.0284,8.6685 13.0284,9.4835 L13.0284,11.3325 C13.0284,12.1865 12.5144,12.7595 11.7464,12.7595 L7.6224,12.7595 L7.6224,12.7535 L7.6224,11.9435 L11.7464,11.9435 C11.9334,11.9435 12.0544,11.8755 12.1314,11.7325 C12.2044,11.5935 12.2154,11.4205 12.2154,11.3285 L12.2154,9.4795 C12.2154,9.1175 11.9634,8.8655 11.6004,8.8655 L7.9854,8.8655" id="Fill-9"></path>
                        <polygon id="Fill-11" points="9.4336 10.2264 7.2136 8.4024 9.4336 6.5774 9.9416 7.1954 8.4736 8.4024 9.9416 9.6094"></polygon>
                    </g>
                </g>
            </g>
        </g>
    </g>
</svg>