<?xml version="1.0" encoding="utf-8"?>
<!-- Generator: Adobe Illustrator 23.0.2, SVG Export Plug-In . SVG Version: 6.00 Build 0)  -->
<svg version="1.1" id="图层_1" xmlns="http://www.w3.org/2000/svg" xmlns:xlink="http://www.w3.org/1999/xlink" x="0px" y="0px"
	 viewBox="0 0 16 16" style="enable-background:new 0 0 16 16;" xml:space="preserve">
<style type="text/css">
	.st0{fill-rule:evenodd;clip-rule:evenodd;fill:#FFFFFF;}
</style>
<path class="st0" d="M2,0.5H1.5V1v14v0.5H2h12h0.5V15V5V4.8l-0.1-0.1l-4-4l-0.1-0.1H10H2z M2.5,14.5v-13h7V5v0.5H10h3.5v9H2.5z
	 M12.8,4.5l-2.3-2.3v2.3H12.8z M4.5,4.5h3v-1h-3V4.5z M5.7,7.8C6.3,7.6,7.1,7.5,8,7.5s1.7,0.1,2.3,0.3c0.3,0.1,0.6,0.2,0.8,0.4
	c0.2,0.2,0.4,0.4,0.4,0.8v2c0,0.4-0.2,0.6-0.4,0.8c-0.2,0.2-0.5,0.3-0.8,0.4c-0.6,0.2-1.4,0.3-2.3,0.3s-1.7-0.1-2.3-0.3
	c-0.3-0.1-0.6-0.2-0.8-0.4c-0.2-0.2-0.4-0.4-0.4-0.8V9c0-0.4,0.2-0.6,0.4-0.8C5.1,8,5.4,7.9,5.7,7.8z M10.3,10.2
	c0.1,0,0.1-0.1,0.2-0.1V11c0,0,0,0,0,0c-0.1,0.1-0.2,0.2-0.5,0.2c-0.5,0.2-1.2,0.3-2,0.3s-1.5-0.1-2-0.3c-0.2-0.1-0.4-0.2-0.5-0.2
	c0,0,0,0,0,0v-0.9c0.1,0,0.1,0.1,0.2,0.1c0.6,0.2,1.4,0.3,2.3,0.3S9.7,10.4,10.3,10.2z M5.5,9C5.6,8.9,5.8,8.8,6,8.8
	c0.5-0.2,1.2-0.3,2-0.3s1.5,0.1,2,0.3c0.2,0.1,0.4,0.2,0.5,0.2c-0.1,0.1-0.2,0.2-0.5,0.2C9.5,9.4,8.8,9.5,8,9.5S6.5,9.4,6,9.2
	C5.8,9.2,5.6,9.1,5.5,9z M10.5,8.9C10.5,8.9,10.5,8.9,10.5,8.9C10.5,8.9,10.5,8.9,10.5,8.9z M5.5,8.9C5.5,8.9,5.5,8.9,5.5,8.9
	C5.5,8.9,5.5,8.9,5.5,8.9z"/>
</svg>
