<svg width="16" height="16" viewBox="0 0 16 16" fill="none" xmlns="http://www.w3.org/2000/svg">
<path fill-rule="evenodd" clip-rule="evenodd" d="M5.54713 11.1599L6.98395 9.72307C6.69275 9.55097 6.44895 9.30715 6.27689 9.01592L4.84004 10.4528C4.31355 9.77544 4.00004 8.92435 4.00004 8.00004C4.00004 7.07573 4.31355 6.22464 4.84004 5.54731L6.27689 6.98416C6.44895 6.69293 6.69275 6.44911 6.98395 6.27701L5.54713 4.84018C6.22448 4.31361 7.07564 4.00004 8.00004 4.00004C8.92435 4.00004 9.77544 4.31355 10.4528 4.84004L9.01592 6.27689C9.30715 6.44895 9.55097 6.69275 9.72307 6.98395L11.1599 5.54713C11.6865 6.22448 12 7.07564 12 8.00004C12 8.92444 11.6865 9.7756 11.1599 10.453L9.72307 9.01613C9.55097 9.30734 9.30715 9.55113 9.01592 9.72319L10.4528 11.16C9.77544 11.6865 8.92435 12 8.00004 12C7.07564 12 6.22448 11.6865 5.54713 11.1599ZM4.12849 11.1643L2.70923 12.5836C2.92785 12.8357 3.16419 13.0721 3.41632 13.2907L4.83558 11.8714C5.69753 12.5768 6.79936 13 8.00004 13C9.20063 13 10.3024 12.5769 11.1643 11.8716L12.5836 13.2909C12.8357 13.0722 13.0721 12.8359 13.2907 12.5838L11.8714 11.1645C12.5768 10.3025 13 9.20072 13 8.00004C13 6.79936 12.5768 5.69753 11.8714 4.83558L13.2907 3.41632C13.0721 3.16419 12.8357 2.92785 12.5836 2.70923L11.1643 4.12849C10.3024 3.42319 9.20063 3.00004 8.00004 3.00004C6.79936 3.00004 5.69753 3.42325 4.83558 4.12864L3.41632 2.70938C3.16419 2.92801 2.92785 3.16436 2.70923 3.4165L4.12849 4.83576C3.42319 5.69769 3.00004 6.79945 3.00004 8.00004C3.00004 9.20063 3.42319 10.3024 4.12849 11.1643Z" fill="white"/>
</svg>
