<svg xmlns="http://www.w3.org/2000/svg" width="16" height="16" viewBox="0 0 16 16">
  <path fill="#FFF" fill-rule="evenodd" d="M8,1.03225806 C4.15174194,1.03225806 1.03225806,4.15174194 1.03225806,8 C1.03225806,11.8482581 4.15174194,14.9677419 8,14.9677419 C11.8482581,14.9677419 14.9677419,11.8482581 14.9677419,8 C14.9677419,4.15174194 11.8482581,1.03225806 8,1.03225806 Z M0,8 C0,3.58193548 3.58193548,0 8,0 C12.4180645,0 16,3.58193548 16,8 C16,12.4180645 12.4180645,16 8,16 C3.58193548,16 0,12.4180645 0,8 Z M3.87096774,7.48387097 C3.87096774,5.48851613 5.48851613,3.87096774 7.48387097,3.87096774 C9.47922581,3.87096774 11.0967742,5.48851613 11.0967742,7.48387097 C11.0967742,9.47922581 9.47922581,11.0967742 7.48387097,11.0967742 C5.48851613,11.0967742 3.87096774,9.47922581 3.87096774,7.48387097 Z M7.48387097,2.83870968 C4.91870968,2.83870968 2.83870968,4.91870968 2.83870968,7.48387097 C2.83870968,10.0490323 4.91870968,12.1290323 7.48387097,12.1290323 C8.58116129,12.1290323 9.58864516,11.7491613 10.3834839,11.1132903 L11.7636129,12.4944516 L12.4944516,11.7636129 L11.1132903,10.3834839 C11.7491613,9.58864516 12.1290323,8.58116129 12.1290323,7.48387097 C12.1290323,4.91870968 10.0490323,2.83870968 7.48387097,2.83870968 Z M5.78064516,8.70193548 L5.78064516,10.0707097 C6.03251613,10.2369032 6.31019355,10.3669677 6.60645161,10.4547097 L6.60645161,9.11483871 L8.36129032,9.11483871 L8.36129032,10.4547097 C8.65754839,10.3669677 8.93522581,10.2369032 9.18709677,10.0707097 L9.18709677,8.70193548 L9.18709677,8.28903226 L8.77419355,8.28903226 L6.19354839,8.28903226 L5.78064516,8.28903226 L5.78064516,8.70193548 Z M6.86451613,6.19354839 C6.86451613,5.85187097 7.14219355,5.57419355 7.48387097,5.57419355 C7.82554839,5.57419355 8.10322581,5.85187097 8.10322581,6.19354839 C8.10322581,6.53522581 7.82554839,6.81290323 7.48387097,6.81290323 C7.14219355,6.81290323 6.86451613,6.53522581 6.86451613,6.19354839 Z M7.48387097,4.7483871 C6.68593548,4.7483871 6.03870968,5.3956129 6.03870968,6.19354839 C6.03870968,6.99148387 6.68593548,7.63870968 7.48387097,7.63870968 C8.28180645,7.63870968 8.92903226,6.99148387 8.92903226,6.19354839 C8.92903226,5.3956129 8.28180645,4.7483871 7.48387097,4.7483871 Z"/>
</svg>
