<svg xmlns="http://www.w3.org/2000/svg" width="16" height="16" viewBox="0 0 16 16">
  <g fill="none" fill-rule="evenodd">
    <path fill="#FFF" d="M1.25,8 C1.25,4.272 4.272,1.25 8,1.25 C11.728,1.25 14.75,4.272 14.75,8 C14.75,11.728 11.728,14.75 8,14.75 C4.272,14.75 1.25,11.728 1.25,8 Z M8,0.25 C3.72,0.25 0.25,3.72 0.25,8 C0.25,12.28 3.72,15.75 8,15.75 C12.28,15.75 15.75,12.28 15.75,8 C15.75,3.72 12.28,0.25 8,0.25 Z M8.25,8.50511231 L8.25,9.50613755 C8.16718067,9.50206182 8.08383134,9.5 8,9.5 C6.11,9.5 4.465,10.548 3.615,12.095 C3.371,11.834 3.15,11.551 2.956,11.25 C4.024,9.595 5.884,8.5 8,8.5 C8.0837454,8.5 8.16708981,8.50171516 8.25,8.50511231 Z M8,2.5 C6.619,2.5 5.5,3.619 5.5,5 C5.5,6.381 6.619,7.5 8,7.5 C9.381,7.5 10.5,6.381 10.5,5 C10.5,3.619 9.381,2.5 8,2.5 Z M6.5,5 C6.5,4.172 7.172,3.5 8,3.5 C8.828,3.5 9.5,4.172 9.5,5 C9.5,5.828 8.828,6.5 8,6.5 C7.172,6.5 6.5,5.828 6.5,5 Z"/>
    <path stroke="#FFF" d="M9 10.5L13 10.5M9 12.5L11.9474378 12.5M9 8.5L13 8.5"/>
  </g>
</svg>
