<svg xmlns="http://www.w3.org/2000/svg" width="16" height="16" viewBox="0 0 16 16">
  <path fill="#FFF" fill-rule="evenodd" d="M1.03225806,8 C1.03225806,4.15174194 4.15174194,1.03225806 8,1.03225806 C11.8482581,1.03225806 14.9677419,4.15174194 14.9677419,8 C14.9677419,11.8482581 11.8482581,14.9677419 8,14.9677419 C4.15174194,14.9677419 1.03225806,11.8482581 1.03225806,8 Z M8,0 C3.58193548,0 0,3.58193548 0,8 C0,12.4180645 3.58193548,16 8,16 C12.4180645,16 16,12.4180645 16,8 C16,3.58193548 12.4180645,0 8,0 Z M8,9.5483871 C6.04903226,9.5483871 4.35096774,10.6301935 3.47354839,12.2270968 C3.22167742,11.9576774 2.99354839,11.6655484 2.79329032,11.3548387 C3.89574194,9.64645161 5.81574194,8.51612903 8,8.51612903 C10.1842581,8.51612903 12.1042581,9.64645161 13.2067097,11.3548387 C13.0064516,11.6655484 12.7783226,11.9576774 12.5264516,12.2270968 C11.6490323,10.6301935 9.95096774,9.5483871 8,9.5483871 Z M8,2.32258065 C6.57445161,2.32258065 5.41935484,3.47767742 5.41935484,4.90322581 C5.41935484,6.32877419 6.57445161,7.48387097 8,7.48387097 C9.42554839,7.48387097 10.5806452,6.32877419 10.5806452,4.90322581 C10.5806452,3.47767742 9.42554839,2.32258065 8,2.32258065 Z M6.4516129,4.90322581 C6.4516129,4.04851613 7.14529032,3.35483871 8,3.35483871 C8.85470968,3.35483871 9.5483871,4.04851613 9.5483871,4.90322581 C9.5483871,5.75793548 8.85470968,6.4516129 8,6.4516129 C7.14529032,6.4516129 6.4516129,5.75793548 6.4516129,4.90322581 Z"/>
</svg>
