<svg width="16" height="16" viewBox="0 0 16 16" fill="none" xmlns="http://www.w3.org/2000/svg">
<g opacity="0.7">
<path fill-rule="evenodd" clip-rule="evenodd" d="M4 2.5C4 2.22386 4.22386 2 4.5 2C4.77614 2 5 2.22386 5 2.5C5 2.77614 4.77614 3 4.5 3C4.22386 3 4 2.77614 4 2.5ZM4.5 1C3.67157 1 3 1.67157 3 2.5C3 3.32843 3.67157 4 4.5 4C4.70692 4 4.90405 3.9581 5.08338 3.88233L6.72375 6.46006C6.34204 6.77677 6.07999 7.2327 6.01548 7.74997H2.97926C2.86022 7.04056 2.24324 6.5 1.5 6.5C0.671573 6.5 0 7.17157 0 8C0 8.82843 0.671573 9.5 1.5 9.5C2.24326 9.5 2.86026 8.95941 2.97927 8.24997H6.01547C6.07997 8.76726 6.34201 9.2232 6.72373 9.53992L5.08335 12.1177C4.90403 12.0419 4.70691 12 4.5 12C3.67157 12 3 12.6716 3 13.5C3 14.3284 3.67157 15 4.5 15C5.32843 15 6 14.3284 6 13.5C6 13.0582 5.80896 12.6609 5.50497 12.3864L7.14533 9.80871C7.40449 9.93138 7.69423 10 8 10C8.30578 10 8.59553 9.93138 8.8547 9.80869L10.4951 12.3864C10.1911 12.6609 10 13.0581 10 13.5C10 14.3284 10.6716 15 11.5 15C12.3284 15 13 14.3284 13 13.5C13 12.6716 12.3284 12 11.5 12C11.2931 12 11.096 12.0419 10.9167 12.1176L9.2763 9.53989C9.658 9.22318 9.92004 8.76725 9.98453 8.24997H13.0207C13.1397 8.95941 13.7567 9.5 14.5 9.5C15.3284 9.5 16 8.82843 16 8C16 7.17157 15.3284 6.5 14.5 6.5C13.7568 6.5 13.1398 7.04056 13.0207 7.74997H9.98452C9.92001 7.23271 9.65797 6.77679 9.27627 6.46009L10.9167 3.88234C11.096 3.95811 11.2931 4 11.5 4C12.3284 4 13 3.32843 13 2.5C13 1.67157 12.3284 1 11.5 1C10.6716 1 10 1.67157 10 2.5C10 2.94185 10.191 3.33907 10.495 3.61358L8.85467 6.19129C8.59551 6.06862 8.30577 6 8 6C7.69424 6 7.40451 6.06861 7.14536 6.19128L5.505 3.61356C5.80897 3.33905 6 2.94183 6 2.5C6 1.67157 5.32843 1 4.5 1ZM7 8C7 7.44772 7.44772 7 8 7C8.55228 7 9 7.44772 9 8C9 8.55228 8.55228 9 8 9C7.44772 9 7 8.55228 7 8ZM1 8C1 7.72386 1.22386 7.5 1.5 7.5C1.77614 7.5 2 7.72386 2 8C2 8.27614 1.77614 8.5 1.5 8.5C1.22386 8.5 1 8.27614 1 8ZM14.5 7.5C14.2239 7.5 14 7.72386 14 8C14 8.27614 14.2239 8.5 14.5 8.5C14.7761 8.5 15 8.27614 15 8C15 7.72386 14.7761 7.5 14.5 7.5ZM11.5 2C11.2239 2 11 2.22386 11 2.5C11 2.77614 11.2239 3 11.5 3C11.7761 3 12 2.77614 12 2.5C12 2.22386 11.7761 2 11.5 2ZM4 13.5C4 13.2239 4.22386 13 4.5 13C4.77614 13 5 13.2239 5 13.5C5 13.7761 4.77614 14 4.5 14C4.22386 14 4 13.7761 4 13.5ZM11.5 13C11.2239 13 11 13.2239 11 13.5C11 13.7761 11.2239 14 11.5 14C11.7761 14 12 13.7761 12 13.5C12 13.2239 11.7761 13 11.5 13Z" fill="white"/>
</g>
</svg>
