<svg xmlns="http://www.w3.org/2000/svg" width="16" height="16" viewBox="0 0 16 16">
  <g fill="none" fill-rule="evenodd">
    <rect width="16" height="16"/>
    <path fill="#FFF" d="M15,8 C15,11.866 11.866,15 8,15 C4.134,15 1,11.866 1,8 C1,4.134 4.134,1 8,1 C11.866,1 15,4.134 15,8 L15,8 Z M8,14 C11.313,14 14,11.313 14,8 C14,4.687 11.313,2 8,2 C4.687,2 2,4.687 2,8 C2,11.313 4.687,14 8,14 L8,14 Z M7.2591944,8 L5,10.2567023 L5.74605954,11 L8,8.7432977 L10.2539405,11 L11,10.2567023 L8.7408056,8 L11,5.7432977 L10.2539405,5 L8,7.2567023 L5.74605954,5 L5,5.7432977 L7.2591944,8 Z"/>
  </g>
</svg>
