
<svg width="36px" height="42px" viewBox="0 0 36 42" version="1.1" xmlns="http://www.w3.org/2000/svg" xmlns:xlink="http://www.w3.org/1999/xlink">
    <defs>
        <linearGradient x1="90.8534007%" y1="78.9487069%" x2="0%" y2="14.2169858%" id="linearGradient-1">
            <stop stop-color="#8E91F8" offset="0%"></stop>
            <stop stop-color="#2979FF" offset="100%"></stop>
        </linearGradient>
    </defs>
    <g id="Page-1" stroke="none" stroke-width="1" fill="none" fill-rule="evenodd">
        <g id="14图析2" transform="translate(-1094.000000, -160.000000)">
            <g id="Group-29" transform="translate(1092.000000, 161.000000)">
                <rect id="Rectangle" x="12" y="12" width="16" height="16"></rect>
                <path d="M25,14 L15,14 L15,16.683 C15.493,16.946 16.198,17.276 16.988,17.561 C17.804,17.855 18.685,18.092 19.5,18.164 L19.5,17.272 C19.038,17.073 18.714,16.606 18.714,16.062 C18.714,15.338 19.29,14.75 20,14.75 C20.71,14.75 21.286,15.338 21.286,16.062 C21.286,16.606 20.962,17.073 20.5,17.272 L20.5,18.164 C21.315,18.092 22.196,17.855 23.013,17.561 C23.802,17.276 24.507,16.946 25,16.683 L25,14 Z M19.5,19.168 C18.534,19.093 17.529,18.819 16.648,18.502 C16.036,18.281 15.469,18.033 15,17.805 L15,26 L25,26 L25,17.805 C24.531,18.033 23.964,18.281 23.352,18.502 C22.471,18.819 21.466,19.093 20.5,19.168 L20.5,20.103 C20.962,20.302 21.286,20.769 21.286,21.312 C21.286,22.037 20.71,22.625 20,22.625 C19.29,22.625 18.714,22.037 18.714,21.312 C18.714,20.769 19.038,20.302 19.5,20.103 L19.5,19.168 Z M15,13 L14,13 L14,14 L14,26 L14,27 L15,27 L25,27 L26,27 L26,26 L26,14 L26,13 L25,13 L15,13 Z M20.286,16.062 C20.286,16.255 20.139,16.375 20,16.375 C19.862,16.375 19.714,16.255 19.714,16.062 C19.714,15.87 19.862,15.75 20,15.75 C20.139,15.75 20.286,15.87 20.286,16.062 Z M20,21.625 C20.139,21.625 20.286,21.505 20.286,21.312 C20.286,21.12 20.139,21 20,21 C19.862,21 19.714,21.12 19.714,21.312 C19.714,21.505 19.862,21.625 20,21.625 Z" id="Shape" fill-opacity="0.70032269" fill="#FFFFFF"></path>
                <path d="M20,0 L37.3205081,10 L37.3205081,30 L20,40 L2.67949192,30 L2.67949192,10 L20,0 Z" id="Polygon" stroke="url(#linearGradient-1)" fill-opacity="0.2" fill="#2979FF" stroke-dasharray="1"></path>
            </g>
        </g>
    </g>
</svg>