<svg xmlns="http://www.w3.org/2000/svg" width="16" height="16" viewBox="0 0 16 16">
  <path fill="#FFF" fill-rule="evenodd" d="M5.5,2 L5.91666667,2 L10.0833333,2 L10.5,2 L10.5,2.42857143 L10.5,2.85714286 L13,2.85714286 L13,3.71428571 L10.0833333,3.71428571 L5.91666667,3.71428571 L3,3.71428571 L3,2.85714286 L5.5,2.85714286 L5.5,2.42857143 L5.5,2 Z M4.25,13.5917429 L3.83333333,4.59174286 L4.66666667,4.55111429 L5.06666667,13.1428571 L10.9333333,13.1428571 L11.3333333,4.55111429 L12.1666667,4.59174286 L11.75,13.5917429 L11.7333333,14 L11.3333333,14 L4.66666667,14 L4.26666667,14 L4.25,13.5917429 Z M6.33333333,5.42857143 L6.33333333,12.2857143 L7.16666667,12.2857143 L7.16666667,5.42857143 L6.33333333,5.42857143 Z M8.83333333,5.42857143 L8.83333333,12.2857143 L9.66666667,12.2857143 L9.66666667,5.42857143 L8.83333333,5.42857143 Z"/>
</svg>
