<svg width="16" height="16" viewBox="0 0 16 16" fill="none" xmlns="http://www.w3.org/2000/svg">
<path fill-rule="evenodd" clip-rule="evenodd" d="M4.5 1H4V1.5V8H5V2H11V5.5V6H11.5H15V14H5V13H4V14.5V15H4.5H15.5H16V14.5V5.5V5.29289L15.8536 5.14645L11.8536 1.14645L11.7071 1H11.5H4.5ZM14.2929 5L12 2.70711V5H14.2929ZM7 5H9V4H7V5ZM1 8V10H6.79289L5.64645 8.85355L6.35355 8.14645L8.35355 10.1464L8.70711 10.5L8.35355 10.8536L6.35355 12.8536L5.64645 12.1464L6.79289 11H0.5H0V10.5V8H1Z" fill="#2979FF"/>
</svg>
