<svg width="16" height="16" viewBox="0 0 16 16" fill="none" xmlns="http://www.w3.org/2000/svg">
<g opacity="0.7">
<path fill-rule="evenodd" clip-rule="evenodd" d="M4 2.5C4 2.22386 4.22386 2 4.5 2C4.77614 2 5 2.22386 5 2.5C5 2.77614 4.77614 3 4.5 3C4.22386 3 4 2.77614 4 2.5ZM4.5 1C3.67157 1 3 1.67157 3 2.5C3 3.32843 3.67157 4 4.5 4C4.70693 4 4.90408 3.9581 5.08342 3.88231L6.72379 6.46004C6.28161 6.82689 6 7.38056 6 8C6 8.46218 6.15677 8.88775 6.42005 9.22643L3.36915 12.2773C3.12394 12.1027 2.82396 12 2.5 12C1.67157 12 1 12.6716 1 13.5C1 14.3284 1.67157 15 2.5 15C3.32843 15 4 14.3284 4 13.5C4 13.176 3.89731 12.8761 3.7227 12.6309L6.7736 9.57998C7.05025 9.79502 7.38487 9.93901 7.75006 9.98453V12.0207C7.0406 12.1397 6.5 12.7567 6.5 13.5C6.5 14.3284 7.17157 15 8 15C8.82843 15 9.5 14.3284 9.5 13.5C9.5 12.7568 8.95946 12.1398 8.25006 12.0208V9.98452C8.61524 9.93897 8.94984 9.79497 9.22647 9.57992L12.2774 12.6308C12.1027 12.876 12 13.176 12 13.5C12 14.3284 12.6716 15 13.5 15C14.3284 15 15 14.3284 15 13.5C15 12.6716 14.3284 12 13.5 12C13.1761 12 12.8761 12.1027 12.6309 12.2773L9.58001 9.22635C9.84325 8.88769 10 8.46215 10 8C10 7.3806 9.71843 6.82696 9.2763 6.46011L10.9167 3.88236C11.096 3.95811 11.2931 4 11.5 4C12.3284 4 13 3.32843 13 2.5C13 1.67157 12.3284 1 11.5 1C10.6716 1 10 1.67157 10 2.5C10 2.94186 10.1911 3.33909 10.4951 3.61361L8.8547 6.19131C8.59553 6.06862 8.30578 6 8 6C7.69426 6 7.40454 6.0686 7.1454 6.19126L5.50503 3.61353C5.80898 3.33902 6 2.94182 6 2.5C6 1.67157 5.32843 1 4.5 1ZM8 7C7.44772 7 7 7.44772 7 8C7 8.55228 7.44772 9 8 9C8.55228 9 9 8.55228 9 8C9 7.44772 8.55228 7 8 7ZM2.5 13C2.22386 13 2 13.2239 2 13.5C2 13.7761 2.22386 14 2.5 14C2.77614 14 3 13.7761 3 13.5C3 13.2239 2.77614 13 2.5 13ZM7.5 13.5C7.5 13.2239 7.72386 13 8 13C8.27614 13 8.5 13.2239 8.5 13.5C8.5 13.7761 8.27614 14 8 14C7.72386 14 7.5 13.7761 7.5 13.5ZM13.5 13C13.2239 13 13 13.2239 13 13.5C13 13.7761 13.2239 14 13.5 14C13.7761 14 14 13.7761 14 13.5C14 13.2239 13.7761 13 13.5 13ZM11.5 2C11.2239 2 11 2.22386 11 2.5C11 2.77614 11.2239 3 11.5 3C11.7761 3 12 2.77614 12 2.5C12 2.22386 11.7761 2 11.5 2Z" fill="white"/>
</g>
</svg>
