<svg xmlns="http://www.w3.org/2000/svg" width="16" height="16" viewBox="0 0 16 16">
  <path fill="#FFF" fill-rule="evenodd" d="M8.2322,4.8535 C8.1752,4.8535 8.1202,4.8545 8.0652,4.8575 L11.2272,8.0205 C11.2302,7.9645 11.2322,7.9095 11.2322,7.8535 C11.2322,6.1965 9.8882,4.8535 8.2322,4.8535 Z M5.9222,2.7155 L6.7332,3.5265 C7.2142,3.4135 7.7162,3.3535 8.2322,3.3535 C11.1232,3.3535 13.5752,5.2415 14.4192,7.8535 C14.1602,8.6535 13.7512,9.3855 13.2232,10.0165 L13.9332,10.7265 C14.6052,9.9405 15.1192,9.0135 15.4212,7.9965 L15.4632,7.8535 L15.4212,7.7105 C14.4992,4.6135 11.6292,2.3535 8.2322,2.3535 C7.4252,2.3535 6.6502,2.4805 5.9222,2.7155 Z M6.5082,6.8365 C6.3332,7.1345 6.2322,7.4825 6.2322,7.8535 C6.2322,8.9575 7.1272,9.8535 8.2322,9.8535 C8.6022,9.8535 8.9502,9.7525 9.2482,9.5765 L6.5082,6.8365 Z M11.2712,11.6005 L9.9702,10.2985 C9.4792,10.6485 8.8792,10.8535 8.2322,10.8535 C6.5752,10.8535 5.2322,9.5105 5.2322,7.8535 C5.2322,7.2055 5.4372,6.6055 5.7862,6.1155 L4.3272,4.6565 C3.2692,5.4525 2.4612,6.5655 2.0452,7.8535 C2.8892,10.4645 5.3402,12.3535 8.2322,12.3535 C9.3302,12.3535 10.3642,12.0815 11.2712,11.6005 Z M12.0062,12.3355 L13.3782,13.7075 L14.0862,12.9995 L3.0862,1.9995 L2.3782,2.7075 L3.6142,3.9425 C2.4042,4.8905 1.4922,6.2015 1.0422,7.7105 L1.0002,7.8535 L1.0422,7.9965 C1.9642,11.0935 4.8342,13.3535 8.2322,13.3535 C9.6082,13.3535 10.8982,12.9825 12.0062,12.3355 Z" opacity=".7"/>
</svg>
