<svg width="16" height="16" viewBox="0 0 16 16" fill="none" xmlns="http://www.w3.org/2000/svg">
<path fill-rule="evenodd" clip-rule="evenodd" d="M13.5 8C13.5 11.0376 11.0376 13.5 8 13.5C4.96243 13.5 2.5 11.0376 2.5 8C2.5 4.96243 4.96243 2.5 8 2.5C11.0376 2.5 13.5 4.96243 13.5 8ZM15 8C15 11.866 11.866 15 8 15C4.13401 15 1 11.866 1 8C1 4.13401 4.13401 1 8 1C11.866 1 15 4.13401 15 8ZM8.23167 3.46334L6.23167 4.46334L6.76833 5.53666L8.76833 4.53666L8.23167 3.46334ZM8.59754 6.55432L8.69505 5.48165L7.73167 5.96334L5.73167 6.96334L6.26833 8.03666L7.30495 7.51835L7.00429 10.8256C6.91801 11.7747 7.99733 12.377 8.75977 11.8052L9.86 10.98L9.14 10.02L8.21973 10.7102L8.59754 6.55432Z" fill="white"/>
</svg>
