<svg width="16" height="16" viewBox="0 0 16 16" fill="none" xmlns="http://www.w3.org/2000/svg">
<path fill-rule="evenodd" clip-rule="evenodd" d="M8 15C4.13401 15 1 11.866 1 8C1 4.13401 4.13401 1 8 1C11.866 1 15 4.13401 15 8C15 11.866 11.866 15 8 15ZM0 8C0 3.58172 3.58172 0 8 0C12.4183 0 16 3.58172 16 8C16 12.4183 12.4183 16 8 16C3.58172 16 0 12.4183 0 8ZM3.30393 9.35086L4.66357 5H6.33627L8.21127 11H7.16357L5.49992 5.67631L4.46127 9H5.99992V10H4.14877L3.83627 11H2.78857L3.30393 9.35086ZM12.9999 9C12.9999 10.1046 12.1045 11 10.9999 11C9.89535 11 8.99992 10.1046 8.99992 9V7H9.99992V9C9.99992 9.55228 10.4476 10 10.9999 10C11.5522 10 11.9999 9.55228 11.9999 9V7H12.9999V9Z" fill="white"/>
</svg>
