<svg xmlns="http://www.w3.org/2000/svg" width="16" height="16" viewBox="0 0 16 16">
  <g fill="none" fill-rule="evenodd">
    <rect width="16" height="16"/>
    <path fill="#FFF" d="M1,1 L1.5,1 L14.5,1 L15,1 L15,1.5 L15,6 L14,6 L14,2 L2,2 L2,14 L6,14 L6,15 L1.5,15 L1,15 L1,14.5 L1,1.5 L1,1 Z M9.438,6 L9.438,5.091 L8.727,5.658 L3.727,9.647 L3.3,9.988 L3.726,10.33 L8.726,14.341 L9.438,14.912 L9.438,14 L9.438,12.202 C11.429,12.294 12.699,13.011 13.477,13.704 C13.897,14.078 14.18,14.452 14.357,14.728 C14.445,14.866 14.506,14.98 14.544,15.056 C14.563,15.094 14.577,15.123 14.585,15.141 L14.593,15.16 L14.593,15.162 L14.596,15.161 L15.437,14.973 L15,15 C15.437,14.973 15.437,14.973 15.437,14.973 L15.437,14.972 L15.437,14.97 L15.436,14.965 L15.435,14.948 C15.434,14.932 15.432,14.911 15.43,14.883 C15.425,14.828 15.417,14.749 15.405,14.65 C15.382,14.45 15.341,14.168 15.275,13.83 C15.144,13.155 14.907,12.25 14.486,11.339 C13.685,9.604 12.179,7.796 9.438,7.621 L9.438,6 Z M13.692,11.706 C13.931,12.223 14.106,12.742 14.234,13.213 C14.178,13.159 14.12,13.105 14.059,13.051 C13.071,12.17 11.469,11.317 9,11.317 L8.563,11.317 L8.563,11.754 L8.563,13.088 L4.7,9.99 L8.563,6.909 L8.563,8.045 L8.563,8.483 L9,8.483 C11.551,8.483 12.929,10.054 13.692,11.706 Z"/>
  </g>
</svg>
