<svg xmlns="http://www.w3.org/2000/svg" width="16" height="16" viewBox="0 0 16 16">
  <g fill="none" fill-rule="evenodd">
    <rect width="16" height="16"/>
    <path fill="#FFF" d="M9.6,10.6666667 L8,10.6666667 C7.7056,10.6666667 7.46666667,10.42426 7.46666667,10.125 C7.46666667,9.82574 7.7056,9.58333333 8,9.58333333 L9.6,9.58333333 L9.6,3.08333333 L1.06666667,3.08333333 L1.06666667,9.58333333 L3.73333333,9.58333333 C4.02798933,9.58333333 4.26666667,9.82574 4.26666667,10.125 C4.26666667,10.42426 4.02798933,10.6666667 3.73333333,10.6666667 L1.06666667,10.6666667 C0.477610667,10.6666667 0,10.1815933 0,9.58333333 L0,3.08333333 C0,2.48507333 0.477610667,2 1.06666667,2 L9.6,2 C10.189056,2 10.6666667,2.48507333 10.6666667,3.08333333 L10.6666667,9.58333333 C10.6666667,10.1815933 10.189056,10.6666667 9.6,10.6666667 M14.9333333,15 L6.4,15 C5.810944,15 5.33333333,14.5149267 5.33333333,13.9166667 L5.33333333,7.41666667 C5.33333333,6.81840667 5.810944,6.33333333 6.4,6.33333333 L8,6.33333333 C8.294656,6.33333333 8.53333333,6.576 8.53333333,6.875 C8.53333333,7.17426 8.294656,7.41666667 8,7.41666667 L6.4,7.41666667 L6.4,13.9166667 L14.9333333,13.9166667 L14.9333333,7.41666667 L12.2666667,7.41666667 C11.9720107,7.41666667 11.7333333,7.17426 11.7333333,6.875 C11.7333333,6.576 11.9720107,6.33333333 12.2666667,6.33333333 L14.9333333,6.33333333 C15.5223893,6.33333333 16,6.81840667 16,7.41666667 L16,13.9166667 C16,14.5149267 15.5223893,15 14.9333333,15"/>
  </g>
</svg>
