<svg xmlns="http://www.w3.org/2000/svg" width="16" height="16" viewBox="0 0 16 16">
  <g fill="none" fill-rule="evenodd">
    <rect width="16" height="16"/>
    <path fill="#FFF" d="M13.8333333,1.14285714 L2.16666667,1.14285714 L2.16666667,4.20914286 C2.74183333,4.50971429 3.56433333,4.88685714 4.486,5.21257143 C5.438,5.54857143 6.46583333,5.81942857 7.41666667,5.90171429 L7.41666667,4.88228571 C6.87766667,4.65485714 6.49966667,4.12114286 6.49966667,3.49942857 C6.49966667,2.672 7.17166667,2 8,2 C8.82833333,2 9.50033333,2.672 9.50033333,3.49942857 C9.50033333,4.12114286 9.12233333,4.65485714 8.58333333,4.88228571 L8.58333333,5.90171429 C9.53416667,5.81942857 10.562,5.54857143 11.5151667,5.21257143 C12.4356667,4.88685714 13.2581667,4.50971429 13.8333333,4.20914286 L13.8333333,1.14285714 Z M7.41666667,7.04914286 C6.28966667,6.96342857 5.11716667,6.65028571 4.08933333,6.288 C3.37533333,6.03542857 2.71383333,5.752 2.16666667,5.49142857 L2.16666667,14.8571429 L13.8333333,14.8571429 L13.8333333,5.49142857 C13.2861667,5.752 12.6246667,6.03542857 11.9106667,6.288 C10.8828333,6.65028571 9.71033333,6.96342857 8.58333333,7.04914286 L8.58333333,8.11771429 C9.12233333,8.34514286 9.50033333,8.87885714 9.50033333,9.49942857 C9.50033333,10.328 8.82833333,11 8,11 C7.17166667,11 6.49966667,10.328 6.49966667,9.49942857 C6.49966667,8.87885714 6.87766667,8.34514286 7.41666667,8.11771429 L7.41666667,7.04914286 Z M2.16666667,0 L1,0 L1,1.14285714 L1,14.8571429 L1,16 L2.16666667,16 L13.8333333,16 L15,16 L15,14.8571429 L15,1.14285714 L15,0 L13.8333333,0 L2.16666667,0 Z M8.33366667,3.49942857 C8.33366667,3.72 8.16216667,3.85714286 8,3.85714286 C7.839,3.85714286 7.66633333,3.72 7.66633333,3.49942857 C7.66633333,3.28 7.839,3.14285714 8,3.14285714 C8.16216667,3.14285714 8.33366667,3.28 8.33366667,3.49942857 Z M8,9.85714286 C8.16216667,9.85714286 8.33366667,9.72 8.33366667,9.49942857 C8.33366667,9.28 8.16216667,9.14285714 8,9.14285714 C7.839,9.14285714 7.66633333,9.28 7.66633333,9.49942857 C7.66633333,9.72 7.839,9.85714286 8,9.85714286 Z"/>
  </g>
</svg>
