<svg xmlns="http://www.w3.org/2000/svg" width="16" height="16" viewBox="0 0 16 16">
  <g fill="none" fill-rule="evenodd">
    <rect width="16" height="16"/>
    <path fill="#FFF" d="M4.5,0 L5.08333333,0 L10.9166667,0 L11.5,0 L11.5,0.571428571 L11.5,1.14285714 L15,1.14285714 L15,2.28571429 L10.9166667,2.28571429 L5.08333333,2.28571429 L1,2.28571429 L1,1.14285714 L4.5,1.14285714 L4.5,0.571428571 L4.5,0 Z M2.75116667,15.456 L2.16783333,3.456 L3.33216667,3.40114286 L3.88983333,14.8571429 L12.1101667,14.8571429 L12.6678333,3.40114286 L13.8321667,3.456 L13.2488333,15.456 L13.2231667,16 L12.6666667,16 L3.33333333,16 L2.77683333,16 L2.75116667,15.456 Z M5.66666667,4.57142857 L5.66666667,13.7142857 L6.83333333,13.7142857 L6.83333333,4.57142857 L5.66666667,4.57142857 Z M9.16666667,4.57142857 L9.16666667,13.7142857 L10.3333333,13.7142857 L10.3333333,4.57142857 L9.16666667,4.57142857 Z"/>
  </g>
</svg>
