<svg xmlns="http://www.w3.org/2000/svg" width="16" height="16" viewBox="0 0 16 16">
  <g fill="none" fill-rule="evenodd">
    <rect width="16" height="16"/>
    <path fill="#FFF" d="M13.4026308,1.63193191 C14.2442006,1.63193191 14.9287936,2.29933617 14.9287936,3.11984681 L14.9287936,14.4992511 C14.9287936,15.3213787 14.2442006,15.9886128 13.4026308,15.9886128 L1.52611919,15.9886128 C0.684636628,15.9886128 -4.36046511e-05,15.3213787 -4.36046511e-05,14.4992511 L-4.36046511e-05,3.11984681 C-4.36046511e-05,2.29933617 0.684636628,1.63193191 1.52611919,1.63193191 L3.22888081,1.63193191 C3.52984012,1.63193191 3.77393895,1.87022979 3.77393895,2.16384681 C3.77393895,2.45746383 3.52984012,2.6957617 3.22888081,2.6957617 L1.52611919,2.6957617 C1.28559593,2.6957617 1.09007267,2.88580426 1.09007267,3.11984681 L1.09007267,9.68869787 L13.8386773,9.68869787 L13.8386773,3.11984681 C13.8386773,2.88580426 13.6431541,2.6957617 13.4026308,2.6957617 L11.8619041,2.6957617 C11.561032,2.6957617 11.3168459,2.45746383 11.3168459,2.16384681 C11.3168459,1.87022979 11.561032,1.63193191 11.8619041,1.63193191 L13.4026308,1.63193191 Z M13.4026308,14.924783 C13.6431541,14.924783 13.8386773,14.7340596 13.8386773,14.4992511 L13.8386773,10.7525277 L1.09007267,10.7525277 L1.09007267,14.4992511 C1.09007267,14.7340596 1.28559593,14.924783 1.52611919,14.924783 L13.4026308,14.924783 Z M3.47303198,4.61277447 C3.26015407,4.40502979 3.26015407,4.06809362 3.47303198,3.86034894 C3.68599709,3.65251915 4.03117151,3.65251915 4.24413663,3.86034894 L6.87349709,6.42698723 L6.87349709,0.531923404 C6.87349709,0.238306383 7.11768314,8.51063828e-06 7.41855523,8.51063828e-06 C7.71942733,8.51063828e-06 7.96361337,0.238306383 7.96361337,0.531923404 L7.96361337,6.34324255 L10.5086424,3.86034894 C10.7216076,3.65251915 11.066782,3.65251915 11.2797471,3.86034894 C11.492625,4.06809362 11.492625,4.40502979 11.2797471,4.61277447 L7.80515407,8.00213617 C7.75500872,8.05251915 7.69326453,8.09217872 7.62567733,8.11915745 C7.5907936,8.13337021 7.55224709,8.13473191 7.51518314,8.14111489 C7.48317733,8.14681702 7.45343895,8.16034894 7.41855523,8.16034894 C7.4032936,8.16034894 7.39021221,8.15251915 7.37495058,8.15175319 C7.3610843,8.15251915 7.34809012,8.15958298 7.33352616,8.15958298 C7.19399128,8.15958298 7.0544564,8.1078383 6.94832267,8.00358298 L3.47303198,4.61277447 Z M11.2702413,12.1384766 C11.5711134,12.1384766 11.8152994,12.3768596 11.8152994,12.6703915 C11.8152994,12.9640085 11.5711134,13.2023064 11.2702413,13.2023064 L3.44399128,13.2023064 C3.14311919,13.2023064 2.89893314,12.9640085 2.89893314,12.6703915 C2.89893314,12.3768596 3.14311919,12.1384766 3.44399128,12.1384766 L11.2702413,12.1384766 Z"/>
  </g>
</svg>
