<svg xmlns="http://www.w3.org/2000/svg" width="16" height="16" viewBox="0 0 16 16">
  <g fill="none" fill-rule="evenodd">
    <rect width="16" height="16"/>
    <path fill="#FFF" d="M1,1 L1.5,1 L13.5,1 L14,1 L14,1.5 L14,7 L13,7 L13,2 L2,2 L2,13 L7,13 L7,14 L1.5,14 L1,14 L1,13.5 L1,1.5 L1,1 Z M7,7 L7.299,8.116 L8.915,14.148 L9.214,15.264 L10.031,14.447 L11.924,12.554 L14.434,15.063 L15.132,14.365 L12.623,11.855 L14.447,10.031 L15.264,9.214 L14.148,8.916 L8.115,7.299 L7,7 Z M8.414,8.414 L9.732,13.332 L13.332,9.732 L8.414,8.414 Z"/>
  </g>
</svg>
