<svg xmlns="http://www.w3.org/2000/svg" width="16" height="16" viewBox="0 0 16 16">
  <g fill="none" fill-rule="evenodd">
    <rect width="16" height="16"/>
    <path fill="#FFF" d="M15.002,11.4998 C15.002,11.3628 14.945,11.2358 14.855,11.1468 C14.764,11.0568 14.639,10.9998 14.502,10.9998 C14.225,10.9998 14.002,11.2238 14.002,11.4998 L14,13.2878 L9.893,9.1798 C9.697,8.9838 9.38,8.9838 9.185,9.1798 C8.989,9.3748 8.989,9.6918 9.185,9.8878 L13.3,14.0018 L11.51,14.0178 C11.232,14.0188 11.011,14.2438 11.013,14.5208 C11.014,14.7968 11.239,15.0188 11.516,15.0178 L14.502,14.9958 C14.776,14.9938 14.998,14.7708 14.998,14.4958 L15.002,11.4998 Z M1,11.4968 C1,11.3588 1.057,11.2328 1.147,11.1438 C1.237,11.0528 1.362,10.9968 1.5,10.9968 C1.776,10.9968 2,11.2208 2,11.4968 L2.002,13.2848 L6.107,9.1778 C6.303,8.9828 6.62,8.9828 6.815,9.1778 C7.011,9.3738 7.011,9.6908 6.815,9.8858 L2.7,13.9988 L4.475,14.0138 C4.752,14.0158 4.974,14.2408 4.972,14.5178 C4.971,14.7938 4.745,15.0158 4.469,15.0138 L1.498,14.9918 C1.224,14.9908 1.002,14.7678 1.002,14.4918 L1,11.4968 Z M1,4.5188 C1,4.6558 1.057,4.7828 1.147,4.8718 C1.237,4.9628 1.362,5.0188 1.5,5.0188 C1.776,5.0188 2,4.7948 2,4.5188 L2.002,2.7308 L6.107,6.8378 C6.303,7.0328 6.62,7.0328 6.815,6.8378 C7.011,6.6428 7.011,6.3248 6.815,6.1298 L2.7,2.0178 L4.475,2.0018 C4.752,1.9998 4.974,1.7748 4.972,1.4988 C4.971,1.2218 4.745,0.9998 4.469,1.0018 L1.5,1.0228 C1.225,1.0248 1.003,1.2488 1.003,1.5228 L1,4.5188 Z M14.997,4.5188 C14.997,4.6558 14.94,4.7828 14.85,4.8718 C14.76,4.9628 14.635,5.0188 14.497,5.0188 C14.221,5.0188 13.997,4.7948 13.997,4.5188 L13.995,2.7308 L9.889,6.8388 C9.693,7.0348 9.377,7.0348 9.182,6.8388 C8.986,6.6438 8.986,6.3268 9.182,6.1308 L13.297,2.0158 L11.522,1.9998 C11.245,1.9988 11.023,1.7728 11.025,1.4968 C11.026,1.2208 11.252,0.9988 11.528,0.9998 L14.498,1.0218 C14.773,1.0228 14.995,1.2468 14.995,1.5218 L14.997,4.5188 Z"/>
  </g>
</svg>
