<svg xmlns="http://www.w3.org/2000/svg" width="16" height="16" viewBox="0 0 16 16">
  <g fill="none" fill-rule="evenodd">
    <rect width="16" height="16"/>
    <path fill="#FFF" d="M3.14285714,1.06666667 C2.55142857,1.06666667 2.07142857,1.54453333 2.07142857,2.13333333 C2.07142857,2.7168 2.54285714,3.19146667 3.12785714,3.2 L3.15785714,3.2 C3.74285714,3.19146667 4.21428571,2.7168 4.21428571,2.13333333 C4.21428571,1.54453333 3.73428571,1.06666667 3.14285714,1.06666667 Z M1,2.13333333 C1,3.12746667 1.6825,3.96266667 2.60714286,4.19946667 L2.60714286,13.8666667 L2.60714286,14.9333333 L10.1982143,14.9333333 C10.4189286,15.5552 11.0146429,16 11.7142857,16 C12.6014286,16 13.3214286,15.2842667 13.3214286,14.4 C13.3214286,13.5168 12.6014286,12.8 11.7142857,12.8 C11.0146429,12.8 10.4189286,13.2448 10.1982143,13.8666667 L3.67857143,13.8666667 L3.67857143,9.6 L12.8767857,9.6 C13.0975,10.2218667 13.6932143,10.6666667 14.3928571,10.6666667 C15.28,10.6666667 16,9.94986667 16,9.06666667 C16,8.18346667 15.28,7.46666667 14.3928571,7.46666667 C13.6932143,7.46666667 13.0975,7.91146667 12.8767857,8.53333333 L3.67857143,8.53333333 L3.67857143,4.19946667 C4.60321429,3.96266667 5.28571429,3.12746667 5.28571429,2.13333333 C5.28571429,0.954666667 4.32678571,0 3.14285714,0 C1.95892857,0 1,0.954666667 1,2.13333333 Z M11.1785714,14.4 C11.1785714,14.1056 11.4185714,13.8666667 11.7142857,13.8666667 C12.01,13.8666667 12.25,14.1056 12.25,14.4 C12.25,14.6944 12.01,14.9333333 11.7142857,14.9333333 C11.4185714,14.9333333 11.1785714,14.6944 11.1785714,14.4 Z M13.8571429,9.06666667 C13.8571429,8.77226667 14.0971429,8.53333333 14.3928571,8.53333333 C14.6885714,8.53333333 14.9285714,8.77226667 14.9285714,9.06666667 C14.9285714,9.36106667 14.6885714,9.6 14.3928571,9.6 C14.0971429,9.6 13.8571429,9.36106667 13.8571429,9.06666667 Z"/>
  </g>
</svg>
