<svg xmlns="http://www.w3.org/2000/svg" width="16" height="16" viewBox="0 0 16 16">
  <g fill="none" fill-rule="evenodd">
    <rect width="16" height="16"/>
    <path fill="#FFF" d="M3.42857143,1.14285714 L16,1.14285714 L16,0 L0,0 L0,1.14285714 L2.28571429,1.14285714 L2.28571429,13.7142857 L2.28571429,14.2857143 L2.28571429,14.8571429 L9.81142857,14.8571429 C10.0468571,15.5234286 10.6822857,16 11.4285714,16 C12.3748571,16 13.1428571,15.2331429 13.1428571,14.2857143 C13.1428571,13.3394286 12.3748571,12.5714286 11.4285714,12.5714286 C10.6822857,12.5714286 10.0468571,13.048 9.81142857,13.7142857 L3.42857143,13.7142857 L3.42857143,8.57142857 L12.6685714,8.57142857 C12.904,9.23771429 13.5394286,9.71428571 14.2857143,9.71428571 C15.232,9.71428571 16,8.94628571 16,8 C16,7.05257143 15.232,6.28571429 14.2857143,6.28571429 C13.5394286,6.28571429 12.904,6.76228571 12.6685714,7.42857143 L3.42857143,7.42857143 L3.42857143,1.14285714 Z M11.4285714,13.7142857 C11.1131429,13.7142857 10.8571429,13.9702857 10.8571429,14.2857143 C10.8571429,14.6011429 11.1131429,14.8571429 11.4285714,14.8571429 C11.744,14.8571429 12,14.6011429 12,14.2857143 C12,13.9702857 11.744,13.7142857 11.4285714,13.7142857 Z M13.7142857,8 C13.7142857,7.68457143 13.9702857,7.42857143 14.2857143,7.42857143 C14.6011429,7.42857143 14.8571429,7.68457143 14.8571429,8 C14.8571429,8.31542857 14.6011429,8.57142857 14.2857143,8.57142857 C13.9702857,8.57142857 13.7142857,8.31542857 13.7142857,8 Z"/>
  </g>
</svg>
