<svg xmlns="http://www.w3.org/2000/svg" width="16" height="16" viewBox="0 0 16 16">
  <g fill="none" fill-rule="evenodd">
    <rect width="16" height="16"/>
    <path fill="#FFF" d="M10.7153513,13.8242142 C11.0620366,13.8242142 11.2341139,14.0840856 11.1480753,14.4330011 C11.1480753,14.6063761 11.059506,14.7821714 10.80139,14.955419 C9.76639541,15.6509571 8.55679291,16 7.26115174,16 C6.0540798,16 4.75843863,15.6509571 3.72091347,14.955419 C3.54883613,14.7821714 3.46279746,14.6063761 3.46279746,14.4330011 C3.46279746,14.1707094 3.6348748,13.910838 3.98156003,13.910838 L4.23967605,13.910838 C6.05154925,15.0420428 8.55679291,15.0420428 10.3711967,13.910838 L10.543274,13.8242142 L10.7153513,13.8242142 Z M13.8324459,12.391421 C14.0916778,11.9407292 14.0052672,11.4900373 13.6570831,11.2212036 C13.4842618,11.0421129 13.3088991,11.0421129 13.1360778,11.0421129 L13.0496672,11.0421129 C12.7904352,11.1315923 12.5286618,11.3134504 12.3558405,11.5822842 C12.2694299,11.7616384 12.1830192,11.9434966 12.1830192,12.1225873 C12.2694299,12.391421 12.4447927,12.6630221 12.6176139,12.7525016 C12.7904352,12.8421129 12.965798,12.8421129 13.1386193,12.8421129 C13.3978512,12.8421129 13.6596246,12.6602547 13.8324459,12.391421 Z M7.51877473,10.6662092 C8.60524614,10.6662092 9.41877473,9.85268065 9.41877473,8.76620924 C9.41877473,7.67973783 8.60524614,6.86620924 7.51877473,6.86620924 C6.43230332,6.86620924 5.61877473,7.67973783 5.61877473,8.76620924 C5.61877473,9.85268065 6.43230332,10.6662092 7.51877473,10.6662092 Z M6.57026121,2.11521484 C6.57026121,2.5665014 6.9292055,3.01528082 7.47026121,3.01528082 C8.00867764,3.01528082 8.37026121,2.5665014 8.37026121,2.11521484 C8.37026121,1.66656738 7.92158086,1.21528082 7.47026121,1.21528082 C7.02158086,1.21528082 6.57026121,1.57419879 6.57026121,2.11521484 Z M2.68333771,12.2986554 C2.76937638,12.0273575 2.68333771,11.7585631 2.59729903,11.5792351 C2.42522169,11.3079373 2.16710568,11.1286093 1.82042044,11.1286093 C1.64581255,11.1286093 1.55977388,11.1286093 1.38769654,11.2182074 C1.12704997,11.3079373 1.0410113,11.4897688 0.954972629,11.7585631 C0.868933958,12.0273575 0.954972629,12.2986554 1.0410113,12.4779834 C1.21308864,12.7492812 1.47120466,12.9286093 1.81788989,12.9286093 C1.99249778,12.9286093 2.07853646,12.8388794 2.2506138,12.7492812 C2.42522169,12.6598149 2.59729903,12.4779834 2.68333771,12.2986554 Z M14.0859922,10.2574032 C14.5161856,10.519695 14.8628708,10.9529413 14.9489095,11.4751044 C15.0349482,11.9975223 15.0349482,12.433189 14.7692405,13.0419759 C14.4250858,13.6484698 13.9923619,13.9107616 13.3875606,13.9973854 L13.1294446,13.9973854 C12.7827594,13.9973854 12.2639968,13.82159 12.0058808,13.6484698 C11.3150409,13.1287271 10.9708862,12.2573937 11.1429635,11.4751044 L9.50063714,10.6064461 C8.98440511,11.3019842 8.20499597,11.6508998 7.34207871,11.6508998 C6.56520012,11.6508998 5.70228285,11.215233 5.18352027,10.6064461 L3.80184043,11.5618556 C4.062487,12.4305139 3.62976309,13.2992995 2.93892317,13.7349662 C2.76684583,13.82159 2.42269114,13.9948376 1.98996724,13.9948376 C1.21055809,13.9948376 0.608287394,13.6484698 0.26160216,13.0394282 C0.00348614542,12.6063092 -0.082552526,12.0840187 0.0895248168,11.5618556 C0.175563488,11.0394377 0.519718174,10.603771 0.95244208,10.3438996 C1.12451942,10.2574032 1.46867411,10.0840283 1.90139801,10.0840283 C2.33412192,10.0840283 2.85035395,10.2574032 3.19703918,10.6064461 L4.83936559,9.6510367 C4.75332692,9.30441415 4.66728825,9.04454278 4.66728825,8.69562725 C4.66728825,7.3044237 5.7048134,6.08659513 7.00045457,5.82672376 L7.00045457,3.91348449 C6.13753731,3.65361312 5.61877473,2.86890349 5.61877473,1.99999045 C5.61877473,0.868785659 6.48169199,-1.77635684e-14 7.51921715,-1.77635684e-14 C8.5567423,-1.77635684e-14 9.41965957,0.955409449 9.41965957,1.99999045 C9.41965957,2.86890349 8.81485832,3.65361312 8.03797973,3.91348449 L8.03797973,5.74022736 C9.42219012,6.08659513 10.3711461,7.21779991 10.3711461,8.60887607 C10.3711461,8.95537123 10.2851074,9.2152426 10.1990687,9.56428552 L11.8413951,10.519695 C12.1880803,10.1706521 12.6182737,9.99753186 13.1370363,9.99753186 C13.3951523,9.99753186 13.739307,9.99753186 14.0859922,10.2574032 Z M0.955010588,9.30193009 C0.696894573,9.30193009 0.43624801,9.12868251 0.350209338,8.95288717 L0.350209338,8.6930158 C0.350209338,6.07646779 1.73188918,3.65864494 3.97648628,2.34400154 C4.15109418,2.25737775 4.23713285,2.25737775 4.40921019,2.34400154 C4.58381808,2.34400154 4.66985675,2.43062533 4.75589542,2.60387291 C4.8419341,2.77966825 4.8419341,2.86616465 4.8419341,3.03953962 C4.8419341,3.21533496 4.66985675,3.30183136 4.58381808,3.38858254 C2.68337566,4.43061578 1.47377317,6.51977777 1.47377317,8.6930158 L1.47377317,8.7795122 C1.47377317,8.86881114 1.38773449,9.04205872 1.30169582,9.12868251 C1.2131266,9.21517891 1.12708793,9.30193009 0.955010588,9.30193009 Z M10.371184,3.30183136 C10.1965761,3.30183136 10.1105374,3.12871117 10.113068,3.03953962 C10.113068,2.86374428 10.113068,2.7769931 10.1991067,2.60387291 C10.2876759,2.43062533 10.4597532,2.34400154 10.5457919,2.34400154 L10.7178692,2.34400154 C10.8039079,2.34400154 10.8899466,2.34400154 10.9759853,2.43062533 C13.2231129,3.7350777 14.6047928,6.08411106 14.6047928,8.6930158 L14.6047928,8.86626338 C14.5187541,9.21517891 14.3441462,9.38855388 14.0860302,9.38855388 L13.9999915,9.38855388 C13.8253836,9.30193009 13.6533063,9.21517891 13.5672676,9.12868251 C13.4812289,9.03938357 13.4812289,8.95288717 13.4812289,8.7795122 L13.4812289,8.6930158 C13.4812289,6.43302659 12.2716264,4.43303615 10.371184,3.30183136 Z"/>
  </g>
</svg>
