<svg xmlns="http://www.w3.org/2000/svg" width="16" height="16" viewBox="0 0 16 16">
  <g fill="none" fill-rule="evenodd">
    <rect width="16" height="16"/>
    <path fill="#FFF" d="M10.016,8 L7,9.759 L7,6.241 L10.016,8 Z M7,10.917 L6,11.5 L6,10.343 L6,5.658 L6,4.5 L7,5.083 L11.008,7.421 L12,8 L11.008,8.579 L7,10.917 Z M8,15 C11.867,15 15,11.866 15,8 C15,4.134 11.867,1 8,1 C4.134,1 1,4.134 1,8 C1,11.866 4.134,15 8,15 L8,15 Z M14,8 C14,11.313 11.314,14 8,14 C4.687,14 2,11.313 2,8 C2,4.687 4.687,2 8,2 C11.314,2 14,4.687 14,8 L14,8 Z"/>
  </g>
</svg>
