<svg xmlns="http://www.w3.org/2000/svg" width="16" height="16" viewBox="0 0 16 16">
  <path fill="#9CFFFF" fill-rule="evenodd" d="M7.9473,4.10963391 C10.0613,4.10963391 11.7753,5.82363391 11.7753,7.93763391 C11.7753,10.0516339 10.0613,11.7656339 7.9473,11.7656339 C5.8333,11.7656339 4.1193,10.0516339 4.1193,7.93763391 C4.1193,5.82363391 5.8333,4.10963391 7.9473,4.10963391 Z M11.126,3.63743391 C9.519,2.44643391 7.302,2.26643391 5.526,3.16743391 L4.8,1.74143391 C7.11,0.565433905 9.99,0.802433905 12.079,2.35243391 L11.126,3.63743391 Z M3.782,13.5004339 C2.026,12.1834339 1.012,10.1714339 1,7.97843391 L2.6,7.96943391 C2.609,9.65743391 3.39,11.2064339 4.742,12.2194339 L3.782,13.5004339 Z M11.058,14.1524339 L10.341,12.7224339 C12.163,11.8084339 13.295,9.97543391 13.295,7.93743391 L14.895,7.86643391 L14.895,7.93743391 C14.895,10.5844339 13.425,12.9654339 11.058,14.1524339 Z"/>
</svg>
