<svg width="16" height="16" viewBox="0 0 16 16" fill="none" xmlns="http://www.w3.org/2000/svg">
<g opacity="0.7">
<path fill-rule="evenodd" clip-rule="evenodd" d="M8 2C7.44772 2 7 2.44772 7 3C7 3.55228 7.44772 4 8 4C8.55228 4 9 3.55228 9 3C9 2.44772 8.55228 2 8 2ZM6 3C6 1.89543 6.89543 1 8 1C9.10457 1 10 1.89543 10 3C10 3.6799 9.66074 4.28055 9.14228 4.64192L13.035 12.0735C13.1814 12.0258 13.3377 12 13.5 12C14.3284 12 15 12.6716 15 13.5C15 14.3284 14.3284 15 13.5 15C12.7568 15 12.1398 14.4594 12.0207 13.75H8.97926C8.86024 14.4594 8.24325 15 7.5 15C6.67157 15 6 14.3284 6 13.5C6 12.7323 6.57677 12.0992 7.32064 12.0106L7.65588 4.97051C7.53322 4.94924 7.41438 4.91679 7.30047 4.87425L3.40777 12.3058C3.76768 12.5798 4 13.0128 4 13.5C4 14.3284 3.32843 15 2.5 15C1.67157 15 1 14.3284 1 13.5C1 12.6716 1.67157 12 2.5 12C2.66231 12 2.81861 12.0258 2.96501 12.0735L6.85772 4.64192C6.33926 4.28055 6 3.6799 6 3ZM8.15533 4.99406L7.82008 12.0342C8.41475 12.1635 8.87783 12.6454 8.97926 13.25H12.0207C12.0851 12.8662 12.2952 12.5319 12.5922 12.3058L8.69953 4.87425C8.52804 4.93829 8.3454 4.97946 8.15533 4.99406ZM2.5 13C2.22386 13 2 13.2239 2 13.5C2 13.7761 2.22386 14 2.5 14C2.77614 14 3 13.7761 3 13.5C3 13.2239 2.77614 13 2.5 13ZM7 13.5C7 13.2239 7.22386 13 7.5 13C7.77614 13 8 13.2239 8 13.5C8 13.7761 7.77614 14 7.5 14C7.22386 14 7 13.7761 7 13.5ZM13.5 13C13.2239 13 13 13.2239 13 13.5C13 13.7761 13.2239 14 13.5 14C13.7761 14 14 13.7761 14 13.5C14 13.2239 13.7761 13 13.5 13Z" fill="white"/>
</g>
</svg>
