<svg xmlns="http://www.w3.org/2000/svg" width="16" height="16" viewBox="0 0 16 16">
  <path fill="#FFF" fill-rule="evenodd" d="M8.231,4.854 C8.175,4.854 8.12,4.855 8.064,4.859 L11.226,8.021 C11.229,7.965 11.231,7.91 11.231,7.854 C11.231,6.197 9.888,4.854 8.231,4.854 Z M5.922,2.716 L6.733,3.527 C7.214,3.414 7.715,3.354 8.231,3.354 C11.123,3.354 13.574,5.242 14.418,7.854 C14.16,8.654 13.75,9.386 13.223,10.017 L13.932,10.727 C14.605,9.941 15.118,9.014 15.42,7.997 L15.463,7.854 L15.42,7.711 C14.499,4.614 11.629,2.354 8.231,2.354 C7.425,2.354 6.649,2.481 5.922,2.716 Z M6.508,6.838 C6.332,7.136 6.231,7.483 6.231,7.854 C6.231,8.958 7.127,9.854 8.231,9.854 C8.602,9.854 8.95,9.753 9.248,9.577 L6.508,6.838 Z M11.271,11.601 L9.969,10.299 C9.479,10.649 8.879,10.854 8.231,10.854 C6.574,10.854 5.231,9.511 5.231,7.854 C5.231,7.206 5.437,6.606 5.786,6.116 L4.327,4.657 C3.268,5.453 2.46,6.566 2.044,7.854 C2.888,10.466 5.34,12.354 8.231,12.354 C9.33,12.354 10.364,12.082 11.271,11.601 Z M12.006,12.336 L13.377,13.708 L14.085,13 L3.085,2 L2.378,2.708 L3.614,3.944 C2.403,4.891 1.491,6.202 1.042,7.711 L1,7.854 L1.042,7.997 C1.964,11.094 4.833,13.354 8.231,13.354 C9.608,13.354 10.898,12.983 12.006,12.336 Z"/>
</svg>
