<svg xmlns="http://www.w3.org/2000/svg" width="16" height="16" viewBox="0 0 16 16">
  <path fill="#FFF" fill-rule="evenodd" d="M6.232,8 C6.232,6.896 7.128,6 8.232,6 C9.336,6 10.232,6.896 10.232,8 C10.232,9.104 9.336,10 8.232,10 C7.128,10 6.232,9.104 6.232,8 M8.232,5 C6.575,5 5.232,6.343 5.232,8 C5.232,9.657 6.575,11 8.232,11 C9.889,11 11.232,9.657 11.232,8 C11.232,6.343 9.889,5 8.232,5 M8.232,2.5 C4.834,2.5 1.964,4.76 1.043,7.857 L1,8 L1.043,8.143 C1.964,11.24 4.834,13.5 8.232,13.5 C11.63,13.5 14.5,11.24 15.421,8.143 L15.463,8 L15.421,7.857 C14.5,4.76 11.63,2.5 8.232,2.5 M8.232,12.5 C5.34,12.5 2.889,10.611 2.045,8 C2.889,5.388 5.34,3.5 8.232,3.5 C11.124,3.5 13.575,5.388 14.419,8 C13.575,10.611 11.124,12.5 8.232,12.5" opacity=".7"/>
</svg>
