<svg xmlns="http://www.w3.org/2000/svg" width="16" height="16" viewBox="0 0 16 16">
  <path fill="#FFF" fill-rule="evenodd" d="M6.231,8.5 C6.231,7.396 7.127,6.5 8.231,6.5 C9.335,6.5 10.231,7.396 10.231,8.5 C10.231,9.604 9.335,10.5 8.231,10.5 C7.127,10.5 6.231,9.604 6.231,8.5 M8.231,5.5 C6.574,5.5 5.231,6.843 5.231,8.5 C5.231,10.157 6.574,11.5 8.231,11.5 C9.888,11.5 11.231,10.157 11.231,8.5 C11.231,6.843 9.888,5.5 8.231,5.5 M8.231,3 C4.833,3 1.963,5.26 1.042,8.357 L1,8.5 L1.042,8.643 C1.964,11.74 4.833,14 8.231,14 C11.629,14 14.498,11.74 15.421,8.643 L15.463,8.5 L15.421,8.357 C14.498,5.26 11.629,3 8.231,3 M8.231,13 C5.34,13 2.888,11.111 2.044,8.5 C2.888,5.888 5.34,4 8.231,4 C11.122,4 13.574,5.888 14.418,8.5 C13.574,11.111 11.122,13 8.231,13"/>
</svg>
