<svg width="16" height="16" viewBox="0 0 16 16" fill="none" xmlns="http://www.w3.org/2000/svg">
<g opacity="0.7">
<path fill-rule="evenodd" clip-rule="evenodd" d="M2.5 2C2.22386 2 2 2.22386 2 2.5C2 2.77614 2.22386 3 2.5 3C2.77614 3 3 2.77614 3 2.5C3 2.22386 2.77614 2 2.5 2ZM1 2.5C1 1.67157 1.67157 1 2.5 1C3.32843 1 4 1.67157 4 2.5C4 3.24325 3.45943 3.86024 2.75 3.97926V6.02074C3.45943 6.13976 4 6.75675 4 7.5C4 8.24325 3.45943 8.86024 2.75 8.97926V11.0155C2.8319 11.0053 2.91533 11 3 11C3.15317 11 3.30232 11.0172 3.44561 11.0498L7.11493 3.71118C6.74212 3.43829 6.5 2.99742 6.5 2.5C6.5 1.67157 7.17157 1 8 1C8.82843 1 9.5 1.67157 9.5 2.5C9.5 3.32843 8.82843 4 8 4C7.84763 4 7.70057 3.97728 7.56202 3.93505L3.91817 11.2227C3.99202 11.261 4.06319 11.3037 4.13131 11.3505L6.81628 8.42142C6.61808 8.16716 6.5 7.84737 6.5 7.5C6.5 6.67157 7.17157 6 8 6C8.4515 6 8.85641 6.19948 9.1314 6.51511L12.2773 3.36917C12.1027 3.12396 12 2.82397 12 2.5C12 1.67157 12.6716 1 13.5 1C14.3284 1 15 1.67157 15 2.5C15 3.32843 14.3284 4 13.5 4C13.1761 4 12.8761 3.89731 12.6309 3.72271L9.39812 6.9555C9.4639 7.12429 9.5 7.30793 9.5 7.5C9.5 8.32843 8.82843 9 8 9C7.80793 9 7.62429 8.9639 7.4555 8.89812L4.57999 11.7736C4.63531 11.8448 4.68593 11.9198 4.73138 11.9982L12.0815 7.98901C12.0287 7.83574 12 7.67122 12 7.5C12 6.67157 12.6716 6 13.5 6C14.3284 6 15 6.67157 15 7.5C15 8.32843 14.3284 9 13.5 9C13.0218 9 12.5959 8.77627 12.3213 8.42778L4.9266 12.4612C4.97443 12.6326 5 12.8133 5 13C5 13.0847 4.99474 13.1681 4.98452 13.2501H6.52073C6.63972 12.5406 7.25673 12 8 12C8.74327 12 9.36028 12.5406 9.47927 13.2501H12.0207C12.1397 12.5406 12.7567 12 13.5 12C14.3284 12 15 12.6716 15 13.5C15 14.3284 14.3284 15 13.5 15C12.7568 15 12.1398 14.4595 12.0208 13.7501H9.47925C9.3602 14.4595 8.74323 15 8 15C7.25677 15 6.6398 14.4595 6.52075 13.7501H4.85459C4.55788 14.483 3.83932 15 3 15C1.89543 15 1 14.1046 1 13C1 12.1607 1.51704 11.4421 2.25 11.1454V8.97926C1.54057 8.86024 1 8.24325 1 7.5C1 6.75675 1.54057 6.13976 2.25 6.02074V3.97926C1.54057 3.86024 1 3.24325 1 2.5ZM2 7.5C2 7.22386 2.22386 7 2.5 7C2.77614 7 3 7.22386 3 7.5C3 7.77614 2.77614 8 2.5 8C2.22386 8 2 7.77614 2 7.5ZM2 13C2 12.4477 2.44772 12 3 12C3.55228 12 4 12.4477 4 13C4 13.5523 3.55228 14 3 14C2.44772 14 2 13.5523 2 13ZM8 7C7.72386 7 7.5 7.22386 7.5 7.5C7.5 7.77614 7.72386 8 8 8C8.27614 8 8.5 7.77614 8.5 7.5C8.5 7.22386 8.27614 7 8 7ZM13 7.5C13 7.22386 13.2239 7 13.5 7C13.7761 7 14 7.22386 14 7.5C14 7.77614 13.7761 8 13.5 8C13.2239 8 13 7.77614 13 7.5ZM7.5 2.5C7.5 2.22386 7.72386 2 8 2C8.27614 2 8.5 2.22386 8.5 2.5C8.5 2.77614 8.27614 3 8 3C7.72386 3 7.5 2.77614 7.5 2.5ZM13.5 2C13.2239 2 13 2.22386 13 2.5C13 2.77614 13.2239 3 13.5 3C13.7761 3 14 2.77614 14 2.5C14 2.22386 13.7761 2 13.5 2ZM7.5 13.5C7.5 13.2239 7.72386 13 8 13C8.27614 13 8.5 13.2239 8.5 13.5C8.5 13.7761 8.27614 14 8 14C7.72386 14 7.5 13.7761 7.5 13.5ZM13.5 13C13.2239 13 13 13.2239 13 13.5C13 13.7761 13.2239 14 13.5 14C13.7761 14 14 13.7761 14 13.5C14 13.2239 13.7761 13 13.5 13Z" fill="white"/>
</g>
</svg>
