
<svg width="16px" height="16px" viewBox="0 0 13 13" version="1.1" xmlns="http://www.w3.org/2000/svg" xmlns:xlink="http://www.w3.org/1999/xlink">
    <g id="Page-1" stroke="none" stroke-width="1" fill="none" fill-rule="evenodd">
        <g id="26案件串并3" transform="translate(-582.000000, -449.000000)" fill="#2979FF">
            <g id="Group-15" transform="translate(180.000000, 439.000000)">
                <g id="Group-14" transform="translate(400.000000, 8.000000)">
                    <path d="M3,3 L13.25,3 L13.25,6 L14.25,6 L14.25,3 L14.25,2 L13.25,2 L3,2 L2,2 L2,3 L2,13.25 L2,14.25 L3,14.25 L6,14.25 L6,13.25 L3,13.25 L3,3 Z M14.96,14 C14.79,12.033 13.05,10.53 10.98,10.53 C8.91,10.53 7.17,12.033 7,14 L8.01,14 C8.17,12.633 9.41,11.53 10.98,11.53 C12.55,11.53 13.79,12.633 13.95,14 L14.96,14 Z M8.99,8.031 C8.99,6.88 9.97,6 11.12,6 C12.26,6 13.25,6.88 13.25,8.031 C13.25,9.182 12.26,10.062 11.12,10.062 C9.97,10.062 8.99,9.182 8.99,8.031 Z M11.12,7 C10.46,7 9.99,7.491 9.99,8.031 C9.99,8.572 10.46,9.062 11.12,9.062 C11.77,9.062 12.25,8.572 12.25,8.031 C12.25,7.491 11.77,7 11.12,7 Z M4,6 L9,6 L9,5 L4,5 L4,6 Z M7,8 L4,8 L4,7 L7,7 L7,8 Z M4,10 L7,10 L7,9 L4,9 L4,10 Z" id="Shape"></path>
                </g>
            </g>
        </g>
    </g>
</svg>