<svg xmlns="http://www.w3.org/2000/svg" width="16" height="16" viewBox="0 0 16 16">
  <path fill="#2979FF" fill-rule="evenodd" d="M2.08024691,2.56122449 L13.1527778,2.56122449 L13.1527778,5.74489796 L14.2330247,5.74489796 L14.2330247,2.56122449 L14.2330247,1.5 L13.1527778,1.5 L2.08024691,1.5 L1,1.5 L1,2.56122449 L1,13.4387755 L1,14.5 L2.08024691,14.5 L5.32098765,14.5 L5.32098765,13.4387755 L2.08024691,13.4387755 L2.08024691,2.56122449 Z M15,14.2346939 C14.816358,12.1472653 12.9367284,10.5522449 10.7006173,10.5522449 C8.46450617,10.5522449 6.58487654,12.1472653 6.40123457,14.2346939 L7.49228395,14.2346939 C7.66512346,12.784 9.00462963,11.6134694 10.7006173,11.6134694 C12.3966049,11.6134694 13.7361111,12.784 13.9089506,14.2346939 L15,14.2346939 Z M8.55092593,7.9002449 C8.55092593,6.67877551 9.6095679,5.74489796 10.8518519,5.74489796 C12.0833333,5.74489796 13.1527778,6.67877551 13.1527778,7.9002449 C13.1527778,9.12171429 12.0833333,10.0555918 10.8518519,10.0555918 C9.6095679,10.0555918 8.55092593,9.12171429 8.55092593,7.9002449 Z M10.8518519,6.80612245 C10.1388889,6.80612245 9.63117284,7.32718367 9.63117284,7.9002449 C9.63117284,8.47436735 10.1388889,8.99436735 10.8518519,8.99436735 C11.5540123,8.99436735 12.0725309,8.47436735 12.0725309,7.9002449 C12.0725309,7.32718367 11.5540123,6.80612245 10.8518519,6.80612245 Z M3.16049383,5.74489796 L8.5617284,5.74489796 L8.5617284,4.68367347 L3.16049383,4.68367347 L3.16049383,5.74489796 Z M6.40123457,7.86734694 L3.16049383,7.86734694 L3.16049383,6.80612245 L6.40123457,6.80612245 L6.40123457,7.86734694 Z M3.16049383,9.98979592 L6.40123457,9.98979592 L6.40123457,8.92857143 L3.16049383,8.92857143 L3.16049383,9.98979592 Z"/>
</svg>
