<svg xmlns="http://www.w3.org/2000/svg" width="16" height="16" viewBox="0 0 16 16">
  <path fill="#2979FF" fill-rule="evenodd" d="M2.04,8 C2.04,4.707 4.71,2.038 8,2.038 C11.29,2.038 13.96,4.707 13.96,8 C13.96,11.292 11.29,13.961 8,13.961 C4.71,13.961 2.04,11.292 2.04,8 Z M8,1.038 C4.16,1.038 1.04,4.155 1.04,8 C1.04,11.844 4.16,14.961 8,14.961 C11.85,14.961 14.96,11.844 14.96,8 C14.96,4.155 11.85,1.038 8,1.038 Z M8.96,4.852 C8.96,4.872 8.96,4.893 8.96,4.913 L10.7,6.217 C10.82,6.154 10.96,6.119 11.11,6.119 C11.61,6.119 12.02,6.527 12.02,7.031 C12.02,7.089 12.02,7.145 12.01,7.199 L12.02,7.206 L12.01,7.209 C11.92,7.628 11.55,7.944 11.11,7.944 C10.84,7.944 10.6,7.826 10.43,7.639 L8.8,8.083 C8.77,8.313 8.67,8.521 8.52,8.689 L9.24,10.281 C9.68,10.348 10.02,10.726 10.02,11.183 C10.02,11.687 9.61,12.096 9.1,12.096 C8.6,12.096 8.19,11.687 8.19,11.183 C8.19,11.003 8.24,10.835 8.33,10.694 L7.61,9.103 C7.46,9.103 7.31,9.076 7.18,9.026 L5.5,10.704 C5.51,10.665 5.51,10.625 5.51,10.584 C5.51,10.253 5.24,9.985 4.91,9.985 C4.87,9.985 4.83,9.989 4.79,9.998 L6.47,8.318 C6.42,8.186 6.39,8.041 6.39,7.891 C6.39,7.74 6.42,7.596 6.47,7.463 L5.1,6.091 C5.04,6.103 4.98,6.11 4.91,6.11 C4.41,6.11 4,5.701 4,5.197 C4,4.693 4.41,4.284 4.91,4.284 C5.42,4.284 5.83,4.693 5.83,5.197 C5.83,5.261 5.82,5.323 5.81,5.384 L7.18,6.756 C7.28,6.72 7.38,6.696 7.48,6.685 L7.95,5.283 C7.84,5.174 7.77,5.021 7.77,4.852 C7.77,4.521 8.03,4.253 8.36,4.253 C8.69,4.253 8.96,4.521 8.96,4.852 Z M9.78,6.779 L8.54,7.118 C8.51,7.077 8.47,7.038 8.43,7.002 L8.76,6.013 L9.78,6.779 Z M4.63,5.197 C4.63,5.04 4.76,4.912 4.91,4.912 C5.07,4.912 5.2,5.04 5.2,5.197 C5.2,5.354 5.07,5.481 4.91,5.481 C4.76,5.481 4.63,5.354 4.63,5.197 Z M7.02,7.891 C7.02,7.569 7.28,7.307 7.61,7.307 C7.93,7.307 8.19,7.569 8.19,7.891 C8.19,8.213 7.93,8.475 7.61,8.475 C7.28,8.475 7.02,8.213 7.02,7.891 Z M11.11,6.747 C10.95,6.747 10.83,6.874 10.83,7.031 C10.83,7.189 10.95,7.316 11.11,7.316 C11.27,7.316 11.4,7.189 11.4,7.031 C11.4,6.874 11.27,6.747 11.11,6.747 Z M4.91,11.183 C5.24,11.183 5.51,10.915 5.51,10.584 C5.51,10.254 5.24,9.986 4.91,9.986 C4.58,9.986 4.31,10.254 4.31,10.584 C4.31,10.915 4.58,11.183 4.91,11.183 Z M8.82,11.183 C8.82,11.026 8.95,10.898 9.1,10.898 C9.26,10.898 9.39,11.026 9.39,11.183 C9.39,11.34 9.26,11.467 9.1,11.467 C8.95,11.467 8.82,11.34 8.82,11.183 Z"/>
</svg>
