<svg xmlns="http://www.w3.org/2000/svg" width="16" height="16" viewBox="0 0 16 16">
  <g fill="#2979FF" fill-rule="evenodd" transform="translate(1 1)">
    <polygon fill-rule="nonzero" points="5.738 7.798 5.873 8.788 3.808 9.07 2.28 7.941 1.248 11.685 2.841 12.887 9.055 12.146 9.233 12.157 11.878 12.803 12.887 8.637 10.521 7.935 8.734 8.337 8.514 7.361 10.556 6.902 14.083 7.949 12.614 14.012 9.083 13.15 2.559 13.927 .104 12.074 1.702 6.272 4.075 8.024"/>
    <path d="M5.9998,4 C5.9998,3.448 6.4478,3 6.9998,3 C7.5518,3 7.9998,3.448 7.9998,4 C7.9998,4.552 7.5518,5 6.9998,5 C6.4478,5 5.9998,4.552 5.9998,4 Z M6.9998,1 C5.3168,1 3.9998,2.287 3.9998,3.818 C3.9998,4.896 4.4168,5.58 5.0978,6.556 L5.2498,6.773 C5.7738,7.519 6.4038,8.417 6.9998,9.703 C7.5958,8.417 8.2258,7.519 8.7498,6.773 L8.9018,6.556 C9.5828,5.58 9.9998,4.896 9.9998,3.818 C9.9998,2.287 8.6828,1 6.9998,1 Z M2.9998,3.818 C2.9998,1.685 4.8158,0 6.9998,0 C9.1838,0 10.9998,1.685 10.9998,3.818 C10.9998,5.228 10.4168,6.134 9.7228,7.128 L9.5718,7.343 C8.9128,8.281 8.1408,9.381 7.4678,11.176 L6.9998,12.424 L6.5318,11.176 C5.8588,9.381 5.0868,8.281 4.4278,7.343 L4.2768,7.128 C3.5828,6.134 2.9998,5.228 2.9998,3.818 Z"/>
    <path fill-rule="nonzero" d="M3.58928311 8.37271634L4.45800204 8.60793415 4.19664892 9.57317741 3.32792999 9.3379596 3.58928311 8.37271634zM3.06657687 10.3032029L3.9352958 10.5384207 3.67394269 11.5036639 2.80522375 11.2684461 3.06657687 10.3032029zM2.54387063 12.2336894L3.41258957 12.4689072 3.15123645 13.4341504 2.28251752 13.1989326 2.54387063 12.2336894zM10.1181918 7.66028758L10.9883005 7.89031121 10.7327187 8.85709864 9.86261003 8.62707502 10.1181918 7.66028758zM9.60702823 9.59386245L10.4771369 9.82388607 10.2215551 10.7906735 9.35144642 10.5606499 9.60702823 9.59386245zM9.09586461 11.5274373L9.9659733 11.7574609 9.75967724 12.5378155 8.88956855 12.3077919 9.09586461 11.5274373z"/>
  </g>
</svg>
