<svg width="18" height="18" viewBox="0 0 18 18" fill="none" xmlns="http://www.w3.org/2000/svg">
<path fill-rule="evenodd" clip-rule="evenodd" d="M8.82375 0.75293L9.14104 0.917445L15.7799 4.35974L16.1519 4.55262V4.97166V8.70081C16.1519 9.0815 15.8433 9.3901 15.4626 9.3901C15.0819 9.3901 14.7733 9.0815 14.7733 8.70081V6.19432L9.51297 9.37643V15.2465L10.6896 14.5607C11.0185 14.369 11.4405 14.4802 11.6322 14.8091C11.8239 15.138 11.7127 15.56 11.3838 15.7517L9.17084 17.0415L8.8172 17.2476L8.46698 17.0357L1.82813 13.0197L1.49561 12.8186V12.43V4.97166V4.55262L1.86761 4.35974L8.50646 0.917445L8.82375 0.75293ZM8.13438 15.2234V9.37634L2.87419 6.19432V12.0413L8.13438 15.2234ZM8.82375 2.30581L14.0545 5.01797L8.82375 8.18216L3.59303 5.01797L8.82375 2.30581Z" fill="white"/>
<path fill-rule="evenodd" clip-rule="evenodd" d="M13.431 14.33V15.1562H14.1202V14.33C14.6678 14.2413 15.1448 13.9447 15.4764 13.5237L16.1626 13.933L16.4989 13.3312L15.8157 12.9237C15.9118 12.6701 15.9644 12.3947 15.9644 12.1077C15.9644 11.8209 15.9118 11.5456 15.8158 11.2921L16.4989 10.8846L16.1626 10.2828L15.4767 10.692C15.145 10.2709 14.6679 9.97415 14.1202 9.88546V9.05957H13.431V9.88547C12.8832 9.97418 12.4061 10.271 12.0745 10.6921L11.3883 10.2829L11.052 10.8847L11.7354 11.2923C11.6394 11.5457 11.5869 11.8209 11.5869 12.1077C11.5869 12.3946 11.6394 12.6699 11.7355 12.9235L11.052 13.3312L11.3883 13.933L12.0747 13.5235C12.4063 13.9446 12.8833 14.2413 13.431 14.33ZM12.2761 12.1077C12.2761 11.2352 12.958 10.5472 13.7756 10.5472C14.5933 10.5472 15.2751 11.2352 15.2751 12.1077C15.2751 12.9803 14.5933 13.6683 13.7756 13.6683C12.958 13.6683 12.2761 12.9803 12.2761 12.1077Z" fill="white"/>
</svg>
