<svg width="16" height="16" viewBox="0 0 16 16" fill="none" xmlns="http://www.w3.org/2000/svg">
<path fill-rule="evenodd" clip-rule="evenodd" d="M8 0C3.58171 0 0 3.58171 0 8C0 12.4183 3.58171 16 8 16C12.4183 16 16 12.4183 16 8C16 3.58171 12.4183 0 8 0ZM2 8C2 4.68628 4.68628 2 8 2C11.3137 2 14 4.68628 14 8C14 11.3137 11.3137 14 8 14C4.68628 14 2 11.3137 2 8ZM8 5.5C7.44772 5.5 7 5.94772 7 6.5H5C5 4.84315 6.34315 3.5 8 3.5C9.65685 3.5 11 4.84315 11 6.5C11 7.80622 10.1652 8.91746 9 9.32929V10H7V8.5V7.5H8C8.55228 7.5 9 7.05228 9 6.5C9 5.94772 8.55228 5.5 8 5.5ZM7 12V11H9V12H7Z" fill="white"/>
</svg>
