<svg width="16" height="16" viewBox="0 0 16 16" fill="none" xmlns="http://www.w3.org/2000/svg">
<path fill-rule="evenodd" clip-rule="evenodd" d="M10.129 2.70125C10.167 2.57841 10.1875 2.44785 10.1875 2.3125C10.1875 1.58763 9.59988 1 8.87501 1C8.69096 1 8.51576 1.03788 8.35678 1.10627L8.35653 1.10605L8.35645 1.10642C7.88946 1.30747 7.5625 1.7718 7.5625 2.3125C7.5625 2.63981 7.68231 2.93913 7.88047 3.16901L7.16098 6.28677C7.02344 6.31229 6.89042 6.35067 6.76322 6.40063L4.00326 3.64067C4.0419 3.49613 4.0625 3.34422 4.0625 3.1875C4.0625 2.221 3.279 1.4375 2.3125 1.4375C1.346 1.4375 0.5625 2.221 0.5625 3.1875C0.5625 4.154 1.346 4.9375 2.3125 4.9375C2.46931 4.9375 2.6213 4.91688 2.76591 4.8782L5.52571 7.638C5.42843 7.88565 5.375 8.15534 5.375 8.4375C5.375 8.71967 5.42843 8.98936 5.52571 9.23701L2.96554 11.7972C2.281 11.8417 1.73956 12.4111 1.73956 13.1069C1.73956 13.8318 2.32719 14.4194 3.05206 14.4194C3.77694 14.4194 4.36457 13.8318 4.36457 13.1069C4.36457 13.0333 4.3585 12.9611 4.34685 12.8907L6.76322 10.4744C7.01081 10.5716 7.28042 10.625 7.5625 10.625C7.67763 10.625 7.79067 10.6161 7.90099 10.599L9.07299 12.4407C8.94652 12.6827 8.87501 12.958 8.87501 13.25C8.87501 14.2165 9.65851 15 10.625 15C11.5915 15 12.375 14.2165 12.375 13.25C12.375 12.2835 11.5915 11.5 10.625 11.5C10.5998 11.5 10.5747 11.5005 10.5497 11.5016L9.37729 9.65927C9.56924 9.37469 9.69603 9.04254 9.73625 8.68419L12.3941 7.86638C12.7142 8.21731 13.1751 8.4375 13.6875 8.4375C14.654 8.4375 15.4375 7.65399 15.4375 6.6875C15.4375 5.721 14.654 4.9375 13.6875 4.9375C13.3842 4.9375 13.099 5.01465 12.8503 5.1504L10.129 2.70125ZM8.87799 3.625C8.87699 3.625 8.876 3.625 8.87501 3.625L8.87799 3.625ZM8.87799 3.625C8.87704 3.625 8.8761 3.625 8.87516 3.625C8.87511 3.625 8.87506 3.625 8.87501 3.625M13.4702 7.5353L13.4702 7.53528C13.0922 7.4386 12.8127 7.09569 12.8127 6.6875C12.8127 6.23668 13.1536 5.86549 13.5917 5.8177L13.5917 5.81769C13.6232 5.81426 13.6551 5.8125 13.6875 5.8125C14.1708 5.8125 14.5625 6.20425 14.5625 6.6875C14.5625 7.17075 14.1708 7.5625 13.6875 7.5625C13.6125 7.5625 13.5397 7.55306 13.4702 7.5353ZM9.22147 7.01162L11.5174 6.30519L9.39378 4.39395L8.86608 6.68067C8.99646 6.77758 9.11568 6.88865 9.22147 7.01162ZM9.87549 13.7018L9.87902 13.7073C9.79729 13.5742 9.75016 13.4176 9.75016 13.25C9.75016 12.7668 10.1419 12.375 10.6252 12.375C10.6282 12.375 10.6313 12.375 10.6343 12.3751C11.1133 12.38 11.5 12.7699 11.5 13.25C11.5 13.7333 11.1083 14.125 10.625 14.125C10.3071 14.125 10.0287 13.9554 9.87549 13.7018ZM1.70356 3.81585C1.53948 3.65681 1.4375 3.43406 1.4375 3.1875C1.4375 2.70425 1.82925 2.3125 2.3125 2.3125C2.79575 2.3125 3.1875 2.70425 3.1875 3.1875C3.1875 3.67075 2.79575 4.0625 2.3125 4.0625M2.30975 4.0625C2.06959 4.06172 1.85221 3.96419 1.69455 3.80684L1.70356 3.81585M7.5625 7.125C6.83763 7.125 6.25 7.71263 6.25 8.4375C6.25 9.16238 6.83763 9.75001 7.5625 9.75001C8.28738 9.75001 8.875 9.16238 8.875 8.4375C8.875 7.71263 8.28738 7.125 7.5625 7.125Z" fill="white"/>
</svg>
