<svg width="16" height="16" viewBox="0 0 16 16" fill="none" xmlns="http://www.w3.org/2000/svg">
<path fill-rule="evenodd" clip-rule="evenodd" d="M2.37509 10.0928C2.13255 9.44123 2 8.73609 2 8C2 7.2639 2.13255 6.55877 2.37509 5.90716L0.571796 4.86603L1.5718 3.13397L3.37638 4.17585C4.27537 3.09015 5.54943 2.32632 6.99998 2.08296V0H8.99998V2.08296C10.4505 2.32631 11.7246 3.09014 12.6236 4.17585L14.4282 3.13397L15.4282 4.86603L13.6249 5.90715C13.8674 6.55876 14 7.2639 14 8C14 8.7361 13.8674 9.44123 13.6249 10.0928L15.4282 11.134L14.4282 12.866L12.6236 11.8241C11.7246 12.9099 10.4505 13.6737 8.99998 13.917V16H6.99998V13.917C5.54943 13.6737 4.27536 12.9098 3.37638 11.8241L1.57178 12.866L0.571777 11.134L2.37509 10.0928ZM4 8C4 5.79086 5.79086 4 8 4C10.2091 4 12 5.79086 12 8C12 10.2091 10.2091 12 8 12C5.79086 12 4 10.2091 4 8Z" fill="white"/>
</svg>
