<svg width="16" height="16" viewBox="0 0 16 16" fill="none" xmlns="http://www.w3.org/2000/svg">
<path fill-rule="evenodd" clip-rule="evenodd" d="M6 7C6.70127 7 7.37444 7.12031 8 7.34141V8.41604C7.38754 8.14845 6.7111 8 6 8C3.23858 8 1 10.2386 1 13H0C0 9.68629 2.68629 7 6 7ZM3 3.5C3 2.11929 4.11929 1 5.5 1C6.88071 1 8 2.11929 8 3.5C8 4.88071 6.88071 6 5.5 6C4.11929 6 3 4.88071 3 3.5ZM5.5 2C4.67157 2 4 2.67157 4 3.5C4 4.32843 4.67157 5 5.5 5C6.32843 5 7 4.32843 7 3.5C7 2.67157 6.32843 2 5.5 2ZM9 10H14V9H9V10ZM9 12H14V11H9V12ZM9 14H14V13H9V14Z" fill="white"/>
</svg>
