<svg width="24" height="24" viewBox="0 0 24 24" fill="none" xmlns="http://www.w3.org/2000/svg">
<path fill-rule="evenodd" clip-rule="evenodd" d="M1.5 12C1.5 6.20101 6.20101 1.5 12 1.5C17.799 1.5 22.5 6.20101 22.5 12C22.5 17.799 17.799 22.5 12 22.5C6.20101 22.5 1.5 17.799 1.5 12ZM12 0.75C5.7868 0.75 0.75 5.7868 0.75 12C0.75 18.2132 5.7868 23.25 12 23.25C18.2132 23.25 23.25 18.2132 23.25 12C23.25 5.7868 18.2132 0.75 12 0.75ZM5.6815 11.147L5.19969 10.3125L4.55017 10.6875L5.48767 12.3113L5.67517 12.6361L5.99993 12.4486L7.62373 11.5111L7.24873 10.8615L6.41275 11.3442C6.7376 8.54657 9.11517 6.375 11.9999 6.375C15.1065 6.375 17.6249 8.8934 17.6249 12C17.6249 15.1066 15.1065 17.625 11.9999 17.625C9.43782 17.625 7.2758 15.912 6.59663 13.5689L5.8489 13.681C6.58649 16.3862 9.06096 18.375 11.9999 18.375C15.5207 18.375 18.3749 15.5208 18.3749 12C18.3749 8.47919 15.5207 5.625 11.9999 5.625C8.76834 5.625 6.09836 8.02951 5.6815 11.147ZM11.2499 8.25H11.9999V12H14.9999V12.75H11.6249H11.2499V12.375V8.25Z" fill="white"/>
</svg>
