<svg width="24" height="24" viewBox="0 0 24 24" fill="none" xmlns="http://www.w3.org/2000/svg">
<path fill-rule="evenodd" clip-rule="evenodd" d="M1.5 12C1.5 6.20101 6.20101 1.5 12 1.5C17.799 1.5 22.5 6.20101 22.5 12C22.5 17.799 17.799 22.5 12 22.5C6.20101 22.5 1.5 17.799 1.5 12ZM12 0.75C5.7868 0.75 0.75 5.7868 0.75 12C0.75 18.2132 5.7868 23.25 12 23.25C18.2132 23.25 23.25 18.2132 23.25 12C23.25 5.7868 18.2132 0.75 12 0.75ZM7.125 6H6.75V6.375V12.375V12.75H7.125H9.75V14.25H10.5V12.75H17.25H17.625V12.375V6.375V6H17.25H7.125ZM7.5 12V6.75H16.875V12H10.125H7.5ZM9 9H12V8.25H9V9ZM9 10.5V9.75H15V10.5H9ZM12 16.125C12 16.2534 11.9871 16.3788 11.9625 16.5H18.75V15.75H11.9625C11.9871 15.8712 12 15.9966 12 16.125ZM5.25 16.5H8.28751C8.26291 16.3788 8.25 16.2534 8.25 16.125C8.25 15.9966 8.26291 15.8712 8.28751 15.75H5.25V16.5ZM10.125 15.75C9.91789 15.75 9.75 15.9179 9.75 16.125C9.75 16.3321 9.91789 16.5 10.125 16.5C10.3321 16.5 10.5 16.3321 10.5 16.125C10.5 15.9179 10.3321 15.75 10.125 15.75ZM9 16.125C9 15.5037 9.50368 15 10.125 15C10.7463 15 11.25 15.5037 11.25 16.125C11.25 16.7463 10.7463 17.25 10.125 17.25C9.50368 17.25 9 16.7463 9 16.125Z" fill="white"/>
</svg>
