<svg width="24" height="24" viewBox="0 0 24 24" fill="none" xmlns="http://www.w3.org/2000/svg">
<path fill-rule="evenodd" clip-rule="evenodd" d="M1.5 12C1.5 6.20101 6.20101 1.5 12 1.5C17.799 1.5 22.5 6.20101 22.5 12C22.5 17.799 17.799 22.5 12 22.5C6.20101 22.5 1.5 17.799 1.5 12ZM12 0.75C5.7868 0.75 0.75 5.7868 0.75 12C0.75 18.2132 5.7868 23.25 12 23.25C18.2132 23.25 23.25 18.2132 23.25 12C23.25 5.7868 18.2132 0.75 12 0.75ZM7.5 7.125C7.5 6.91789 7.66789 6.75 7.875 6.75C8.08211 6.75 8.25 6.91789 8.25 7.125C8.25 7.33211 8.08211 7.5 7.875 7.5C7.66789 7.5 7.5 7.33211 7.5 7.125ZM7.875 6C7.25368 6 6.75 6.50368 6.75 7.125C6.75 7.74632 7.25368 8.25 7.875 8.25C8.11795 8.25 8.34292 8.17299 8.52681 8.04204L10.9232 10.4384C10.6587 10.7616 10.5 11.1748 10.5 11.625C10.5 12.0752 10.6587 12.4884 10.9232 12.8116L8.63096 15.1038C8.51931 15.0379 8.38907 15 8.25 15C7.83579 15 7.5 15.3358 7.5 15.75C7.5 16.1642 7.83579 16.5 8.25 16.5C8.66421 16.5 9 16.1642 9 15.75C9 15.6109 8.96213 15.4806 8.89614 15.369L11.1883 13.0768C11.5116 13.3413 11.9247 13.5 12.375 13.5C12.6467 13.5 12.9049 13.4422 13.138 13.3383L14.6618 16.0049C14.4104 16.2112 14.25 16.5244 14.25 16.875C14.25 17.4963 14.7537 18 15.375 18C15.9963 18 16.5 17.4963 16.5 16.875C16.5 16.2537 15.9963 15.75 15.375 15.75C15.2387 15.75 15.1081 15.7742 14.9872 15.8186L13.4634 13.1519C13.9396 12.8119 14.25 12.2547 14.25 11.625C14.25 11.5116 14.2399 11.4005 14.2206 11.2927L16.6097 10.6101C16.7908 10.9886 17.1774 11.25 17.625 11.25C18.2463 11.25 18.75 10.7463 18.75 10.125C18.75 9.50368 18.2463 9 17.625 9C17.3417 9 17.0829 9.10468 16.8852 9.27747L14.1809 7.06488C14.2252 6.96914 14.25 6.86246 14.25 6.75C14.25 6.33579 13.9142 6 13.5 6C13.0858 6 12.75 6.33579 12.75 6.75C12.75 7.13333 13.0376 7.44949 13.4088 7.49451C13.3178 7.48349 13.2318 7.45618 13.1539 7.41558L12.6118 9.76481C12.5342 9.75504 12.4552 9.75 12.375 9.75C11.9247 9.75 11.5116 9.9087 11.1883 10.1732L8.79199 7.77689C8.92297 7.59298 9 7.36798 9 7.125C9 6.50368 8.49632 6 7.875 6ZM16.5068 10.2495L14.1178 10.932C13.9156 10.424 13.4977 10.0252 12.9773 9.84882L13.5193 7.49975C13.6778 7.49574 13.824 7.44261 13.9433 7.35502L16.6476 9.5676C16.5537 9.73191 16.5 9.92219 16.5 10.125C16.5 10.1671 16.5023 10.2086 16.5068 10.2495ZM11.25 11.625C11.25 11.0037 11.7537 10.5 12.375 10.5C12.9963 10.5 13.5 11.0037 13.5 11.625C13.5 12.2463 12.9963 12.75 12.375 12.75C11.7537 12.75 11.25 12.2463 11.25 11.625ZM17.625 9.75C17.4179 9.75 17.25 9.91789 17.25 10.125C17.25 10.3321 17.4179 10.5 17.625 10.5C17.8321 10.5 18 10.3321 18 10.125C18 9.91789 17.8321 9.75 17.625 9.75ZM15 16.875C15 16.6679 15.1679 16.5 15.375 16.5C15.5821 16.5 15.75 16.6679 15.75 16.875C15.75 17.0821 15.5821 17.25 15.375 17.25C15.1679 17.25 15 17.0821 15 16.875Z" fill="white"/>
</svg>
