<svg width="24" height="24" viewBox="0 0 24 24" fill="none" xmlns="http://www.w3.org/2000/svg">
<path fill-rule="evenodd" clip-rule="evenodd" d="M12 1.5C6.20101 1.5 1.5 6.20101 1.5 12C1.5 17.799 6.20101 22.5 12 22.5C17.799 22.5 22.5 17.799 22.5 12C22.5 6.20101 17.799 1.5 12 1.5ZM0.75 12C0.75 5.7868 5.7868 0.75 12 0.75C18.2132 0.75 23.25 5.7868 23.25 12C23.25 18.2132 18.2132 23.25 12 23.25C5.7868 23.25 0.75 18.2132 0.75 12ZM10.875 10.875C10.875 10.2537 11.3787 9.75 12 9.75C12.6213 9.75 13.125 10.2537 13.125 10.875C13.125 11.4963 12.6213 12 12 12C11.3787 12 10.875 11.4963 10.875 10.875ZM12 9C10.9645 9 10.125 9.83947 10.125 10.875C10.125 11.9105 10.9645 12.75 12 12.75C13.0355 12.75 13.875 11.9105 13.875 10.875C13.875 9.83947 13.0355 9 12 9ZM10.125 13.5H9.75V13.875V17.625V18H10.125H10.5V19.875V20.25H10.875H13.125H13.5V19.875V18H13.875H14.25V17.625V13.875V13.5H13.875H10.125ZM10.875 17.25H10.5V14.25H13.5V17.25H13.125H12.75V17.625V19.5H11.25V17.625V17.25H10.875ZM4.875 12C4.875 8.06497 8.06497 4.875 12 4.875C15.935 4.875 19.125 8.06497 19.125 12C19.125 14.5591 17.7758 16.8031 15.75 18.0595V18.9265C18.2069 17.5936 19.875 14.9916 19.875 12C19.875 7.65076 16.3492 4.125 12 4.125C7.65076 4.125 4.125 7.65076 4.125 12C4.125 14.9916 5.79314 17.5936 8.25 18.9265V18.0595C6.22416 16.8031 4.875 14.5591 4.875 12ZM16.5 12C16.5 12.9201 16.2239 13.7756 15.75 14.4883V12C15.75 9.92893 14.0711 8.25 12 8.25C9.92893 8.25 8.25 9.92893 8.25 12V14.4883C7.77611 13.7756 7.5 12.9201 7.5 12C7.5 9.51472 9.51472 7.5 12 7.5C14.4853 7.5 16.5 9.51472 16.5 12Z" fill="white"/>
</svg>
