<svg width="24" height="24" viewBox="0 0 24 24" fill="none" xmlns="http://www.w3.org/2000/svg">
<path fill-rule="evenodd" clip-rule="evenodd" d="M12 1.5C6.20101 1.5 1.5 6.20101 1.5 12C1.5 17.799 6.20101 22.5 12 22.5C17.799 22.5 22.5 17.799 22.5 12C22.5 6.20101 17.799 1.5 12 1.5ZM0.75 12C0.75 5.7868 5.7868 0.75 12 0.75C18.2132 0.75 23.25 5.7868 23.25 12C23.25 18.2132 18.2132 23.25 12 23.25C5.7868 23.25 0.75 18.2132 0.75 12ZM5.625 11.25C5.625 8.1434 8.1434 5.625 11.25 5.625C14.3566 5.625 16.875 8.1434 16.875 11.25C16.875 14.3566 14.3566 16.875 11.25 16.875C8.1434 16.875 5.625 14.3566 5.625 11.25ZM11.25 4.875C7.72918 4.875 4.875 7.72918 4.875 11.25C4.875 14.7708 7.72918 17.625 11.25 17.625C12.8755 17.625 14.3589 17.0167 15.4849 16.0152L17.7348 18.2652L18.2652 17.7348L16.0152 15.4849C17.0167 14.3589 17.625 12.8755 17.625 11.25C17.625 7.72918 14.7708 4.875 11.25 4.875ZM9 12.375V15.148C9.23717 15.2852 9.48802 15.4013 9.75 15.4939V12.75H12.75V15.4939C13.012 15.4013 13.2628 15.2852 13.5 15.148V12.375V12H13.125H9.375H9V12.375ZM10.125 9.375C10.125 8.75368 10.6287 8.25 11.25 8.25C11.8713 8.25 12.375 8.75368 12.375 9.375C12.375 9.99632 11.8713 10.5 11.25 10.5C10.6287 10.5 10.125 9.99632 10.125 9.375ZM11.25 7.5C10.2145 7.5 9.375 8.33947 9.375 9.375C9.375 10.4105 10.2145 11.25 11.25 11.25C12.2855 11.25 13.125 10.4105 13.125 9.375C13.125 8.33947 12.2855 7.5 11.25 7.5Z" fill="white"/>
</svg>
