<svg width="16" height="16" viewBox="0 0 16 16" fill="none" xmlns="http://www.w3.org/2000/svg">
<g opacity="0.5">
<path fill-rule="evenodd" clip-rule="evenodd" d="M0.792922 8.79289L0.0858154 9.5L0.792922 10.2071L5.79292 15.2071L6.50003 15.9142L7.20714 15.2071L14.7071 7.70711L15 7.41421V7V2V1H14H9.00003H8.58582L8.29292 1.29289L0.792922 8.79289ZM7.20714 13.7929L14 7V3V2L13 2L9.00003 2L2.20714 8.79289L1.50003 9.5L2.20714 10.2071L5.79292 13.7929L6.50003 14.5L7.20714 13.7929ZM12.7071 6.12156C13.4881 5.34052 13.4881 4.07419 12.7071 3.29314C11.926 2.51209 10.6597 2.51209 9.87865 3.29314C9.0976 4.07419 9.0976 5.34052 9.87865 6.12156C10.6597 6.90261 11.926 6.90261 12.7071 6.12156ZM12 4.00024C12.3905 4.39077 12.3905 5.02393 12 5.41446C11.6094 5.80498 10.9763 5.80498 10.5858 5.41446C10.1952 5.02393 10.1952 4.39077 10.5858 4.00024C10.9763 3.60972 11.6094 3.60972 12 4.00024Z" fill="white"/>
</g>
</svg>
