<svg width="48" height="48" viewBox="0 0 48 48" fill="none" xmlns="http://www.w3.org/2000/svg">
<circle cx="24" cy="24" r="23.5" fill="#2979FF" fill-opacity="0.2" stroke="#2979FF"/>
<path fill-rule="evenodd" clip-rule="evenodd" d="M21 17.25C21 15.5931 22.3431 14.25 24 14.25C25.6569 14.25 27 15.5931 27 17.25C27 18.1161 26.6367 19.2898 26.0211 20.2455C25.3869 21.2302 24.6459 21.75 24 21.75C23.3541 21.75 22.6131 21.2302 21.9789 20.2455C21.3633 19.2898 21 18.1161 21 17.25ZM24 12.75C21.5147 12.75 19.5 14.7647 19.5 17.25C19.5 18.4549 19.9762 19.9063 20.7178 21.0578C21.4408 22.1803 22.5748 23.25 24 23.25C25.4252 23.25 26.5592 22.1803 27.2822 21.0578C28.0238 19.9063 28.5 18.4549 28.5 17.25C28.5 14.7647 26.4853 12.75 24 12.75ZM29.1815 25.1266C27.8217 24.122 26.0894 24.5999 25.0567 25.6326L24 26.6893L22.9433 25.6326C21.9106 24.5999 20.1783 24.122 18.8185 25.1266C16.5024 26.8376 15 29.6591 15 32.8369V34.5H16.5V32.8369C16.5 30.1363 17.7756 27.762 19.7098 26.3331C20.2968 25.8994 21.2039 26.0145 21.8826 26.6933L23.4697 28.2803L24 28.8107L24.5303 28.2803L26.1174 26.6933C26.7961 26.0145 27.7032 25.8994 28.2902 26.3331C30.2244 27.762 31.5 30.1363 31.5 32.8369V34.5H33V32.8369C33 29.6591 31.4976 26.8376 29.1815 25.1266Z" fill="#2979FF"/>
</svg>
