<?xml version="1.0" encoding="UTF-8"?>
<svg width="16px" height="15px" viewBox="0 0 16 15" version="1.1" xmlns="http://www.w3.org/2000/svg" xmlns:xlink="http://www.w3.org/1999/xlink">
    <!-- Generator: Sketch 52.3 (67297) - http://www.bohemiancoding.com/sketch -->
    <title>Group</title>
    <desc>Created with Sketch.</desc>
    <g id="Page-1" stroke="none" stroke-width="1" fill="none" fill-rule="evenodd">
        <g id="22协作1" transform="translate(-97.000000, -241.000000)">
            <g id="协作1">
                <g id="Group-4" transform="translate(97.000000, 232.000000)">
                    <g id="Group" transform="translate(0.000000, 8.000000)">
                        <rect id="Rectangle" x="0" y="0" width="16" height="16"></rect>
                        <path d="M1.5,2 C1.224,2 1,2.224 1,2.5 C1,2.776 1.224,3 1.5,3 C1.776,3 2,2.776 2,2.5 C2,2.224 1.776,2 1.5,2 Z M0,2.5 C0,1.672 0.672,1 1.5,1 C2.328,1 3,1.672 3,2.5 C3,2.824 2.897,3.124 2.723,3.369 L5.918,6.564 C6.349,6.212 6.9,6 7.5,6 C7.607,6 7.712,6.007 7.816,6.02 L8.539,2.887 C8.219,2.721 8,2.386 8,2 C8,1.448 8.448,1 9,1 C9.552,1 10,1.448 10,2 C10,2.15 9.967,2.292 9.908,2.42 L13.514,5.37 C13.777,5.14 14.122,5 14.5,5 C15.328,5 16,5.672 16,6.5 C16,7.328 15.328,8 14.5,8 C13.903,8 13.388,7.651 13.146,7.147 L9.961,8.057 C9.987,8.201 10,8.349 10,8.5 C10,9.297 9.627,10.007 9.046,10.464 L10.417,12.618 C10.596,12.542 10.793,12.5 11,12.5 C11.828,12.5 12.5,13.172 12.5,14 C12.5,14.829 11.828,15.5 11,15.5 C10.172,15.5 9.5,14.829 9.5,14 C9.5,13.558 9.691,13.161 9.995,12.886 L8.625,10.733 C8.287,10.904 7.905,11 7.5,11 C6.9,11 6.349,10.788 5.918,10.436 L2.861,13.492 C2.775,13.346 2.654,13.224 2.508,13.138 L5.564,10.082 C5.212,9.651 5,9.1 5,8.5 C5,7.9 5.212,7.349 5.564,6.918 L2.369,3.723 C2.124,3.897 1.824,4 1.5,4 C0.672,4 0,3.328 0,2.5 Z M9.824,7.576 L13.009,6.666 C13.003,6.611 13,6.556 13,6.5 C13,6.23 13.072,5.976 13.197,5.757 L9.591,2.807 C9.432,2.923 9.237,2.994 9.026,3 L8.303,6.132 C8.997,6.367 9.554,6.899 9.824,7.576 Z M7.5,7 C6.672,7 6,7.672 6,8.5 C6,9.328 6.672,10 7.5,10 C8.328,10 9,9.328 9,8.5 C9,7.672 8.328,7 7.5,7 Z M14,6.5 C14,6.224 14.224,6 14.5,6 C14.776,6 15,6.224 15,6.5 C15,6.776 14.776,7 14.5,7 C14.224,7 14,6.776 14,6.5 Z M3,14 C3,14.552 2.552,15 2,15 C1.448,15 1,14.552 1,14 C1,13.448 1.448,13 2,13 C2.552,13 3,13.448 3,14 Z M11,13.5 C10.724,13.5 10.5,13.724 10.5,14 C10.5,14.276 10.724,14.5 11,14.5 C11.276,14.5 11.5,14.276 11.5,14 C11.5,13.724 11.276,13.5 11,13.5 Z" id="Shape" fill="#FFFFFF"></path>
                    </g>
                </g>
            </g>
        </g>
    </g>
</svg>