<svg xmlns="http://www.w3.org/2000/svg" width="16" height="16" viewBox="0 0 16 16">
  <g fill="none" fill-rule="evenodd">
    <rect width="16" height="16"/>
    <path fill="#FFF" d="M1.2369,1 L0.2369,1 L0.2369,2 L0.2369,13.894 L7.10542736e-15,15 L0.2369,15 L1.2369,15 L13.2369,15 L14.0454,15 L14.2148,14.21 L15.7148,7.21 L15.9739,6 L14.7369,6 L14.2369,6 L14.2369,4 L14.2369,3 L13.2369,3 L8.1512,3 L6.4441,1.293 L6.1512,1 L5.7369,1 L1.2369,1 Z M13.5,8 L12.2369,8 L3.5454,8 L2.4739,13 L12.4285,13 L13.5,8 Z M2.2369,6 L2.7369,6 L12.2369,6 L12.2369,5 L7.7369,5 L7.3227,5 L7.0298,4.707 L5.3227,3 L2.2369,3 L2.2369,6 Z"/>
  </g>
</svg>
