<svg xmlns="http://www.w3.org/2000/svg" width="16" height="16" viewBox="0 0 16 16">
  <g fill="none" fill-rule="evenodd" transform="translate(-215 -240)">
    <rect width="1440" height="800" fill="#141F31"/>
    <rect width="175" height="32" x="64" y="232" fill="#2979FF" opacity=".06"/>
    <g opacity=".7" transform="translate(215 240)">
      <rect width="16" height="16"/>
      <path fill="#FFF" d="M7,3.5 C7,2.672 7.672,2 8.5,2 C9.328,2 10,2.672 10,3.5 C10,4.328 9.328,5 8.5,5 C7.672,5 7,4.328 7,3.5 Z M7,8.5 C7,7.672 7.672,7 8.5,7 C9.328,7 10,7.672 10,8.5 C10,9.328 9.328,10 8.5,10 C7.672,10 7,9.328 7,8.5 Z M8.5,12 C7.672,12 7,12.672 7,13.5 C7,14.328 7.672,15 8.5,15 C9.328,15 10,14.328 10,13.5 C10,12.672 9.328,12 8.5,12 Z"/>
    </g>
  </g>
</svg>
