<svg xmlns="http://www.w3.org/2000/svg" width="16" height="16" viewBox="0 0 16 16">
  <g fill="none" fill-rule="evenodd">
    <rect width="16" height="16"/>
    <path fill="#FFF" d="M6.5,3 C6.5,2.172 7.172,1.5 8,1.5 C8.828,1.5 9.5,2.172 9.5,3 C9.5,3.828 8.828,4.5 8,4.5 C7.172,4.5 6.5,3.828 6.5,3 Z M6.5,8 C6.5,7.172 7.172,6.5 8,6.5 C8.828,6.5 9.5,7.172 9.5,8 C9.5,8.828 8.828,9.5 8,9.5 C7.172,9.5 6.5,8.828 6.5,8 Z M8,11.5 C7.172,11.5 6.5,12.172 6.5,13 C6.5,13.828 7.172,14.5 8,14.5 C8.828,14.5 9.5,13.828 9.5,13 C9.5,12.172 8.828,11.5 8,11.5 Z"/>
  </g>
</svg>
