<?xml version="1.0" encoding="UTF-8"?>
<svg width="16px" height="16px" viewBox="0 0 16 16" version="1.1" xmlns="http://www.w3.org/2000/svg" xmlns:xlink="http://www.w3.org/1999/xlink">
    <!-- Generator: Sketch 53.2 (72643) - https://sketchapp.com -->
    <title>Rectangle</title>
    <desc>Created with Sketch.</desc>
    <g id="Page-1" stroke="none" stroke-width="1" fill="none" fill-rule="evenodd">
        <g id="01-图析12" transform="translate(-1200.000000, -212.000000)">
            <g id="Group-9" transform="translate(1144.000000, 204.000000)">
                <g id="Group-51" transform="translate(56.000000, 8.000000)">
                    <rect id="Rectangle" x="0" y="0" width="16" height="16"></rect>
                    <path d="M1.29,8.67211111 L13.54,8.67211111 C13.69,8.67211111 13.93,8.76811111 13.93,9.16011111 C13.93,9.55311111 13.7,9.67811111 13.54,9.67811111 L2.86,9.67811111 L4.48,11.3071111 C4.48,11.3071111 4.96,11.7811111 4.63,12.0841111 C4.29,12.3881111 4,12.0841111 4,12.0841111 L1.08,9.16011111 C1,9.07911111 0.98,8.95311111 1.02,8.84911111 C1.06,8.73811111 1.17,8.67211111 1.29,8.67211111 Z M13.64,6.54011111 L1.39,6.54011111 C1.23,6.54011111 1,6.44411111 1,6.05111111 C1,5.65911111 1.23,5.53311111 1.39,5.53311111 L12.08,5.53311111 L10.45,3.91211111 C10.45,3.91211111 9.97,3.43811111 10.3,3.13511111 C10.64,2.83111111 10.92,3.13511111 10.92,3.13511111 L13.85,6.05911111 C13.93,6.14011111 13.95,6.26611111 13.91,6.37011111 C13.86,6.47311111 13.76,6.54011111 13.64,6.54011111 Z" id="Shape" fill="#FFFFFF" fill-rule="nonzero"></path>
                </g>
            </g>
        </g>
    </g>
</svg>