<?xml version="1.0" encoding="UTF-8"?>
<svg width="175px" height="32px" viewBox="0 0 175 32" version="1.1" xmlns="http://www.w3.org/2000/svg" xmlns:xlink="http://www.w3.org/1999/xlink">
    <!-- Generator: Sketch 52.3 (67297) - http://www.bohemiancoding.com/sketch -->
    <title>bg</title>
    <desc>Created with Sketch.</desc>
    <defs>
        <radialGradient cx="19.7176282%" cy="100%" fx="19.7176282%" fy="100%" r="78.7363882%" gradientTransform="translate(0.197176,1.000000),scale(0.182857,1.000000),rotate(-93.707426),scale(1.000000,3.853312),translate(-0.197176,-1.000000)" id="radialGradient-1">
            <stop stop-color="#2979FF" offset="0%"></stop>
            <stop stop-color="#2979FF" stop-opacity="0" offset="100%"></stop>
        </radialGradient>
        <radialGradient cx="58.4521421%" cy="0%" fx="58.4521421%" fy="0%" r="131.176471%" gradientTransform="translate(0.584521,0.000000),scale(0.182857,1.000000),rotate(85.997275),scale(1.000000,1.906917),translate(-0.584521,-0.000000)" id="radialGradient-2">
            <stop stop-color="#2979FF" offset="0%"></stop>
            <stop stop-color="#2979FF" stop-opacity="0" offset="100%"></stop>
        </radialGradient>
        <radialGradient cx="17.6139706%" cy="100.1%" fx="17.6139706%" fy="100.1%" r="3082.37408%" gradientTransform="translate(0.176140,1.001000),scale(0.005714,1.000000),rotate(-179.998446),translate(-0.176140,-1.001000)" id="radialGradient-3">
            <stop stop-color="#2979FF" offset="0%"></stop>
            <stop stop-color="#2979FF" stop-opacity="0" offset="100%"></stop>
        </radialGradient>
    </defs>
    <g id="Page-1" stroke="none" stroke-width="1" fill="none" fill-rule="evenodd">
        <g id="23协作2" transform="translate(-64.000000, -104.000000)">
            <g id="协作2">
                <g id="bg" transform="translate(64.000000, 104.000000)">
                    <rect id="Rectangle" fill-opacity="0.06" fill="#2979FF" fill-rule="evenodd" x="0" y="0" width="175" height="32"></rect>
                    <rect id="Rectangle" fill-opacity="0.3" fill="url(#radialGradient-1)" fill-rule="evenodd" x="0" y="0" width="175" height="32"></rect>
                    <rect id="Rectangle" fill-opacity="0.2" fill="url(#radialGradient-2)" fill-rule="evenodd" x="0" y="0" width="175" height="32"></rect>
                    <path d="M0,31.5 L175,31.5" id="Path" stroke="url(#radialGradient-3)" stroke-width="1" opacity="0.7"></path>
                    <g id="Group" style="mix-blend-mode: lighten;" stroke-width="1" fill-rule="evenodd" transform="translate(0.000000, 31.000000)" fill="#2979FF">
                        <path d="M0,1 L0,0 L0,1 Z M13.6332721,1 L9.91452206,1 L9.91452206,0 L13.6332721,0 L13.6332721,1 Z M16.1102941,1 L15.4926471,1 L15.4926471,0 L16.1102941,0 L16.1102941,1 Z M48.3244485,1 L47.0827206,1 L47.0827206,0 L48.3244485,0 L48.3244485,1 Z M66.9117647,1 L66.9117647,0 L66.9117647,1 Z M80.5450368,1 L76.8262868,1 L76.8262868,0 L80.5450368,0 L80.5450368,1 Z M83.0220588,1 L82.4044118,1 L82.4044118,0 L83.0220588,0 L83.0220588,1 Z M115.236213,1 L113.994485,1 L113.994485,0 L115.236213,0 L115.236213,1 Z M133.823529,1 L133.823529,0 L133.823529,1 Z" id="Shape"></path>
                        <path d="M0,1 L0,0 L0,1 Z M13.6332721,1 L9.91452206,1 L9.91452206,0 L13.6332721,0 L13.6332721,1 Z M16.1102941,1 L15.4926471,1 L15.4926471,0 L16.1102941,0 L16.1102941,1 Z M48.3244485,1 L47.0827206,1 L47.0827206,0 L48.3244485,0 L48.3244485,1 Z M66.9117647,1 L66.9117647,0 L66.9117647,1 Z M80.5450368,1 L76.8262868,1 L76.8262868,0 L80.5450368,0 L80.5450368,1 Z M83.0220588,1 L82.4044118,1 L82.4044118,0 L83.0220588,0 L83.0220588,1 Z M115.236213,1 L113.994485,1 L113.994485,0 L115.236213,0 L115.236213,1 Z M133.823529,1 L133.823529,0 L133.823529,1 Z" id="Shape"></path>
                    </g>
                </g>
            </g>
        </g>
    </g>
</svg>