<?xml version="1.0" encoding="UTF-8"?>
<svg width="12px" height="12px" viewBox="0 0 12 12" version="1.1" xmlns="http://www.w3.org/2000/svg" xmlns:xlink="http://www.w3.org/1999/xlink">
    <!-- Generator: Sketch 52.3 (67297) - http://www.bohemiancoding.com/sketch -->
    <title>Shape</title>
    <desc>Created with Sketch.</desc>
    <g id="Page-1" stroke="none" stroke-width="1" fill="none" fill-rule="evenodd" fill-opacity="0.5">
        <g id="22协作1" transform="translate(-282.000000, -496.000000)" fill="#FFFFFF">
            <g id="协作1">
                <path d="M283,502 C283,499.239 285.239,497 288,497 C290.761,497 293,499.239 293,502 C293,503.636 292.214,505.088 291,506 L291,504 L291,503 L290,503 L286,503 L285,503 L285,504 L285,506 C283.786,505.088 283,503.636 283,502 Z M286,506.584 C286.612,506.852 287.289,507 288,507 C288.711,507 289.388,506.852 290,506.584 L290,504 L286,504 L286,506.584 Z M288,496 C284.686,496 282,498.686 282,502 C282,505.314 284.686,508 288,508 C291.314,508 294,505.314 294,502 C294,498.686 291.314,496 288,496 Z M287,500 C287,499.448 287.448,499 288,499 C288.552,499 289,499.448 289,500 C289,500.552 288.552,501 288,501 C287.448,501 287,500.552 287,500 Z M288,498 C286.895,498 286,498.895 286,500 C286,501.105 286.895,502 288,502 C289.105,502 290,501.105 290,500 C290,498.895 289.105,498 288,498 Z" id="Shape"></path>
            </g>
        </g>
    </g>
</svg>