<?xml version="1.0" encoding="UTF-8"?>
<svg width="64px" height="64px" viewBox="0 0 64 64" version="1.1" xmlns="http://www.w3.org/2000/svg" xmlns:xlink="http://www.w3.org/1999/xlink">
    <!-- Generator: Sketch 52.3 (67297) - http://www.bohemiancoding.com/sketch -->
    <title>Group 4</title>
    <desc>Created with Sketch.</desc>
    <g id="Page-1" stroke="none" stroke-width="1" fill="none" fill-rule="evenodd">
        <g id="首页背景1" transform="translate(-856.000000, -282.000000)">
            <g id="Group-5" transform="translate(837.000000, 282.000000)">
                <g id="Group-4" transform="translate(19.000000, 0.000000)">
                    <circle id="Oval" fill="#6347CF" opacity="0.5" cx="32" cy="32" r="32"></circle>
                    <path d="M19.384,20 L20.307,20 L33.845,20 L34.768,20 L34.768,20.923 L34.768,26.3 L43.692,26.3 L44.615,26.3 L44.615,27.223 L44.615,44 L48,44 L48,45.846 L43.691,45.846 L33.845,45.846 L20.307,45.846 L16,45.846 L16,44 L19.384,44 L19.384,20.923 L19.384,20 Z M21.23,44 L32.922,44 L32.922,21.846 L21.23,21.846 L21.23,44 Z M34.768,44 L42.768,44 L42.769,28.146 L34.768,28.146 L34.768,44 Z M26.999,27.846 L24,27.846 L24,26 L26.999,26 L30,26 L30,27.846 L26.999,27.846 Z M27,33.846 L24,33.846 L24,32 L27,32 L30,32 L30,33.846 L27,33.846 Z M27,39.846 L24,39.846 L24,38 L27,38 L30,38 L30,39.846 L27,39.846 Z M36,33.846 L38,33.846 L40,33.846 L40,32 L38,32 L36,32 L36,33.846 Z M36,39.846 L37.667,39.846 L40,39.846 L40,38 L37.667,38 L36,38 L36,39.846 Z" id="Shape" fill="#FFFFFF"></path>
                </g>
            </g>
        </g>
    </g>
</svg>