<?xml version="1.0" encoding="UTF-8"?>
<svg width="64px" height="64px" viewBox="0 0 64 64" version="1.1" xmlns="http://www.w3.org/2000/svg" xmlns:xlink="http://www.w3.org/1999/xlink">
    <!-- Generator: Sketch 52.3 (67297) - http://www.bohemiancoding.com/sketch -->
    <title>Group 3</title>
    <desc>Created with Sketch.</desc>
    <g id="Page-1" stroke="none" stroke-width="1" fill="none" fill-rule="evenodd">
        <g id="首页背景1" transform="translate(-694.000000, -282.000000)">
            <g id="Group-6" transform="translate(671.000000, 282.000000)">
                <g id="Group-3" transform="translate(23.000000, 0.000000)">
                    <path d="M64,32 C64,49.673 49.673,64 32,64 C14.327,64 0,49.673 0,32 C0,14.327 14.327,0 32,0 C49.673,0 64,14.327 64,32 Z" id="Path" fill="#315EFF" opacity="0.5"></path>
                    <path d="M19,20 C18.448,20 18,20.448 18,21 C18,21.552 18.448,22 19,22 C19.552,22 20,21.552 20,21 C20,20.448 19.552,20 19,20 Z M16,21 C16,19.343 17.343,18 19,18 C20.657,18 22,19.343 22,21 C22,21.648 21.795,22.248 21.445,22.738 L27.836,29.129 C28.698,28.423 29.799,28 31,28 C31.214,28 31.425,28.013 31.632,28.04 L33.077,21.775 C32.437,21.441 32,20.772 32,20 C32,18.895 32.895,18 34,18 C35.105,18 36,18.895 36,20 C36,20.3 35.934,20.584 35.816,20.84 L43.027,26.74 C43.555,26.279 44.245,26 45,26 C46.657,26 48,27.343 48,29 C48,30.657 46.657,32 45,32 C43.806,32 42.776,31.303 42.292,30.294 L35.922,32.114 C35.973,32.401 36,32.698 36,33 C36,34.594 35.254,36.013 34.093,36.929 L36.833,41.235 C37.192,41.084 37.586,41 38,41 C39.657,41 41,42.343 41,44 C41,45.657 39.657,47 38,47 C36.343,47 35,45.657 35,44 C35,43.116 35.382,42.322 35.99,41.773 L33.25,37.467 C32.573,37.808 31.809,38 31,38 C29.799,38 28.698,37.577 27.836,36.871 L21.723,42.984 C21.899,43.282 22,43.629 22,44 C22,45.105 21.105,46 20,46 C18.895,46 18,45.105 18,44 C18,42.895 18.895,42 20,42 C20.371,42 20.718,42.101 21.016,42.277 L27.129,36.164 C26.423,35.302 26,34.201 26,33 C26,31.799 26.423,30.698 27.129,29.836 L20.738,23.445 C20.248,23.795 19.648,24 19,24 C17.343,24 16,22.657 16,21 Z M35.647,31.152 L42.018,29.332 C42.006,29.223 42,29.112 42,29 C42,28.459 42.143,27.952 42.394,27.514 L35.182,21.613 C34.864,21.847 34.474,21.989 34.052,21.999 L32.606,28.264 C33.994,28.734 35.108,29.797 35.647,31.152 Z M31,30 C29.343,30 28,31.343 28,33 C28,34.657 29.343,36 31,36 C32.657,36 34,34.657 34,33 C34,31.343 32.657,30 31,30 Z M44,29 C44,28.448 44.448,28 45,28 C45.552,28 46,28.448 46,29 C46,29.552 45.552,30 45,30 C44.448,30 44,29.552 44,29 Z M38,43 C37.448,43 37,43.448 37,44 C37,44.552 37.448,45 38,45 C38.552,45 39,44.552 39,44 C39,43.448 38.552,43 38,43 Z" id="Shape" fill="#FFFFFF"></path>
                </g>
            </g>
        </g>
    </g>
</svg>