<?xml version="1.0" encoding="UTF-8"?>
<svg width="64px" height="64px" viewBox="0 0 64 64" version="1.1" xmlns="http://www.w3.org/2000/svg" xmlns:xlink="http://www.w3.org/1999/xlink">
    <!-- Generator: Sketch 52.3 (67297) - http://www.bohemiancoding.com/sketch -->
    <title>Group 2</title>
    <desc>Created with Sketch.</desc>
    <g id="Page-1" stroke="none" stroke-width="1" fill="none" fill-rule="evenodd">
        <g id="首页背景1" transform="translate(-526.000000, -282.000000)">
            <g id="Group-7" transform="translate(502.000000, 282.000000)">
                <g id="Group-2" transform="translate(24.000000, 0.000000)">
                    <circle id="Oval" fill="#2979FF" opacity="0.5" cx="32" cy="32" r="32"></circle>
                    <path d="M28,23 C28,20.791 29.791,19 32,19 C34.209,19 36,20.791 36,23 C36,24.155 35.516,25.72 34.695,26.994 C33.849,28.307 32.861,29 32,29 C31.139,29 30.151,28.307 29.305,26.994 C28.484,25.72 28,24.155 28,23 Z M32,17 C28.686,17 26,19.686 26,23 C26,24.607 26.635,26.542 27.624,28.077 C28.588,29.574 30.1,31 32,31 C33.9,31 35.412,29.574 36.376,28.077 C37.365,26.542 38,24.607 38,23 C38,19.686 35.314,17 32,17 Z M26.28,35.111 C27.062,34.533 28.272,34.686 29.177,35.591 L31.293,37.707 L32,38.414 L32.707,37.707 L34.823,35.591 C35.728,34.686 36.938,34.533 37.72,35.111 C40.299,37.016 42,40.182 42,43.783 L42,46 L44,46 L44,43.783 C44,39.546 41.997,35.783 38.909,33.502 C37.096,32.163 34.786,32.8 33.409,34.177 L32,35.586 L30.591,34.177 C29.214,32.8 26.904,32.163 25.091,33.502 C22.003,35.783 20,39.546 20,43.783 L20,46 L22,46 L22,43.783 C22,40.182 23.701,37.016 26.28,35.111 Z" id="Shape" fill-opacity="0.94" fill="#FFFFFF"></path>
                </g>
            </g>
        </g>
    </g>
</svg>