<?xml version="1.0" encoding="UTF-8"?>
<svg width="16px" height="16px" viewBox="0 0 16 16" version="1.1" xmlns="http://www.w3.org/2000/svg" xmlns:xlink="http://www.w3.org/1999/xlink">
    <!-- Generator: Sketch 53.2 (72643) - https://sketchapp.com -->
    <title>Combined Shape</title>
    <desc>Created with Sketch.</desc>
    <g id="Page-1" stroke="none" stroke-width="1" fill="none" fill-rule="evenodd">
        <g id="08-自定义模板导入1" transform="translate(-971.000000, -161.000000)" fill="#2979FF">
            <g id="Group-19-Copy" transform="translate(963.000000, 149.000000)">
                <g id="Group-6" transform="translate(8.000000, 12.000000)">
                    <path d="M8.8506,7.8535 L7.7046,8.9995 L12.9966,8.9995 L12.9966,9.9995 L7.7046,9.9995 L8.8506,11.1465 L8.1436,11.8535 L6.1436,9.8535 L5.7896,9.4995 L6.1436,9.1465 L8.1436,7.1465 L8.8506,7.8535 Z M5,4 L5,2.71 L3.71,4 L5,4 Z M13,7.84 L12,7.84 L12,2 L6,2 L6,5 L3,5 L3,13 L12,13 L12,11.15 L13,11.15 L13,14 L2,14 L2,4.29 L2.15,4.15 L5.15,1.15 L5.29,1 L13,1 L13,7.84 Z" id="Combined-Shape"></path>
                </g>
            </g>
        </g>
    </g>
</svg>