<svg width="48" height="48" viewBox="0 0 48 48" fill="none" xmlns="http://www.w3.org/2000/svg">
<circle cx="24" cy="24" r="23.5" fill="#2979FF" fill-opacity="0.2" stroke="#2979FF"/>
<path fill-rule="evenodd" clip-rule="evenodd" d="M12.5141 19.8435C12.3765 18.4697 13.3787 17.2444 14.7526 17.1068L30.6729 15.5123C32.0467 15.3747 33.272 16.3768 33.4096 17.7507L33.4207 17.8615L34.9165 17.7451L34.9021 17.6012C34.682 15.403 32.7216 13.7996 30.5234 14.0197L14.6031 15.6143C12.4049 15.8344 10.8015 17.7949 11.0216 19.993L11.5354 25.1227L12.5844 20.5454L12.5141 19.8435ZM24.3548 17.6526C25.4618 17.5417 26.5205 17.8008 27.4082 18.3295L21.6632 18.7767C22.4027 18.1631 23.3267 17.7555 24.3548 17.6526ZM16.8331 20.4546C15.4524 20.4546 14.3331 21.5739 14.3331 22.9546V30.9546C14.3331 32.3353 15.4524 33.4546 16.8331 33.4546H18.0831V32.3296H19.5831V33.4546H32.8331C34.2138 33.4546 35.3331 32.3353 35.3331 30.9546V30.1178C34.1506 29.5561 33.3331 28.3508 33.3331 26.9546C33.3331 25.5584 34.1506 24.3532 35.3331 23.7914V22.9546C35.3331 21.5739 34.2138 20.4546 32.8331 20.4546H19.5831V21.0796H18.0831V20.4546H16.8331ZM36.8331 23.4546L36.8331 22.9546C36.8331 20.7455 35.0422 18.9546 32.8331 18.9546H16.8331C14.624 18.9546 12.8331 20.7455 12.8331 22.9546V30.9546C12.8331 33.1638 14.624 34.9546 16.8331 34.9546H32.8331C35.0422 34.9546 36.8331 33.1638 36.8331 30.9546L36.8331 30.4546V28.9546C35.7285 28.9546 34.8331 28.0592 34.8331 26.9546C34.8331 25.8501 35.7285 24.9546 36.8331 24.9546V23.4546ZM18.0831 25.5796V23.3296H19.5831V25.5796H18.0831ZM18.0831 30.0796V27.8296H19.5831V30.0796H18.0831ZM30.3331 26.9546C30.3331 29.1638 28.5422 30.9546 26.3331 30.9546C24.124 30.9546 22.3331 29.1638 22.3331 26.9546C22.3331 24.7455 24.124 22.9546 26.3331 22.9546C28.5422 22.9546 30.3331 24.7455 30.3331 26.9546ZM31.3331 26.9546C31.3331 29.716 29.0945 31.9546 26.3331 31.9546C23.5717 31.9546 21.3331 29.716 21.3331 26.9546C21.3331 24.1932 23.5717 21.9546 26.3331 21.9546C29.0945 21.9546 31.3331 24.1932 31.3331 26.9546ZM26.7655 26.8666H28.8331V27.4666H26.6331V28.3666H28.8331V28.9666H26.6331V29.9547H26.0331V28.9666H23.8331V28.3666H26.0331V27.4666H23.8331V26.8666H25.9007L24.0893 24.3415L24.5769 23.9917L26.3331 26.44L28.0893 23.9917L28.5769 24.3415L26.7655 26.8666Z" fill="#2979FF"/>
</svg>
