<svg width="48" height="48" viewBox="0 0 48 48" fill="none" xmlns="http://www.w3.org/2000/svg">
<circle cx="24" cy="24" r="23.5" fill="#2979FF" fill-opacity="0.2" stroke="#2979FF"/>
<path fill-rule="evenodd" clip-rule="evenodd" d="M17.8355 13H17.0855V13.75V31.1116V31.8616H17.8355H33.5919H34.3419V31.1116V18.3798V18.0673L34.12 17.8472L29.4514 13.2175L29.2321 13H28.9233H17.8355ZM18.5855 30.3616V14.5H28.1735V18.3798V19.1298H28.9235H32.8419V30.3616H18.5855ZM31.7705 17.6298L29.6735 15.5502V17.6298H31.7705ZM13.7502 16.4724H13.0002V17.2224V34.584V35.334H13.7502H30.0902H30.8402V34.584V32.8478H29.3402V33.834H14.5002V17.9724H16.0845V16.4724H13.7502ZM24.9997 19.25H19.9997V17.75H24.9997V19.25ZM19.9996 23.2499H30.9996V21.7499H19.9996V23.2499ZM31.0004 27.2319H20.0004V25.7319H31.0004V27.2319Z" fill="#2979FF"/>
</svg>
