<?xml version="1.0" encoding="UTF-8"?>
<svg width="32px" height="32px" viewBox="0 0 32 32" version="1.1" xmlns="http://www.w3.org/2000/svg" xmlns:xlink="http://www.w3.org/1999/xlink">
    <!-- Generator: Sketch 52.3 (67297) - http://www.bohemiancoding.com/sketch -->
    <title>实体-internet</title>
    <desc>Created with Sketch.</desc>
    <g id="Page-1" stroke="none" stroke-width="1" fill="none" fill-rule="evenodd">
        <g id="components" transform="translate(-451.000000, -1448.000000)">
            <g id="实体-internet" transform="translate(451.000000, 1448.000000)">
                <rect id="Rectangle" fill="#0D254E" fill-rule="evenodd" x="0" y="0" width="32" height="32" rx="16"></rect>
                <circle id="Oval" stroke="#2979FF" stroke-width="1" cx="16" cy="16" r="15.5"></circle>
                <g id="Group-2" stroke-width="1" fill-rule="evenodd" transform="translate(7.000000, 7.000000)">
                    <path d="M16.305,14.7 L10.699,14.7 C10.663,14.96 10.627,15.22 10.627,15.52 C10.627,17.17 12.276,17.17 12.276,17.17 C12.727,17.17 13.097,17.36 13.097,17.59 C13.097,17.81 12.727,18 12.276,18 L5.724,18 C5.273,18 4.903,17.81 4.903,17.59 C4.903,17.36 5.273,17.17 5.724,17.17 C5.724,17.17 7.373,17.17 7.373,15.52 C7.373,15.22 7.337,14.96 7.301,14.7 L1.649,14.7 C0.748,14.7 0,13.95 0,13.05 L0,1.65 C0,0.75 0.748,0 1.649,0 L16.351,0 C17.252,0 18,0.75 18,1.65 L18,13.06 C17.955,13.95 17.207,14.7 16.305,14.7 Z" id="Path" fill="#2D77F5"></path>
                    <polygon id="Path" fill="#A5C6FF" points="16.305 1.65 1.649 1.65 1.649 11.45 16.341 11.45 16.341 1.65"></polygon>
                </g>
            </g>
        </g>
    </g>
</svg>