<?xml version="1.0" encoding="UTF-8"?>
<svg width="48px" height="48px" viewBox="0 0 48 48" version="1.1" xmlns="http://www.w3.org/2000/svg" xmlns:xlink="http://www.w3.org/1999/xlink">
    <!-- Generator: Sketch 52.3 (67297) - http://www.bohemiancoding.com/sketch -->
    <title>Group 9</title>
    <desc>Created with Sketch.</desc>
    <g id="Page-1" stroke="none" stroke-width="1" fill="none" fill-rule="evenodd">
        <g id="components" transform="translate(-305.000000, -1996.000000)" stroke="#2979FF">
            <g id="Group-9" transform="translate(305.000000, 1996.000000)">
                <circle id="Oval" fill-opacity="0.2" fill="#2979FF" cx="24" cy="24" r="23.5"></circle>
                <path d="M16.188,22.48 L16.188,14 L31.5,14 L31.5,22.48 L16.188,22.48 Z M16.188,22.48 L16.188,25.21 L22.75,25.21 L16.188,22.48 Z M16.188,22.48 L31.5,22.48 L16.188,22.48 Z M31.5,22.48 L31.5,25.21 L25.25,25.21 L31.5,22.48 Z M22.75,25.21 L22.75,28.55 L22.75,25.21 Z M22.75,25.21 L25.25,25.21 L22.75,25.21 Z M22.75,28.55 L25.25,28.55 L22.75,28.55 Z M22.75,28.55 L19.312,28.55 L22.75,28.55 Z M25.25,28.55 L25.25,25.21 L25.25,28.55 Z M25.25,28.55 L28.375,28.55 L25.25,28.55 Z M15.875,30.67 L14,34 L34,34 L32.125,30.67 L15.875,30.67 Z" id="Shape" stroke-width="1.5"></path>
            </g>
        </g>
    </g>
</svg>