<svg width="16" height="16" viewBox="0 0 16 16" fill="none" xmlns="http://www.w3.org/2000/svg">
<path fill-rule="evenodd" clip-rule="evenodd" d="M1.0044 8.00047C1.0044 4.13692 4.13643 1.00488 7.99999 1.00488C11.8635 1.00488 14.9956 4.13692 14.9956 8.00047C14.9956 11.864 11.8635 14.9961 7.99999 14.9961C4.13643 14.9961 1.0044 11.864 1.0044 8.00047ZM7.99999 0.00488281C3.58414 0.00488281 0.00439453 3.58463 0.00439453 8.00047C0.00439453 12.4163 3.58414 15.9961 7.99999 15.9961C12.4158 15.9961 15.9956 12.4163 15.9956 8.00047C15.9956 3.58463 12.4158 0.00488281 7.99999 0.00488281ZM9.30785 4.49445C9.30785 4.58459 9.29081 4.67075 9.25978 4.74988L11.0978 6.46537C11.2475 6.39223 11.4157 6.35119 11.5935 6.35119C12.2181 6.35119 12.7243 6.85746 12.7243 7.48198C12.7243 8.1065 12.2181 8.61277 11.5935 8.61277C11.2484 8.61277 10.9393 8.4581 10.7319 8.21428L9.37277 8.60259C9.35403 8.95782 9.21444 9.28101 8.99435 9.53181L10.019 11.325C10.4563 11.3622 10.7996 11.7289 10.7996 12.1758C10.7996 12.6473 10.4173 13.0296 9.94572 13.0296C9.47415 13.0296 9.09186 12.6473 9.09186 12.1758C9.09186 12.0561 9.11647 11.9422 9.16091 11.8388L8.12611 10.0279C8.03374 10.0453 7.93846 10.0544 7.84105 10.0544C7.59981 10.0544 7.37159 9.99869 7.16852 9.89947L6.4198 10.6482C6.45552 10.757 6.47484 10.8732 6.47484 10.994C6.47484 11.6058 5.9789 12.1017 5.36712 12.1017C4.75534 12.1017 4.2594 11.6058 4.2594 10.994C4.2594 10.3822 4.75534 9.88627 5.36712 9.88627C5.48775 9.88627 5.60387 9.90555 5.71258 9.9412L6.46164 9.19213C6.3627 8.98929 6.30717 8.76138 6.30717 8.52051C6.30717 8.27956 6.36273 8.05158 6.46174 7.8487L4.84228 6.22924C4.80859 6.23347 4.77426 6.23566 4.73943 6.23566C4.28824 6.23566 3.92249 5.8699 3.92249 5.41872C3.92249 4.96754 4.28824 4.60178 4.73943 4.60178C5.19061 4.60178 5.55636 4.96754 5.55636 5.41872C5.55636 5.4539 5.55414 5.48856 5.54982 5.52257L7.16871 7.14145C7.32739 7.06394 7.50144 7.01302 7.68504 6.99447L8.14792 5.02216C8.00081 4.89384 7.90785 4.705 7.90785 4.49445C7.90785 4.10785 8.22125 3.79445 8.60785 3.79445C8.99445 3.79445 9.30785 4.10785 9.30785 4.49445ZM10.4715 7.24866L9.09795 7.64109C8.98091 7.47412 8.83145 7.33154 8.6587 7.2225L8.97938 5.85606L10.4715 7.24866ZM4.52249 5.41872C4.52249 5.29891 4.61961 5.20178 4.73943 5.20178C4.85924 5.20178 4.95636 5.29891 4.95636 5.41872C4.95636 5.53853 4.85924 5.63566 4.73943 5.63566C4.61961 5.63566 4.52249 5.53853 4.52249 5.41872ZM7.30717 8.52051C7.30717 8.22566 7.5462 7.98663 7.84105 7.98663C8.1359 7.98663 8.37492 8.22566 8.37492 8.52051C8.37492 8.81536 8.1359 9.05438 7.84105 9.05438C7.5462 9.05438 7.30717 8.81536 7.30717 8.52051ZM11.5935 6.95119C11.3004 6.95119 11.0628 7.18883 11.0628 7.48198C11.0628 7.77513 11.3004 8.01277 11.5935 8.01277C11.8867 8.01277 12.1243 7.77513 12.1243 7.48198C12.1243 7.18883 11.8867 6.95119 11.5935 6.95119ZM9.69186 12.1758C9.69186 12.0356 9.80552 11.9219 9.94572 11.9219C10.0859 11.9219 10.1996 12.0356 10.1996 12.1758C10.1996 12.316 10.0859 12.4296 9.94572 12.4296C9.80552 12.4296 9.69186 12.316 9.69186 12.1758Z" fill="#2979FF"/>
</svg>
