<svg xmlns="http://www.w3.org/2000/svg" width="48" height="48" viewBox="0 0 48 48">
  <g fill="none" fill-rule="evenodd" stroke="#2979FF">
    <circle cx="24" cy="24" r="23.5" fill="#2979FF" fill-opacity=".2"/>
    <path stroke-width="1.5" d="M16.188,22.48 L16.188,14 L31.5,14 L31.5,22.48 L16.188,22.48 Z M16.188,22.48 L16.188,25.21 L22.75,25.21 M16.188,22.48 L31.5,22.48 L16.188,22.48 Z M31.5,22.48 L31.5,25.21 L25.25,25.21 M22.75,25.21 L22.75,28.55 L22.75,25.21 Z M22.75,25.21 L25.25,25.21 L22.75,25.21 Z M22.75,28.55 L25.25,28.55 L22.75,28.55 Z M22.75,28.55 L19.312,28.55 L22.75,28.55 Z M25.25,28.55 L25.25,25.21 L25.25,28.55 Z M25.25,28.55 L28.375,28.55 L25.25,28.55 Z M15.875,30.67 L14,34 L34,34 L32.125,30.67 L15.875,30.67 Z"/>
  </g>
</svg>
