<svg width="48" height="48" viewBox="0 0 48 48" fill="none" xmlns="http://www.w3.org/2000/svg">
<circle cx="24" cy="24" r="23.5" fill="#2979FF" fill-opacity="0.2" stroke="#2979FF"/>
<path fill-rule="evenodd" clip-rule="evenodd" d="M20.25 12C18.1789 12 16.5 13.6789 16.5 15.75V32.25C16.5 34.3211 18.1789 36 20.25 36H27.75C29.8211 36 31.5 34.3211 31.5 32.25V15.75C31.5 13.6789 29.8211 12 27.75 12H20.25ZM18 15.75C18 14.5074 19.0074 13.5 20.25 13.5H21.75V15H26.25V13.5H27.75C28.9926 13.5 30 14.5074 30 15.75V32.25C30 33.4926 28.9926 34.5 27.75 34.5H20.25C19.0074 34.5 18 33.4926 18 32.25V15.75ZM24 33C24.8284 33 25.5 32.3284 25.5 31.5C25.5 30.6716 24.8284 30 24 30C23.1716 30 22.5 30.6716 22.5 31.5C22.5 32.3284 23.1716 33 24 33Z" fill="#2979FF"/>
</svg>
