<svg width="48" height="48" viewBox="0 0 48 48" fill="none" xmlns="http://www.w3.org/2000/svg">
<circle cx="24" cy="24" r="23.5" fill="#2979FF" fill-opacity="0.2" stroke="#2979FF"/>
<path fill-rule="evenodd" clip-rule="evenodd" d="M13.749 13H14.499H25.499H26.249V13.75V18.25H33.4998H34.2498L34.2498 19L34.2491 33H36.9998V34.5H33.499H25.499H14.499H10.9998V33H13.749V13.75V13ZM24.749 33V14.5H15.249V33H24.749ZM26.249 33H32.7491L32.7497 19.75H26.249V33ZM19.999 19.75H17V18.25H19.999H23V19.75H19.999ZM20 24.75H17V23.25H20H23V24.75H20ZM20 29.75H17V28.25H20H23V29.75H20ZM28 24.75H29.5H31V23.25H29.5H28V24.75ZM28 29.75H29.25H31V28.25H29.25H28V29.75Z" fill="#2979FF"/>
</svg>
