<svg width="48" height="48" viewBox="0 0 48 48" fill="none" xmlns="http://www.w3.org/2000/svg">
<circle cx="24" cy="24" r="23.5" fill="#2979FF" fill-opacity="0.2" stroke="#2979FF"/>
<path d="M17.3556 21.3333L21.1777 17.4132C22.0587 16.5096 23.2673 16 24.5293 16H25.4444M17.3556 21.3333H23.7111M17.3556 21.3333H16.4404C15.1784 21.3333 13.9698 21.8429 13.0888 22.7466L12.9941 22.8436C11.7156 24.1549 11 25.9139 11 27.7454V28.4444C11 28.4444 12.5728 28.4444 14.9271 28.4444M35.2667 21.3333L33.7057 18.4516C32.8875 16.941 31.3076 16 29.5897 16H28.9111M35.2667 21.3333H30.0667M35.2667 21.3333C35.2667 21.3333 37 21.3333 37 22.5185C37 23.7037 37 26.6667 37 27.2593C37 27.8519 36.4222 28.4444 35.8444 28.4444C35.7397 28.4444 34.8567 28.4444 33.481 28.4444M25.4444 16L23.7111 21.3333M25.4444 16H28.9111M23.7111 21.3333H30.0667M30.0667 21.3333L28.9111 16M20.9075 28.4444C23.125 28.4444 25.4542 28.4444 27.5965 28.4444" stroke="#2979FF" stroke-width="1.5"/>
<path d="M20.5876 28.3656C20.5876 29.9331 19.3536 31.1712 17.871 31.1712C16.3884 31.1712 15.1543 29.9331 15.1543 28.3656C15.1543 26.7981 16.3884 25.5601 17.871 25.5601C19.3536 25.5601 20.5876 26.7981 20.5876 28.3656Z" stroke="#2979FF" stroke-width="1.5"/>
<path d="M33.2243 28.4442C33.2243 30.0117 31.9903 31.2498 30.5077 31.2498C29.0251 31.2498 27.791 30.0117 27.791 28.4442C27.791 26.8767 29.0251 25.6387 30.5077 25.6387C31.9903 25.6387 33.2243 26.8767 33.2243 28.4442Z" stroke="#2979FF" stroke-width="1.5"/>
</svg>
