<svg width="48" height="48" viewBox="0 0 48 48" fill="none" xmlns="http://www.w3.org/2000/svg">
<circle cx="24" cy="24" r="23.5" fill="#2979FF" fill-opacity="0.2" stroke="#2979FF"/>
<path d="M11.9999 27.4118L11.7166 26.7173L11.9999 28.1618V27.4118ZM19.9999 27.4118V28.1618H20.1443L20.2784 28.1081L19.9999 27.4118ZM16.8888 15.8824L16.5834 15.1973L15.6232 15.6254L16.3404 16.394L16.8888 15.8824ZM21.111 14L21.4891 13.3523L21.1569 13.1584L20.8056 13.315L21.111 14ZM30.8888 19.7068L31.1721 20.4013L30.8888 19.7068ZM16.2962 23.4449L16.573 24.1419L18.2278 23.4849L16.6016 22.7598L16.2962 23.4449ZM10.9629 25.5625L10.4076 26.0667L10.7568 26.4513L11.2396 26.2596L10.9629 25.5625ZM8.44434 22.7888L8.19393 22.0819L7.13117 22.4583L7.88908 23.293L8.44434 22.7888ZM11.9999 21.5294L12.3053 20.8444L12.0318 20.7225L11.7495 20.8225L11.9999 21.5294ZM37.6363 16.9545L37.353 16.26L37.6363 16.9545ZM38.5211 20.0033L38.2426 19.3069L38.5211 20.0033ZM11.9999 28.1618H19.9999V26.6618H11.9999V28.1618ZM20.2784 28.1081L38.7997 20.6996L38.2426 19.3069L19.7213 26.7154L20.2784 28.1081ZM23.05 22.0944L11.7166 26.7173L12.2832 28.1062L23.6165 23.4833L23.05 22.0944ZM23.8816 22.2771L17.4371 15.3707L16.3404 16.394L22.7849 23.3005L23.8816 22.2771ZM17.1942 16.5674L21.4164 14.685L20.8056 13.315L16.5834 15.1973L17.1942 16.5674ZM37.353 16.26L30.6055 19.0124L31.1721 20.4013L37.9196 17.6489L37.353 16.26ZM30.6055 19.0124L23.05 22.0944L23.6165 23.4833L31.1721 20.4013L30.6055 19.0124ZM20.7329 14.6477L30.5107 20.3546L31.2668 19.0591L21.4891 13.3523L20.7329 14.6477ZM16.0194 22.7478L10.6861 24.8654L11.2396 26.2596L16.573 24.1419L16.0194 22.7478ZM11.5181 25.0583L8.99959 22.2846L7.88908 23.293L10.4076 26.0667L11.5181 25.0583ZM8.69475 23.4958L12.2503 22.2364L11.7495 20.8225L8.19393 22.0819L8.69475 23.4958ZM11.6945 22.2144L15.9908 24.1299L16.6016 22.7598L12.3053 20.8444L11.6945 22.2144ZM37.9196 17.6489C38.2957 17.4955 38.7219 17.7016 38.8352 18.0916L40.2757 17.6731C39.9138 16.428 38.5535 15.7703 37.353 16.26L37.9196 17.6489ZM38.7997 20.6996C39.997 20.2207 40.6355 18.9114 40.2757 17.6731L38.8352 18.0916C38.9797 18.5889 38.7233 19.1146 38.2426 19.3069L38.7997 20.6996Z" fill="#2979FF"/>
<path d="M8 32H40V33.5H8V32Z" fill="#2979FF"/>
</svg>
