<svg width="48" height="48" viewBox="0 0 48 48" fill="none" xmlns="http://www.w3.org/2000/svg">
<circle cx="24" cy="24" r="23.5" fill="#2979FF" fill-opacity="0.2" stroke="#2979FF"/>
<path fill-rule="evenodd" clip-rule="evenodd" d="M30.732 21V28.4522C30.732 29.9967 29.48 31.2487 27.9355 31.2487H20.0645C18.52 31.2487 17.268 29.9967 17.268 28.4522V21C17.268 17.282 20.282 14.268 24 14.268C27.718 14.268 30.732 17.282 30.732 21ZM16 21C16 16.5817 19.5817 13 24 13C28.4183 13 32 16.5817 32 21V28.4522C32 30.2897 30.7806 31.8425 29.1068 32.3454L31.7885 35.1142L30.8776 35.9964L29.7311 34.8126H18.2689L17.1224 35.9964L16.2115 35.1142L18.8932 32.3454C17.2194 31.8425 16 30.2897 16 28.4522V21ZM28.5031 33.5446L27.5443 32.5546L27.5835 32.5167H20.4165L20.4557 32.5546L19.4969 33.5446H28.5031ZM20.601 20.4631H23.366V22.0572H20.601V20.4631ZM24.634 22.0572V20.4631H27.3984V22.0572H24.634ZM19.3331 19.1951H20.601H27.3984H28.6664V20.4631V22.0572V23.3252H27.3984H20.601H19.3331V22.0572V20.4631V19.1951ZM20.6669 18.1084H27.3336V16.8404H20.6669V18.1084ZM24 28.2523C24.3663 28.2523 24.732 27.934 24.732 27.4552C24.732 26.9765 24.3663 26.6582 24 26.6582C23.6337 26.6582 23.268 26.9765 23.268 27.4552C23.268 27.934 23.6337 28.2523 24 28.2523ZM24 29.5203C25.1046 29.5203 26 28.5957 26 27.4552C26 26.3147 25.1046 25.3902 24 25.3902C22.8954 25.3902 22 26.3147 22 27.4552C22 28.5957 22.8954 29.5203 24 29.5203Z" fill="#2979FF"/>
</svg>
