<svg width="48" height="48" viewBox="0 0 48 48" fill="none" xmlns="http://www.w3.org/2000/svg">
<circle cx="24" cy="24" r="23.5" fill="#2979FF" fill-opacity="0.2" stroke="#2979FF"/>
<path fill-rule="evenodd" clip-rule="evenodd" d="M31 15.5H17C15.6193 15.5 14.5 16.6193 14.5 18V24.126C14.9639 23.7923 15.4775 23.5232 16.0274 23.3318C16.0094 23.2239 16 23.113 16 23V21C16 19.8954 16.8954 19 18 19H21.0587C22.1633 19 23.0587 19.8954 23.0587 21V23H24.9414V21C24.9414 19.8954 25.8368 19 26.9414 19H30.0001C31.1047 19 32.0001 19.8954 32.0001 21V23C32.0001 23.1131 31.9907 23.2239 31.9727 23.3318C32.5226 23.5232 33.0361 23.7923 33.5 24.126V18C33.5 16.6193 32.3807 15.5 31 15.5ZM35 25.6822V24.5V18C35 15.7909 33.2091 14 31 14H17C14.7909 14 13 15.7909 13 18V24.5V25.6822C12.3682 26.6325 12 27.7733 12 29V29.5V30V31V31.5V33.5V35H13.5H34.5H36V33.5V31.5V31V30V29.5V29C36 27.7733 35.6318 26.6325 35 25.6822ZM15.9364 25H32.0636C33.5108 25.7481 34.5 27.2585 34.5 29V29.5H13.5V29C13.5 27.2585 14.4892 25.7481 15.9364 25ZM30.4997 23.0205C30.5 23.0137 30.5001 23.0069 30.5001 23V21C30.5001 20.7239 30.2763 20.5 30.0001 20.5H26.9414C26.6653 20.5 26.4414 20.7239 26.4414 21V23H30C30.1683 23 30.3349 23.0069 30.4997 23.0205ZM21.5587 23V21C21.5587 20.7239 21.3349 20.5 21.0587 20.5H18C17.7239 20.5 17.5 20.7239 17.5 21V23C17.5 23.0069 17.5001 23.0137 17.5004 23.0205C17.6651 23.0069 17.8318 23 18 23H21.5587ZM34.5 31.5H13.5V33.5H34.5V31.5Z" fill="#2979FF"/>
</svg>
