<svg width="48" height="48" viewBox="0 0 48 48" fill="none" xmlns="http://www.w3.org/2000/svg">
<circle cx="24" cy="24" r="23.5" fill="#2979FF" fill-opacity="0.2" stroke="#2979FF"/>
<path fill-rule="evenodd" clip-rule="evenodd" d="M23.5303 13.0607L17.0303 19.5607L15.9697 18.5L22.4697 12L23.5303 13.0607ZM24.4488 14.0216L24.9968 13.4279L25.5481 14.0186L32.5481 21.5186L33.0425 22.0483L32.5302 22.5607L26.5302 28.5607L25.9998 29.091L25.4695 28.5606L23.9841 27.0752L16.0139 34.5765L15.484 35.0752L14.9695 34.5607L12.4695 32.0607L11.9229 31.514L12.4858 30.9842L20.4229 23.514L18.4695 21.5607L17.96 21.0511L18.4488 20.5216L24.4488 14.0216ZM25.0029 15.6328L30.9572 22.0124L25.9999 26.9697L24.5303 25.5L24.0159 24.9855L23.486 25.4842L15.5157 32.9855L14.0768 31.5466L22.0139 24.0765L22.5768 23.5466L22.0302 23L20.0397 21.0095L25.0029 15.6328ZM25.4697 20.5607L26.9393 22.0303L25.4697 23.5L26.5303 24.5607L28.5303 22.5607L29.0607 22.0303L28.5303 21.5L26.5303 19.5L25.4697 20.5607ZM34.5303 24.5607L31.5303 27.5607L28.5303 30.5607L27.4697 29.5L30.4697 26.5L33.4697 23.5L34.5303 24.5607ZM22 35.0303H35V36.5303H22V35.0303Z" fill="#2979FF"/>
</svg>
