<?xml version="1.0" encoding="UTF-8"?>
<svg width="12px" height="14px" viewBox="0 0 12 14" version="1.1" xmlns="http://www.w3.org/2000/svg" xmlns:xlink="http://www.w3.org/1999/xlink">
    <!-- Generator: Sketch 52.3 (67297) - http://www.bohemiancoding.com/sketch -->
    <title>Shape</title>
    <desc>Created with Sketch.</desc>
    <g id="Page-1" stroke="none" stroke-width="1" fill="none" fill-rule="evenodd">
        <g id="22协作1" transform="translate(-917.000000, -163.000000)" fill="#FFFFFF">
            <g id="协作1">
                <path d="M920,163 L920.5,163 L925.5,163 L926,163 L926,163.5 L926,164 L929,164 L929,165 L925.5,165 L920.5,165 L917,165 L917,164 L920,164 L920,163.5 L920,163 Z M918.501,176.524 L918.001,166.024 L918.999,165.976 L919.477,176 L926.523,176 L927.001,165.976 L927.999,166.024 L927.499,176.524 L927.477,177 L927,177 L919,177 L918.523,177 L918.501,176.524 Z M921,167 L921,175 L922,175 L922,167 L921,167 Z M924,167 L924,175 L925,175 L925,167 L924,167 Z" id="Shape"></path>
            </g>
        </g>
    </g>
</svg>