<svg xmlns="http://www.w3.org/2000/svg" width="16" height="16" viewBox="0 0 16 16">
  <g fill="none" fill-rule="evenodd">
    <rect width="16" height="16"/>
    <path fill="#FFF" fill-rule="nonzero" d="M14.299,2.5 L14.732,2.75 L15.165,2 L14.299,2 L14.299,2.5 Z M8.237,13 L7.757,13.14 L8.082,14.27 L8.67,13.25 L8.237,13 Z M2.175,2.5 L2.175,2 L1,2 L1.815,2.85 L2.175,2.5 Z M13.866,2.25 L7.804,12.75 L8.67,13.25 L14.732,2.75 L13.866,2.25 Z M2.175,3 L14.299,3 L14.299,2 L2.175,2 L2.175,3 Z M8.717,12.86 L6.985,6.86 L6.025,7.14 L7.757,13.14 L8.717,12.86 Z M6.865,6.65 L2.535,2.15 L1.815,2.85 L6.145,7.35 L6.865,6.65 Z M14.049,2.07 L6.255,6.57 L6.755,7.43 L14.549,2.93 L14.049,2.07 Z"/>
  </g>
</svg>
