<svg xmlns="http://www.w3.org/2000/svg" width="16" height="16" viewBox="0 0 16 16">
  <g fill="none" fill-rule="evenodd">
    <rect width="16" height="16"/>
    <path fill="#FFF" d="M12.5,1 C11.395,1 10.5,1.9 10.5,3 C10.5,3.17 10.522,3.34 10.564,3.5 L4.95,6.62 C4.586,6.24 4.071,6 3.5,6 C2.395,6 1.5,6.9 1.5,8 C1.5,9.1 2.395,10 3.5,10 C4.071,10 4.586,9.76 4.95,9.38 L10.564,12.5 C10.522,12.66 10.5,12.83 10.5,13 C10.5,14.1 11.395,15 12.5,15 C13.605,15 14.5,14.1 14.5,13 C14.5,11.9 13.605,11 12.5,11 C11.929,11 11.414,11.24 11.05,11.62 L5.436,8.5 C5.478,8.34 5.5,8.17 5.5,8 C5.5,7.83 5.478,7.66 5.436,7.5 L11.05,4.38 C11.414,4.76 11.929,5 12.5,5 C13.605,5 14.5,4.1 14.5,3 C14.5,1.9 13.605,1 12.5,1 Z M11.5,3 C11.5,2.45 11.948,2 12.5,2 C13.052,2 13.5,2.45 13.5,3 C13.5,3.55 13.052,4 12.5,4 C11.948,4 11.5,3.55 11.5,3 Z M3.5,9 C2.953,9 2.508,8.56 2.5,8.02 L2.5,8 L2.5,7.98 C2.508,7.44 2.953,7 3.5,7 C4.052,7 4.5,7.45 4.5,8 C4.5,8.55 4.052,9 3.5,9 Z M11.5,13 C11.5,12.45 11.948,12 12.5,12 C13.052,12 13.5,12.45 13.5,13 C13.5,13.55 13.052,14 12.5,14 C11.948,14 11.5,13.55 11.5,13 Z"/>
  </g>
</svg>
