<svg xmlns="http://www.w3.org/2000/svg" width="16" height="16" viewBox="0 0 16 16">
  <g fill="none" fill-rule="evenodd">
    <rect width="16" height="16"/>
    <path fill="#FFF" d="M1,1 L0.5,1 L0.5,1.5 L0.5,14.5 L0.5,15 L1,15 L12,15 L12.5,15 L12.5,14.5 L12.5,14 L12,14 L11.5,14 L1.5,14 L1.5,2 L8.5,2 L8.5,4.5 L8.5,5 L9,5 L11.5,5 L12,5 L12.5,5 L12.5,4.5 L12.5,4.29 L12.354,4.15 L9.354,1.15 L9.207,1 L9,1 L1,1 Z M10.793,4 L9.5,2.71 L9.5,4 L10.793,4 Z M11.854,5.65 C11.711,5.5 11.495,5.46 11.309,5.54 C11.122,5.62 11,5.8 11,6 L11,7 L6,7 L5.5,7 L5.5,7.5 L5.5,11.5 L5.5,12 L6,12 L11,12 L11,13 C11,13.2 11.122,13.38 11.309,13.46 C11.495,13.54 11.711,13.5 11.854,13.35 L15.354,9.85 L15.707,9.5 L15.354,9.15 L11.854,5.65 Z M12,7.5 L12,7.21 L14.293,9.5 L12,11.79 L12,11.5 L12,11 L11.5,11 L6.5,11 L6.5,8 L11.5,8 L12,8 L12,7.5 Z"/>
  </g>
</svg>
