<?xml version="1.0" encoding="UTF-8"?>
<svg width="15px" height="13px" viewBox="0 0 15 13" version="1.1" xmlns="http://www.w3.org/2000/svg" xmlns:xlink="http://www.w3.org/1999/xlink">
    <!-- Generator: Sketch 52.3 (67297) - http://www.bohemiancoding.com/sketch -->
    <title>Shape</title>
    <desc>Created with Sketch.</desc>
    <g id="Page-1" stroke="none" stroke-width="1" fill="none" fill-rule="evenodd">
        <g id="23协作2" transform="translate(-1308.000000, -74.000000)" fill="#2979FF" fill-rule="nonzero">
            <g id="协作2">
                <path d="M1322.06,74.5 L1322.5,74.75 L1322.93,74 L1322.06,74 L1322.06,74.5 Z M1316,85 L1315.52,85.1387 L1315.85,86.2676 L1316.43,85.25 L1316,85 Z M1309.94,74.5 L1309.94,74 L1308.76,74 L1309.58,74.8467 L1309.94,74.5 Z M1321.63,74.25 L1315.57,84.75 L1316.43,85.25 L1322.5,74.75 L1321.63,74.25 Z M1309.94,75 L1322.06,75 L1322.06,74 L1309.94,74 L1309.94,75 Z M1316.48,84.8613 L1314.75,78.8613 L1313.79,79.1386 L1315.52,85.1387 L1316.48,84.8613 Z M1314.63,78.6533 L1310.3,74.1533 L1309.58,74.8467 L1313.91,79.3467 L1314.63,78.6533 Z M1321.81,74.067 L1314.02,78.5669 L1314.52,79.433 L1322.31,74.933 L1321.81,74.067 Z" id="Shape"></path>
            </g>
        </g>
    </g>
</svg>