<?xml version="1.0" encoding="UTF-8"?>
<svg width="13px" height="14px" viewBox="0 0 13 14" version="1.1" xmlns="http://www.w3.org/2000/svg" xmlns:xlink="http://www.w3.org/1999/xlink">
    <!-- Generator: Sketch 52.3 (67297) - http://www.bohemiancoding.com/sketch -->
    <title>Shape</title>
    <desc>Created with Sketch.</desc>
    <g id="Page-1" stroke="none" stroke-width="1" fill="none" fill-rule="evenodd">
        <g id="23协作2" transform="translate(-1245.000000, -73.000000)" fill="#2979FF">
            <g id="协作2">
                <path d="M1256,73 C1254.9,73 1254,73.8954 1254,75 C1254,75.1739 1254.02,75.3427 1254.06,75.5036 L1248.45,78.6225 C1248.09,78.239 1247.57,78 1247,78 C1245.9,78 1245,78.8954 1245,80 C1245,81.1046 1245.9,82 1247,82 C1247.57,82 1248.09,81.761 1248.45,81.3775 L1254.06,84.4964 C1254.02,84.6573 1254,84.826 1254,85 C1254,86.1046 1254.9,87 1256,87 C1257.1,87 1258,86.1046 1258,85 C1258,83.8954 1257.1,83 1256,83 C1255.43,83 1254.91,83.239 1254.55,83.6225 L1248.94,80.5036 C1248.98,80.3427 1249,80.1739 1249,80 C1249,79.8261 1248.98,79.6573 1248.94,79.4964 L1254.55,76.3775 C1254.91,76.761 1255.43,77 1256,77 C1257.1,77 1258,76.1046 1258,75 C1258,73.8954 1257.1,73 1256,73 Z M1255,75 C1255,74.4477 1255.45,74 1256,74 C1256.55,74 1257,74.4477 1257,75 C1257,75.5523 1256.55,76 1256,76 C1255.45,76 1255,75.5523 1255,75 Z M1247,81 C1246.45,81 1246.01,80.5582 1246,80.011 L1246,80 L1246,79.989 C1246.01,79.4418 1246.45,79 1247,79 C1247.55,79 1248,79.4477 1248,80 C1248,80.5523 1247.55,81 1247,81 Z M1255,85 C1255,84.4477 1255.45,84 1256,84 C1256.55,84 1257,84.4477 1257,85 C1257,85.5523 1256.55,86 1256,86 C1255.45,86 1255,85.5523 1255,85 Z" id="Shape"></path>
            </g>
        </g>
    </g>
</svg>