<?xml version="1.0" encoding="UTF-8"?>
<svg width="16px" height="14px" viewBox="0 0 16 14" version="1.1" xmlns="http://www.w3.org/2000/svg" xmlns:xlink="http://www.w3.org/1999/xlink">
    <!-- Generator: Sketch 52.3 (67297) - http://www.bohemiancoding.com/sketch -->
    <title>Group 2</title>
    <desc>Created with Sketch.</desc>
    <g id="Page-1" stroke="none" stroke-width="1" fill="none" fill-rule="evenodd">
        <g id="23协作2" transform="translate(-1168.000000, -73.000000)">
            <g id="协作2">
                <g id="Group-2" transform="translate(1168.000000, 73.000000)">
                    <path d="M14.5,8.5 L14.85,8.8536 L15.21,8.5 L14.85,8.1464 L14.5,8.5 Z M11,5 L11.35,4.6464 C11.21,4.5034 11,4.4607 10.81,4.5381 C10.62,4.6155 10.5,4.7978 10.5,5 L11,5 Z M11,12 L10.5,12 C10.5,12.2022 10.62,12.3845 10.81,12.4619 C11,12.5393 11.21,12.4966 11.35,12.3536 L11,12 Z M5.5,6.5 L5.5,6 L5,6 L5,6.5 L5.5,6.5 Z M11,6.5 L11,7 L11.5,7 L11.5,6.5 L11,6.5 Z M5.5,10.5 L5,10.5 L5,11 L5.5,11 L5.5,10.5 Z M11,10.5 L11.5,10.5 L11.5,10 L11,10 L11,10.5 Z M14.85,8.1464 L11.35,4.6464 L10.65,5.3536 L14.15,8.8536 L14.85,8.1464 Z M14.15,8.1464 L10.65,11.6464 L11.35,12.3536 L14.85,8.8536 L14.15,8.1464 Z M11.5,6.5 L11.5,5 L10.5,5 L10.5,6.5 L11.5,6.5 Z M5.5,7 L11,7 L11,6 L5.5,6 L5.5,7 Z M5,6.5 L5,10.5 L6,10.5 L6,6.5 L5,6.5 Z M10.5,10.5 L10.5,12 L11.5,12 L11.5,10.5 L10.5,10.5 Z M5.5,11 L11,11 L11,10 L5.5,10 L5.5,11 Z" id="Shape" fill="#2979FF" fill-rule="nonzero"></path>
                    <path d="M8.5,0.5 L0.5,0.5 L0.5,13.5 L11.5,13.5 L11.5,13 M8.5,0.5 L8.5,3.5 L11.5,3.5 M8.5,0.5 L11.5,3.5 M11.5,3.5 L11.5,4" id="Shape" stroke="#2979FF"></path>
                </g>
            </g>
        </g>
    </g>
</svg>