<?xml version="1.0" encoding="UTF-8"?>
<svg width="12px" height="14px" viewBox="0 0 12 14" version="1.1" xmlns="http://www.w3.org/2000/svg" xmlns:xlink="http://www.w3.org/1999/xlink">
    <!-- Generator: Sketch 52.3 (67297) - http://www.bohemiancoding.com/sketch -->
    <title>Shape</title>
    <desc>Created with Sketch.</desc>
    <g id="Page-1" stroke="none" stroke-width="1" fill="none" fill-rule="evenodd">
        <g id="23协作2" transform="translate(-1374.000000, -73.000000)" fill="#2979FF">
            <g id="协作2">
                <path d="M1377,73 L1377.5,73 L1382.5,73 L1383,73 L1383,73.5 L1383,74 L1386,74 L1386,75 L1382.5,75 L1377.5,75 L1374,75 L1374,74 L1377,74 L1377,73.5 L1377,73 Z M1375.5,86.5237 L1375,76.0237 L1376,75.9763 L1376.48,86 L1383.52,86 L1384,75.9763 L1385,76.0237 L1384.5,86.5237 L1384.48,87 L1384,87 L1376,87 L1375.52,87 L1375.5,86.5237 Z M1378,77 L1378,85 L1379,85 L1379,77 L1378,77 Z M1381,77 L1381,85 L1382,85 L1382,77 L1381,77 Z" id="Shape"></path>
            </g>
        </g>
    </g>
</svg>